<?xml version="1.0" encoding="UTF-8"?>
<svg version="1.1" xmlns="http://www.w3.org/2000/svg" width="329" height="321">
<path d="M0 0 C4.61996447 0.33628857 6.69157825 2.20409955 9.9375 5.375 C14.05724585 9.29552909 18.30531133 12.90735234 22.8125 16.375 C27.72038216 20.16586005 32.49700621 24.06797394 37.1875 28.125 C47.88768066 37.37690311 58.9427666 46.18107295 70 55 C69.52879861 59.6951853 67.73535286 61.77980492 64.5 65.125 C63.57845312 66.09811001 62.65923147 67.0734266 61.7421875 68.05078125 C61.2790918 68.54271973 60.81599609 69.0346582 60.33886719 69.54150391 C58.33746982 71.72172781 56.48252784 74.00930156 54.625 76.3125 C50.51559835 81.40698182 46.27474271 86.37517069 41.98486328 91.31762695 C39.82983966 93.81121594 37.83083267 96.253751 36 99 C35.34 99 34.68 99 34 99 C33.74992188 99.55945313 33.49984375 100.11890625 33.2421875 100.6953125 C31.79576161 103.37893286 30.072615 105.52787423 28.125 107.875 C27.32320313 108.84179688 26.52140625 109.80859375 25.6953125 110.8046875 C22.31350323 114.82921628 18.88469393 118.81348147 15.45263672 122.79516602 C12.32976301 126.42457282 9.26665061 130.09369796 6.25 133.8125 C2.9459811 137.88309883 -0.4797399 141.80915954 -3.984375 145.70703125 C-6.92629531 149.05375067 -9.71117521 152.52233008 -12.515625 155.984375 C-14.78967983 158.74470571 -17.10930507 161.45432989 -19.453125 164.1550293 C-25.29531274 170.88700731 -30.76585599 177.78322568 -36 185 C-40.21583325 184.52430654 -42.63198175 183.96625592 -45.6875 181 C-48.75031371 178.14561974 -51.86478986 175.44077514 -55.125 172.8125 C-59.47661999 169.27454857 -63.75237309 165.66112965 -68 162 C-74.92311788 156.03720071 -81.93263705 150.18779571 -89.125 144.55078125 C-90.6409375 143.35001953 -90.6409375 143.35001953 -92.1875 142.125 C-93.10917969 141.40570313 -94.03085938 140.68640625 -94.98046875 139.9453125 C-95.64691406 139.30335938 -96.31335938 138.66140625 -97 138 C-97 137.01 -97 136.02 -97 135 C-88.18624577 135.574005 -80.51067618 138.33075787 -72.23828125 141.29296875 C-65.03462298 143.74098417 -58.80124476 145.35179616 -51.6953125 141.87109375 C-46.88535857 137.47991691 -44.30545379 133.32105367 -43.83984375 126.734375 C-44.05567822 121.65794833 -45.52111619 118.59092892 -48.87133789 114.86206055 C-53.40177171 110.89903512 -58.91355287 108.39555861 -64.25 105.6875 C-66.61239898 104.46796222 -68.9702446 103.24000373 -71.328125 102.01171875 C-72.88901855 101.21447388 -72.88901855 101.21447388 -74.48144531 100.40112305 C-77 99 -77 99 -79 97 C-78.69956374 93.15691953 -77.62228007 91.13082211 -75 88.375 C-72.0848135 85.20994037 -69.32388327 81.97729711 -66.625 78.625 C-63.65438516 74.9684707 -60.61216955 71.4181618 -57.4375 67.9375 C-53.85527464 64.00322836 -50.51884874 59.93938077 -47.2265625 55.76171875 C-44.57189439 52.46899883 -41.82542334 49.26442885 -39.0625 46.0625 C-34.71747095 41.02510884 -30.46202283 35.92810002 -26.265625 30.765625 C-19.75979937 22.82403096 -13.05163494 15.04791716 -6.375 7.25 C-5.85381592 6.64115967 -5.33263184 6.03231934 -4.7956543 5.4050293 C-1.12281849 1.12281849 -1.12281849 1.12281849 0 0 Z M-41.625 76.9375 C-45.65311449 82.97967174 -45.60970977 88.94612698 -45 96 C-42.89332401 104.36519518 -36.92617122 111.14555079 -30 116 C-22.88626219 119.52583165 -16.01989503 120.03040163 -8.4375 117.875 C-1.04542004 115.1268257 3.51502272 110.32956751 7.05859375 103.359375 C9.62366207 96.93073905 9.68369838 90.39208161 7 84 C1.85302124 74.63621937 -4.92157087 69.35947638 -15 66 C-26.37102373 64.67558792 -34.3300273 68.23964793 -41.625 76.9375 Z " fill="#F5A633" transform="translate(190,16)"/>
<path d="M0 0 C3.49654627 1.93162861 6.68482868 4.15135819 9.890625 6.51953125 C14.97965196 10.21783494 20.13126261 13.72239713 25.48046875 17.0390625 C29.47588334 19.57847234 33.32729778 22.32506125 37.18359375 25.0703125 C44.37379693 29.11654586 51.66542448 29.04535586 59.703125 28.96484375 C61.31755493 28.96059891 61.31755493 28.96059891 62.96459961 28.95626831 C66.37755799 28.94513856 69.7902469 28.9200472 73.203125 28.89453125 C75.52733994 28.88449214 77.85155902 28.87536792 80.17578125 28.8671875 C85.85165331 28.84522285 91.52736989 28.8118175 97.203125 28.76953125 C97.203125 28.10953125 97.203125 27.44953125 97.203125 26.76953125 C95.9027832 26.80095215 95.9027832 26.80095215 94.57617188 26.83300781 C91.3258871 26.90162687 88.07597443 26.95154576 84.82519531 26.98925781 C83.42468027 27.00923755 82.02424718 27.03643145 80.62402344 27.07128906 C72.60971121 27.26564471 66.03645645 27.41518304 59.203125 22.76953125 C56.33369279 19.11752662 55.99546446 16.21527457 56.203125 11.70703125 C56.70966671 7.96987905 57.17720652 6.80295245 59.578125 3.70703125 C63.5875704 0.74767869 66.5526289 0.63776998 71.41186523 0.60839844 C72.69427597 0.59879089 73.97668671 0.58918335 75.29795837 0.57928467 C76.70254335 0.57443316 78.1071304 0.5701552 79.51171875 0.56640625 C80.22213884 0.56357887 80.93255894 0.5607515 81.66450691 0.55783844 C85.43251034 0.54284243 89.20047553 0.5336188 92.96850586 0.52929688 C96.83149089 0.5238471 100.69411719 0.49989534 104.55699062 0.47132492 C107.5504705 0.45253356 110.54386737 0.44748402 113.5374012 0.445961 C114.95933023 0.44296513 116.3812589 0.43504251 117.8031292 0.42177582 C132.78583729 0.29209189 145.38674128 2.54201894 156.828125 12.76953125 C167.18801082 24.02084911 172.31849372 39.83856138 177.96679688 53.74804688 C178.77537825 55.72415334 179.60408396 57.69217472 180.45507812 59.65039062 C181.0187207 60.97006836 181.0187207 60.97006836 181.59375 62.31640625 C181.92922852 63.08307617 182.26470703 63.84974609 182.61035156 64.63964844 C183.29764921 67.10916438 182.89937598 68.34923022 182.203125 70.76953125 C175.05482096 71.49131257 167.90548546 72.20214222 160.75537109 72.90576172 C158.32869465 73.14581934 155.90225475 73.38828187 153.47607422 73.63330078 C118.19487034 77.19192365 118.19487034 77.19192365 114.48388672 74.54174805 C113.203125 72.95703125 113.203125 72.95703125 111.203125 69.76953125 C105.46516694 65.60838883 98.91157286 66.34652081 92.1328125 66.36328125 C90.22388718 66.34702698 90.22388718 66.34702698 88.27639771 66.33044434 C84.21024786 66.29621146 80.14438538 66.28000107 76.078125 66.26953125 C70.7419318 66.25571309 65.40635867 66.22101302 60.0703125 66.17578125 C58.86051727 66.17880249 57.65072205 66.18182373 56.40426636 66.18493652 C46.84687742 66.10169831 36.92564978 65.20011967 28.765625 59.76953125 C28.00378906 59.27453125 27.24195313 58.77953125 26.45703125 58.26953125 C25.71324219 57.77453125 24.96945313 57.27953125 24.203125 56.76953125 C23.28402344 56.25390625 22.36492187 55.73828125 21.41796875 55.20703125 C20.68707031 54.73265625 19.95617187 54.25828125 19.203125 53.76953125 C19.203125 53.10953125 19.203125 52.44953125 19.203125 51.76953125 C17.553125 51.10953125 15.903125 50.44953125 14.203125 49.76953125 C14.203125 49.10953125 14.203125 48.44953125 14.203125 47.76953125 C13.63851562 47.52332031 13.07390625 47.27710938 12.4921875 47.0234375 C9.80416572 45.55098871 7.82995344 43.78648846 5.578125 41.70703125 C4.70929688 40.91167969 3.84046875 40.11632812 2.9453125 39.296875 C1.58792969 38.04583984 1.58792969 38.04583984 0.203125 36.76953125 C-1.62732169 35.09969479 -3.46053407 33.43288355 -5.296875 31.76953125 C-6.1115625 31.02703125 -6.92625 30.28453125 -7.765625 29.51953125 C-9.67953931 27.72612085 -9.67953931 27.72612085 -11.796875 26.76953125 C-11.796875 26.10953125 -11.796875 25.44953125 -11.796875 24.76953125 C-12.374375 24.54265625 -12.951875 24.31578125 -13.546875 24.08203125 C-16.58425574 22.31022582 -17.98559954 20.80988648 -19.796875 17.76953125 C-20.53531511 13.37134952 -20.09109735 9.68681269 -18.734375 5.45703125 C-14.15743611 -0.89162592 -7.42431907 -3.26628562 0 0 Z " fill="#503304" transform="translate(101.796875,199.23046875)"/>
<path d="M0 0 C0.78773804 0.13317627 1.57547607 0.26635254 2.38708496 0.40356445 C4.87373414 0.825399 7.35871235 1.25628423 9.84375 1.6875 C11.54156395 1.9771652 13.23947987 2.26623339 14.9375 2.5546875 C19.07412686 3.25873277 23.20928161 3.97089269 27.34375 4.6875 C27.94091797 6.55053711 27.94091797 6.55053711 28.34375 8.6875 C26.7890625 10.87890625 26.7890625 10.87890625 24.46875 13.25 C21.10196666 16.80469682 17.8698558 20.38738292 14.78125 24.1875 C13.66943359 25.54488281 13.66943359 25.54488281 12.53515625 26.9296875 C11.06568456 28.77896916 9.63583504 30.66038871 8.24609375 32.5703125 C3.16142943 39.44783534 3.16142943 39.44783534 -1.28125 40.75 C-2.395 40.729375 -3.50875 40.70875 -4.65625 40.6875 C-7.81094193 41.17283722 -10.62638294 41.67754431 -13.65625 42.6875 C-13.12844015 45.85435911 -12.44386285 48.0375035 -9.91943359 50.12084961 C-3.11942923 54.51363108 3.92313274 58.33205329 11.08398438 62.09960938 C29.14708632 71.75773606 29.14708632 71.75773606 31.34375 77.6875 C31.79974783 82.70347611 31.47362123 85.69421602 28.34375 89.6875 C22.78355652 94.5696211 22.78355652 94.5696211 18.671875 94.90625 C14.82434434 94.65336066 11.64933458 93.56342086 8.09375 92.1875 C-0.64366323 88.93275416 -9.52275861 86.24638665 -18.48144531 83.66796875 C-28.99031875 80.54379559 -36.16631819 76.88161533 -43.3203125 68.48046875 C-46.59644248 65.96584724 -48.60059184 66.256047 -52.65625 66.6875 C-56.28264355 67.61195262 -59.79323843 68.75389558 -63.3515625 69.91015625 C-66.71455906 70.70121572 -68.37512205 70.47233016 -71.65625 69.6875 C-71.7025455 62.42057672 -71.73810493 55.15368512 -71.75987434 47.88664436 C-71.77032142 44.51243006 -71.78449725 41.13831648 -71.80712891 37.76416016 C-71.83129885 33.88701682 -71.84271511 30.01001723 -71.8515625 26.1328125 C-71.86188507 24.91820343 -71.87220764 23.70359436 -71.88284302 22.45217896 C-71.88299408 21.33116791 -71.88314514 20.21015686 -71.88330078 19.05517578 C-71.887742 18.06478302 -71.89218323 17.07439026 -71.89675903 16.0539856 C-71.65625 13.6875 -71.65625 13.6875 -69.65625 11.6875 C-67.81887923 11.21986048 -65.95878558 10.8409697 -64.09375 10.5 C-57.00514847 9.07350124 -50.10625483 7.17705251 -43.15625 5.1875 C-28.42792342 1.00371292 -15.32541049 -2.69557779 0 0 Z " fill="#513303" transform="translate(110.65625,61.3125)"/>
<path d="M0 0 C0.66 0.99 1.32 1.98 2 3 C1.34 3.66 0.68 4.32 0 5 C-0.99 5 -1.98 5 -3 5 C-3.433125 6.4540625 -3.433125 6.4540625 -3.875 7.9375 C-5 11 -5 11 -7 12 C-7.185625 13.4540625 -7.185625 13.4540625 -7.375 14.9375 C-7.58125 15.948125 -7.7875 16.95875 -8 18 C-9.8125 19.0625 -9.8125 19.0625 -12 20 C-13.37868281 21.62935241 -14.71274093 23.29749607 -16 25 C-17.5286155 26.57084245 -19.09676582 28.09315684 -20.67578125 29.61328125 C-22.34095472 31.3420413 -23.76103919 32.94088204 -25 35 C-24.77455664 38.34473236 -24.77455664 38.34473236 -23 41 C-22.01 41.66 -21.02 42.32 -20 43 C-21.98 43.495 -21.98 43.495 -24 44 C-24 44.99 -24 45.98 -24 47 C-23.071875 46.690625 -22.14375 46.38125 -21.1875 46.0625 C-19.125 45.375 -17.0625 44.6875 -15 44 C-15 47.58371915 -15.74478337 48.27587204 -17.9375 51 C-22.70333331 56.94884158 -22.53940413 62.58319325 -22 70 C-20.05012299 77.82818269 -14.63128913 84.57478934 -8 89 C-0.77562825 92.46925766 5.9696102 93.05278966 13.625 90.8125 C20.7670824 88.14955862 24.46319032 83.81847217 28.01953125 77.28125 C29.05900167 74.86272121 29.57562059 72.59190863 30 70 C30.66 70 31.32 70 32 70 C32.33 69.34 32.66 68.68 33 68 C34 71 34 71 33 74 C32.77820215 75.89212737 32.59385985 77.78884472 32.4375 79.6875 C32.31181641 81.17830078 32.31181641 81.17830078 32.18359375 82.69921875 C32.12300781 83.45847656 32.06242187 84.21773438 32 85 C31.34 84.34 30.68 83.68 30 83 C29.34 83 28.68 83 28 83 C27.34 83 26.68 83 26 83 C25.505 84.98 25.505 84.98 25 87 C24.34 87 23.68 87 23 87 C22.7215625 88.8871875 22.7215625 88.8871875 22.4375 90.8125 C22.28087891 91.87404297 22.28087891 91.87404297 22.12109375 92.95703125 C21.86095201 95.2025342 21.86095201 95.2025342 23 98 C19.49223216 99.60355101 16.85645121 100.22036864 13 100 C13.495 98.02 13.495 98.02 14 96 C14.66 96.33 15.32 96.66 16 97 C15.67 96.34 15.34 95.68 15 95 C13.88882813 95.04640625 12.77765625 95.0928125 11.6328125 95.140625 C1.42730348 95.43666967 -6.27912658 94.81391561 -15 89 C-14.67 89.99 -14.34 90.98 -14 92 C-15.32 92 -16.64 92 -18 92 C-18 91.01 -18 90.02 -18 89 C-18.99 89.66 -19.98 90.32 -21 91 C-20.67 92.010625 -20.34 93.02125 -20 94.0625 C-18.63048627 98.85094163 -18.41234796 103.23704389 -20 108 C-20.66 108 -21.32 108 -22 108 C-22 109.32 -22 110.64 -22 112 C-23.78277744 114.01623639 -25.83126157 115.37344618 -28 117 C-28.66 116.67 -29.32 116.34 -30 116 C-29.59007812 115.56429687 -29.18015625 115.12859375 -28.7578125 114.6796875 C-24.16847632 109.6072633 -21.70261607 105.59265612 -22 98.5625 C-22.24336287 94.43293629 -24.17908305 91.84300321 -26.86914062 88.85766602 C-31.4060235 84.90244812 -36.91342139 82.39562533 -42.25 79.6875 C-44.61239898 78.46796222 -46.9702446 77.24000373 -49.328125 76.01171875 C-50.88901855 75.21447388 -50.88901855 75.21447388 -52.48144531 74.40112305 C-55 73 -55 73 -57 71 C-56.69956374 67.15691953 -55.62228007 65.13082211 -53 62.375 C-50.0848135 59.20994037 -47.32388327 55.97729711 -44.625 52.625 C-41.65438516 48.9684707 -38.61216955 45.4181618 -35.4375 41.9375 C-31.85527464 38.00322836 -28.51884874 33.93938077 -25.2265625 29.76171875 C-22.07680768 25.85491759 -18.79364192 22.06810124 -15.51489258 18.26953125 C-11.50576522 13.61549892 -7.60209625 8.88830964 -3.7421875 4.109375 C-2 2 -2 2 0 0 Z " fill="#F0A638" transform="translate(168,42)"/>
<path d="M0 0 C0 6.6 0 13.2 0 20 C-5.59572082 20.62174676 -10.59939861 21.12560802 -16.14038086 21.12939453 C-16.79197174 21.13114685 -17.44356262 21.13289917 -18.11489868 21.13470459 C-20.2315755 21.13904495 -22.34816635 21.13621558 -24.46484375 21.1328125 C-25.94934607 21.13348722 -27.43384828 21.13445864 -28.91835022 21.13571167 C-32.01043767 21.13717753 -35.10249603 21.13506792 -38.19458008 21.13037109 C-42.16137693 21.12463932 -46.12810662 21.12798145 -50.09490108 21.13394356 C-53.15143851 21.1375495 -56.20795986 21.13641104 -59.26449776 21.13381577 C-60.72816539 21.13314839 -62.19183448 21.13396831 -63.65550041 21.13629532 C-65.69212695 21.1388261 -67.72875862 21.13428693 -69.76538086 21.12939453 C-70.9240416 21.12859894 -72.08270233 21.12780334 -73.276474 21.12698364 C-76 21 -76 21 -78 20 C-78.02694851 18.04174127 -78.04637218 16.08337774 -78.0625 14.125 C-78.07410156 13.03445313 -78.08570313 11.94390625 -78.09765625 10.8203125 C-78 8 -78 8 -77 6 C-74.99310303 5.57640076 -74.99310303 5.57640076 -72.31933594 5.32983398 C-71.32029236 5.23310898 -70.32124878 5.13638397 -69.29193115 5.03672791 C-68.20043762 4.94081863 -67.10894409 4.84490936 -65.984375 4.74609375 C-64.86242737 4.64031509 -63.74047974 4.53453644 -62.58453369 4.42555237 C-58.97377897 4.08739413 -55.36196645 3.76243289 -51.75 3.4375 C-49.35929694 3.21503 -46.9686707 2.99173272 -44.578125 2.76757812 C-13.13389841 -0.15823974 -13.13389841 -0.15823974 0 0 Z " fill="#4B310B" transform="translate(292,274)"/>
<path d="M0 0 C2.91714801 -0.27570606 5.5886826 -0.3722561 8.5 -0.3125 C9.67755859 -0.31733398 9.67755859 -0.31733398 10.87890625 -0.32226562 C16.73296131 -0.26703869 16.73296131 -0.26703869 19 2 C19.25396729 5.03637695 19.25396729 5.03637695 19.25878906 8.98828125 C19.2622937 9.70712494 19.26579834 10.42596863 19.26940918 11.16659546 C19.27822965 13.54866116 19.27237636 15.93043115 19.265625 18.3125 C19.26697156 19.96394915 19.26891202 21.61539791 19.27142334 23.2668457 C19.27437503 26.73034433 19.27007557 30.1937399 19.26074219 33.65722656 C19.24934758 38.10295311 19.25590682 42.5484382 19.26788712 46.99415588 C19.27510454 50.40500721 19.27281834 53.81580102 19.26763153 57.22665405 C19.26629471 58.86616036 19.2679439 60.50567185 19.27259064 62.14517212 C19.277654 64.43416226 19.26994862 66.72275808 19.25878906 69.01171875 C19.25640228 70.96791138 19.25640228 70.96791138 19.25396729 72.96362305 C19 76 19 76 17 78 C14.72265625 78.265625 14.72265625 78.265625 12.0625 78.25 C11.18722656 78.25515625 10.31195313 78.2603125 9.41015625 78.265625 C7 78 7 78 4 76 C3.45614624 73.43505859 3.45614624 73.43505859 3.21630859 70.1484375 C3.11965912 68.91955811 3.02300964 67.69067871 2.9234314 66.42456055 C2.8315131 65.07472428 2.73985515 63.72487026 2.6484375 62.375 C2.54428538 60.98924348 2.43884831 59.60358298 2.33218384 58.21801758 C2.05389065 54.55989477 1.79236122 50.90076131 1.53448486 47.2411499 C1.27195694 43.55199453 0.9951382 39.86391992 0.71875 36.17578125 C0.40700332 32.01320848 0.09641201 27.85061326 -0.20132446 23.68701172 C-0.29166962 22.43291504 -0.38201477 21.17881836 -0.47509766 19.88671875 C-0.55898743 18.70770996 -0.6428772 17.52870117 -0.72930908 16.31396484 C-1.0397388 12.51349313 -1.48752515 8.74034321 -2.01473999 4.96411133 C-2 3 -2 3 0 0 Z " fill="#462C07" transform="translate(15,66)"/>
<path d="M0 0 C3.07921269 1.07772444 4.04512924 1.96525849 5.5 4.875 C5.4375 7.4375 5.4375 7.4375 4.5 9.875 C2.4375 11.6875 2.4375 11.6875 0.5 12.875 C1.5209375 12.4109375 1.5209375 12.4109375 2.5625 11.9375 C7.2612694 10.23794511 10.85765215 9.32755072 15.6875 10.9375 C19.11497364 13.2986485 20.71923087 15.09976945 22.5 18.875 C22.52558325 21.71474091 22.08119075 24.06591136 21.5 26.875 C22.16 26.875 22.82 26.875 23.5 26.875 C24.29953138 30.16196233 24.59658936 31.58523192 23.5 34.875 C22.45199219 35.05675781 22.45199219 35.05675781 21.3828125 35.2421875 C20.01769531 35.49355469 20.01769531 35.49355469 18.625 35.75 C17.26761719 35.99363281 17.26761719 35.99363281 15.8828125 36.2421875 C13.33494012 36.70544703 13.33494012 36.70544703 11.5 38.875 C8 38.6875 8 38.6875 4.5 37.875 C2.31961905 34.60442857 1.86753245 33.66980531 2.5 29.875 C5 27.0625 5 27.0625 7.5 24.875 C6.489375 25.37 5.47875 25.865 4.4375 26.375 C0.6202753 27.97577165 -2.33192391 28.48126561 -6.5 27.875 C-9.46672901 26.07496218 -11.92349929 24.02800143 -13.5 20.875 C-13.51976936 19.43748497 -13.49303159 17.99907806 -13.4375 16.5625 C-13.38393323 12.87234502 -13.77801153 10.21135265 -15.5 6.875 C-13.875 4.375 -13.875 4.375 -11.5 1.875 C-8.4375 1.6875 -8.4375 1.6875 -5.5 1.875 C-2.5 -0.125 -2.5 -0.125 0 0 Z " fill="#F3AA3B" transform="translate(166.5,89.125)"/>
<path d="M0 0 C2.95064148 -0.2208564 5.68368231 -0.28060989 8.625 -0.1875 C9.42679688 -0.17396484 10.22859375 -0.16042969 11.0546875 -0.14648438 C13.03674378 -0.11109051 15.01845551 -0.05728234 17 0 C17.66 1.32 18.32 2.64 19 4 C18.01 4.66 17.02 5.32 16 6 C16 5.01 16 4.02 16 3 C15.15695313 3.24556641 15.15695313 3.24556641 14.296875 3.49609375 C11.86940944 4.02864997 9.73110319 4.09898681 7.25 4.0625 C6.45078125 4.05347656 5.6515625 4.04445313 4.828125 4.03515625 C4.22484375 4.02355469 3.6215625 4.01195313 3 4 C2.67716247 25.08715059 2.67716247 25.08715059 5.49780273 45.76513672 C6.14076594 48.6264324 6.21962721 51.36585252 6.31640625 54.296875 C6.37924805 56.10478516 6.37924805 56.10478516 6.44335938 57.94921875 C6.48267578 59.20347656 6.52199219 60.45773438 6.5625 61.75 C6.60568359 63.01972656 6.64886719 64.28945312 6.69335938 65.59765625 C6.79939722 68.73166365 6.90146058 71.86574933 7 75 C6.01 75 5.02 75 4 75 C3.93958023 74.24546539 3.87916046 73.49093079 3.81690979 72.71353149 C3.24427242 65.5645197 2.67068353 58.41558517 2.09605503 51.26673317 C1.8007443 47.59241402 1.50578742 43.91806721 1.21166992 40.24365234 C0.92723597 36.69038438 0.64183244 33.13719546 0.35578728 29.58405685 C0.19507517 27.58470602 0.03533899 25.58527681 -0.12437439 23.58584595 C-0.22440262 22.34531464 -0.32443085 21.10478333 -0.42749023 19.82666016 C-0.52029266 18.6591925 -0.61309509 17.49172485 -0.70870972 16.28887939 C-1.04414494 12.50157151 -1.49825759 8.73555233 -2.01844788 4.96932983 C-2 3 -2 3 0 0 Z " fill="#56350C" transform="translate(15,66)"/>
<path d="M0 0 C0.66 0.99 1.32 1.98 2 3 C1.67 3.99 1.34 4.98 1 6 C0.77820215 7.89212737 0.59385985 9.78884472 0.4375 11.6875 C0.35371094 12.68136719 0.26992187 13.67523438 0.18359375 14.69921875 C0.09271484 15.83810547 0.09271484 15.83810547 0 17 C-0.66 16.34 -1.32 15.68 -2 15 C-2.66 15 -3.32 15 -4 15 C-4.66 15 -5.32 15 -6 15 C-6.33 16.32 -6.66 17.64 -7 19 C-7.66 19 -8.32 19 -9 19 C-9.2784375 20.8871875 -9.2784375 20.8871875 -9.5625 22.8125 C-9.66691406 23.52019531 -9.77132812 24.22789062 -9.87890625 24.95703125 C-10.13904799 27.2025342 -10.13904799 27.2025342 -9 30 C-12.50776784 31.60355101 -15.14354879 32.22036864 -19 32 C-18.67 30.68 -18.34 29.36 -18 28 C-17.34 28.33 -16.68 28.66 -16 29 C-16.495 28.01 -16.495 28.01 -17 27 C-18.66675781 27.06960937 -18.66675781 27.06960937 -20.3671875 27.140625 C-30.57269652 27.43666967 -38.27912658 26.81391561 -47 21 C-46.67 21.99 -46.34 22.98 -46 24 C-47.32 24 -48.64 24 -50 24 C-51.47075246 19.58774263 -52.36884358 16.51718381 -51 12 C-51.66 12 -52.32 12 -53 12 C-52.67 10.68 -52.34 9.36 -52 8 C-51.63648438 8.51949219 -51.27296875 9.03898437 -50.8984375 9.57421875 C-45.46645033 17.10935993 -40.22157668 21.96999421 -31 24 C-23.58078668 25.03755282 -16.94606559 22.92627365 -10.75 18.875 C-6.06307707 13.97503512 -3.09951409 8.71531188 -2 2 C-1.34 2 -0.68 2 0 2 C0 1.34 0 0.68 0 0 Z " fill="#F1AB3F" transform="translate(200,110)"/>
<path d="M0 0 C-0.33 1.32 -0.66 2.64 -1 4 C-8.24020889 4.71820711 -15.48106945 5.42954696 -22.72241211 6.13623047 C-25.18317761 6.37718076 -27.6437926 6.61967348 -30.10424805 6.86376953 C-33.65114026 7.21537325 -37.1985457 7.56133406 -40.74609375 7.90625 C-42.38257118 8.07030334 -42.38257118 8.07030334 -44.05210876 8.2376709 C-60.38220349 9.80889826 -60.38220349 9.80889826 -64 8 C-63.67 7.01 -63.34 6.02 -63 5 C-61.86570557 4.91697632 -61.86570557 4.91697632 -60.70849609 4.83227539 C-57.26378096 4.57852932 -53.8193949 4.32055509 -50.375 4.0625 C-48.59029297 3.93198242 -48.59029297 3.93198242 -46.76953125 3.79882812 C-45.61582031 3.71181641 -44.46210938 3.62480469 -43.2734375 3.53515625 C-42.21560059 3.456604 -41.15776367 3.37805176 -40.06787109 3.29711914 C-38.0149832 3.09829974 -35.96798566 2.82560051 -33.93432617 2.48193359 C-31.17823903 2.02927397 -28.56605172 1.83163936 -25.77734375 1.75390625 C-24.82666016 1.72103516 -23.87597656 1.68816406 -22.89648438 1.65429688 C-20.9200426 1.59298152 -18.9434715 1.53570502 -16.96679688 1.48242188 C-16.01740234 1.44826172 -15.06800781 1.41410156 -14.08984375 1.37890625 C-13.23253662 1.3538501 -12.37522949 1.32879395 -11.49194336 1.30297852 C-0.19158117 -0.07095599 -0.19158117 -0.07095599 0 0 Z " fill="#655029" transform="translate(285,266)"/>
<path d="M0 0 C0.7734375 0.495 0.7734375 0.495 1.5625 1 C1.5625 1.66 1.5625 2.32 1.5625 3 C0.54929687 2.96519531 0.54929687 2.96519531 -0.484375 2.9296875 C-1.37640625 2.91164062 -2.2684375 2.89359375 -3.1875 2.875 C-4.06921875 2.85179687 -4.9509375 2.82859375 -5.859375 2.8046875 C-8.60639547 3.01279511 -10.16637503 3.45522581 -12.4375 5 C-12.7675 5.99 -13.0975 6.98 -13.4375 8 C-14.0975 8 -14.7575 8 -15.4375 8 C-16.56791791 11.14902131 -16.81465034 13.19420648 -15.37890625 16.26171875 C-12.30409573 21.09356385 -9.43037127 24.22618263 -4.4375 27 C-3.4475 27.66 -2.4575 28.32 -1.4375 29 C-1.4375 29.66 -1.4375 30.32 -1.4375 31 C0.0475 31.495 0.0475 31.495 1.5625 32 C1.5625 32.66 1.5625 33.32 1.5625 34 C2.2225 34 2.8825 34 3.5625 34 C4.2225 35.65 4.8825 37.3 5.5625 39 C1.26011104 39 -0.56876943 36.39543781 -3.5 33.5625 C-7.16141706 29.86562064 -7.16141706 29.86562064 -11.4375 27 C-11.4375 26.34 -11.4375 25.68 -11.4375 25 C-12.015 24.773125 -12.5925 24.54625 -13.1875 24.3125 C-16.22488074 22.54069457 -17.62622454 21.04035523 -19.4375 18 C-20.17594011 13.60181827 -19.73172235 9.91728144 -18.375 5.6875 C-13.94138794 -0.46234899 -7.32047735 -3.00327276 0 0 Z " fill="#573813" transform="translate(101.4375,199)"/>
<path d="M0 0 C7.79258239 0.38190967 14.69763051 2.60187713 22.0625 5.0625 C23.21427734 5.43955078 24.36605469 5.81660156 25.55273438 6.20507812 C28.37115005 7.12895712 31.18668142 8.06073777 34 9 C34 9.33 34 9.66 34 10 C30.39142628 10.14434295 27.50219905 10.17096138 24.0625 9 C20.17804251 7.73160572 17.07211051 7.8595824 13 8 C13 8.66 13 9.32 13 10 C14.65 10 16.3 10 18 10 C18.14115234 10.86431641 18.14115234 10.86431641 18.28515625 11.74609375 C19.1616709 14.50974924 20.47349891 15.94333874 22.4375 18.0625 C24.52916147 20.33756394 26.27671806 22.41507709 28 25 C24.58363262 23.51260196 22.26265692 21.54989523 19.5625 19 C15.01149976 14.80846774 10.26265323 11.03411443 5.29125977 7.36328125 C2.62177309 5.3671603 0.87267319 3.80900978 -1 1 C-0.67 0.67 -0.34 0.34 0 0 Z " fill="#E8A84B" transform="translate(93,151)"/>
<path d="M0 0 C0.66 0.99 1.32 1.98 2 3 C1.34 3.66 0.68 4.32 0 5 C-0.99 5 -1.98 5 -3 5 C-3.433125 6.4540625 -3.433125 6.4540625 -3.875 7.9375 C-5 11 -5 11 -7 12 C-7.185625 13.4540625 -7.185625 13.4540625 -7.375 14.9375 C-7.58125 15.948125 -7.7875 16.95875 -8 18 C-9.8125 19.0625 -9.8125 19.0625 -12 20 C-13.37868281 21.62935241 -14.71274093 23.29749607 -16 25 C-17 26 -18 27 -19 28 C-19.804375 29.010625 -20.60875 30.02125 -21.4375 31.0625 C-24 34 -24 34 -26.0078125 34.94921875 C-28.42311894 36.2231745 -29.11455243 37.3879206 -30.4375 39.75 C-32.68183664 43.53429685 -34.96335424 46.80353078 -38 50 C-38.99 50 -39.98 50 -41 50 C-41.66 51.32 -42.32 52.64 -43 54 C-43.66 53.67 -44.32 53.34 -45 53 C-44.26136719 52.14019531 -43.52273437 51.28039062 -42.76171875 50.39453125 C-30.02814597 35.59099494 -30.02814597 35.59099494 -17.5625 20.5625 C-4.44345238 4.44345238 -4.44345238 4.44345238 0 0 Z " fill="#E4A74C" transform="translate(168,42)"/>
<path d="M0 0 C0.33 0.66 0.66 1.32 1 2 C1.66 2.165 2.32 2.33 3 2.5 C3.66 2.665 4.32 2.83 5 3 C5.33 3.66 5.66 4.32 6 5 C5.01 5.33 4.02 5.66 3 6 C3.01160156 7.21558594 3.02320313 8.43117188 3.03515625 9.68359375 C3.04453278 11.26822764 3.05363313 12.85286318 3.0625 14.4375 C3.07087891 15.23994141 3.07925781 16.04238281 3.08789062 16.86914062 C3.0965143 18.91295221 3.0522815 20.95683902 3 23 C2.67 23.33 2.34 23.66 2 24 C1.78936893 26.50416935 1.62427923 28.99140081 1.5 31.5 C1.13513514 38.86486486 1.13513514 38.86486486 0 40 C-0.03182979 42.75100321 0.06838482 45.48880906 0.16015625 48.23828125 C-0.00548165 51.09452498 -0.66113188 52.52862444 -2 55 C-2.05057965 47.48863592 -2.08568257 39.97731551 -2.10986328 32.46582031 C-2.11994038 29.90883747 -2.13360226 27.35186621 -2.15087891 24.79492188 C-2.17505217 21.12627308 -2.18646585 17.45777621 -2.1953125 13.7890625 C-2.20563507 12.64007477 -2.21595764 11.49108704 -2.22659302 10.30728149 C-2.22674408 9.2463327 -2.22689514 8.18538391 -2.22705078 7.09228516 C-2.231492 6.15518707 -2.23593323 5.21808899 -2.24050903 4.25259399 C-2 2 -2 2 0 0 Z " fill="#483118" transform="translate(41,73)"/>
<path d="M0 0 C3.07921269 1.07772444 4.04512924 1.96525849 5.5 4.875 C5.1875 7.625 5.1875 7.625 4.5 9.875 C4.17 9.875 3.84 9.875 3.5 9.875 C3.17 7.565 2.84 5.255 2.5 2.875 C0.52 2.875 -1.46 2.875 -3.5 2.875 C-3.5 3.535 -3.5 4.195 -3.5 4.875 C-5.15 4.545 -6.8 4.215 -8.5 3.875 C-9.3547067 7.95859867 -9.4093751 10.83333288 -8.5 14.875 C-8.54125 15.90625 -8.5825 16.9375 -8.625 18 C-8.72336608 20.79418413 -8.72336608 20.79418413 -7.5 22.625 C-4.36577605 24.58388997 -1.10522749 25.10667283 2.5 25.875 C0.5 27.875 0.5 27.875 -2.75 28.3125 C-7.6645115 27.73914033 -9.04902506 26.32597494 -12.5 22.875 C-13.68435107 20.50629785 -13.53902202 19.18883062 -13.4375 16.5625 C-13.38393323 12.87234502 -13.77801153 10.21135265 -15.5 6.875 C-13.875 4.375 -13.875 4.375 -11.5 1.875 C-8.4375 1.6875 -8.4375 1.6875 -5.5 1.875 C-2.5 -0.125 -2.5 -0.125 0 0 Z M-3.5 23.875 C-1.5 24.875 -1.5 24.875 -1.5 24.875 Z " fill="#F2B440" transform="translate(166.5,89.125)"/>
<path d="M0 0 C7.32821898 -0.07659857 14.65633321 -0.12882844 21.98486328 -0.16479492 C24.4735093 -0.17980232 26.96212923 -0.20021464 29.45068359 -0.22631836 C33.04531325 -0.26305706 36.63959064 -0.2798075 40.234375 -0.29296875 C41.33174988 -0.30845261 42.42912476 -0.32393646 43.55975342 -0.33988953 C52.37220623 -0.34177299 61.99469864 0.10746828 69 6 C62.58512634 6.25156367 62.58512634 6.25156367 59.71606445 5.01806641 C56.29875052 3.73714963 53.37625809 3.67595699 49.73046875 3.5859375 C49.04946609 3.56657135 48.36846344 3.5472052 47.66682434 3.5272522 C45.50717407 3.46781868 43.34746943 3.421218 41.1875 3.375 C39.71677456 3.33678672 38.24607071 3.29773306 36.77539062 3.2578125 C33.18379211 3.16214817 29.59203087 3.07798425 26 3 C26 2.34 26 1.68 26 1 C17.42 1 8.84 1 0 1 C0 0.67 0 0.34 0 0 Z " fill="#423213" transform="translate(180,200)"/>
<path d="M0 0 C3.52238047 1.56367357 6.27123994 3.69495889 9.25 6.125 C10.14203125 6.84945312 11.0340625 7.57390625 11.953125 8.3203125 C12.62859375 8.87460938 13.3040625 9.42890625 14 10 C13.52879861 14.6951853 11.73535286 16.77980492 8.5 20.125 C4.13175018 24.75534481 0.05287163 29.51802571 -3.94921875 34.47265625 C-6.57126504 37.70401615 -9.27476207 40.8554947 -12 44 C-12.33 42.68 -12.66 41.36 -13 40 C-12.34 40 -11.68 40 -11 40 C-10.7525 39.236875 -10.505 38.47375 -10.25 37.6875 C-8.86010607 34.69922805 -7.61947624 33.88274854 -5 32 C-3.7483533 29.91665365 -3.7483533 29.91665365 -3 28 C-2.34 28 -1.68 28 -1 28 C-1 27.34 -1 26.68 -1 26 C-0.34 26 0.32 26 1 26 C1.268125 25.360625 1.53625 24.72125 1.8125 24.0625 C3 22 3 22 6 21 C6.144375 20.21625 6.28875 19.4325 6.4375 18.625 C7 16 7 16 8 14 C8.66 14 9.32 14 10 14 C10 13.01 10 12.02 10 11 C9.4225 10.979375 8.845 10.95875 8.25 10.9375 C5.12685431 9.6361893 4.46805098 7.65320352 3.02734375 4.69140625 C1.96247274 2.66934811 1.96247274 2.66934811 -1 1 C-0.67 0.67 -0.34 0.34 0 0 Z " fill="#F0B156" transform="translate(246,61)"/>
<path d="M0 0 C6.20368887 3.89503958 12.34607504 7.86978871 18.4375 11.9375 C19.07171875 12.36015137 19.7059375 12.78280273 20.359375 13.21826172 C23.39113741 15.24227249 26.4127807 17.27868379 29.4140625 19.34765625 C30.45304687 20.05792969 31.49203125 20.76820313 32.5625 21.5 C33.92568359 22.44359375 33.92568359 22.44359375 35.31640625 23.40625 C37.99613663 25.13626037 37.99613663 25.13626037 41.27734375 26.03125 C42.62505859 26.51078125 42.62505859 26.51078125 44 27 C44.495 28.485 44.495 28.485 45 30 C37.00807367 29.20080737 31.27899787 25.35690092 25.09765625 20.52734375 C21.60723541 17.98590138 17.81986752 15.99835662 14 14 C14 13.34 14 12.68 14 12 C13.43667969 11.90332031 12.87335938 11.80664062 12.29296875 11.70703125 C9.47126459 10.83696574 7.646589 9.48918523 5.3125 7.6875 C4.52488281 7.09324219 3.73726563 6.49898437 2.92578125 5.88671875 C0.87705263 3.87954649 0.36456787 2.79913972 0 0 Z " fill="#644B24" transform="translate(104,201)"/>
<path d="M0 0 C1.77310547 0.02803711 1.77310547 0.02803711 3.58203125 0.05664062 C11.19456224 0.29584364 18.1969158 1.16031795 25 4.8125 C27.25 7.875 27.25 7.875 28 10.8125 C27.67 11.8025 27.34 12.7925 27 13.8125 C25.89322917 12.34765625 24.78645833 10.8828125 23.6796875 9.41796875 C18.63750985 4.598585 13.2404307 4.3505719 6.6640625 4.30078125 C5.78471039 4.28283005 4.90535828 4.26487885 3.99935913 4.24638367 C1.20795395 4.19247188 -1.58328211 4.15844671 -4.375 4.125 C-6.27476302 4.09181 -8.17450377 4.05731879 -10.07421875 4.02148438 C-14.71602344 3.93675651 -19.35777965 3.86985439 -24 3.8125 C-24 3.4825 -24 3.1525 -24 2.8125 C-21.36 2.8125 -18.72 2.8125 -16 2.8125 C-16 2.1525 -16 1.4925 -16 0.8125 C-10.82884012 -0.91121996 -5.40141311 -0.16933229 0 0 Z " fill="#311C08" transform="translate(191,261.1875)"/>
<path d="M0 0 C2.26196786 2.1804555 4.21448169 4.49583126 6.1875 6.9375 C12.3021553 13.88018154 18.53688894 15.40127048 27.55859375 16.5078125 C28.36425781 16.67023438 29.16992188 16.83265625 30 17 C30.33 17.66 30.66 18.32 31 19 C21.38153041 19.59495688 14.08689834 18.39126556 6 13 C6.33 13.99 6.66 14.98 7 16 C5.68 16 4.36 16 3 16 C1.52924754 11.58774263 0.63115642 8.51718381 2 4 C1.34 4 0.68 4 0 4 C0 2.68 0 1.36 0 0 Z " fill="#F2AB41" transform="translate(147,118)"/>
<path d="M0 0 C0.99 0 1.98 0 3 0 C3 0.66 3 1.32 3 2 C5.64 2.66 8.28 3.32 11 4 C11.33 3.01 11.66 2.02 12 1 C14.475 1.99 14.475 1.99 17 3 C16.67 3.66 16.34 4.32 16 5 C15.030625 5.28875 14.06125 5.5775 13.0625 5.875 C9.89943043 6.6889291 9.89943043 6.6889291 8.625 9.125 C8.41875 9.74375 8.2125 10.3625 8 11 C4.53734736 10.6852134 2.41414041 10.29733158 -0.4375 8.25 C-2 6 -2 6 -1.8125 3.3125 C-1 1 -1 1 0 0 Z " fill="#F9A637" transform="translate(159,104)"/>
<path d="M0 0 C3.34013828 2.15253356 5.91757682 4.10327656 7 8 C6.85317936 10.72666896 6.45050267 13.29698398 6 16 C6.66 16 7.32 16 8 16 C8.79953138 19.28696233 9.09658936 20.71023192 8 24 C4.78548731 25.60725635 1.56387464 25.05748185 -2 25 C-2 24.34 -2 23.68 -2 23 C-0.02 23 1.96 23 4 23 C4.495 18.545 4.495 18.545 5 14 C4.34 13.67 3.68 13.34 3 13 C3.33 12.34 3.66 11.68 4 11 C3.34 10.67 2.68 10.34 2 10 C1.66666667 7.66666667 1.33333333 5.33333333 1 3 C-1.40545638 1.79727181 -2.94996953 1.89928528 -5.625 1.9375 C-6.44226563 1.94652344 -7.25953125 1.95554687 -8.1015625 1.96484375 C-8.72804687 1.97644531 -9.35453125 1.98804687 -10 2 C-10 1.34 -10 0.68 -10 0 C-6.18323682 -1.27225439 -3.91280349 -0.87700768 0 0 Z " fill="#EEB558" transform="translate(182,100)"/>
<path d="M0 0 C3.62528568 -0.20140476 5.86501708 0.14223235 9 2 C9 2.66 9 3.32 9 4 C9.763125 4.0825 10.52625 4.165 11.3125 4.25 C14.57620042 5.16080012 15.13095126 6.28138365 17 9 C17.99 9.33 18.98 9.66 20 10 C22.62823705 15.04015829 23.4507633 20.36545875 23 26 C22.67 26.99 22.34 27.98 22 29 C21.34 29 20.68 29 20 29 C20 30.32 20 31.64 20 33 C18.21722256 35.01623639 16.16873843 36.37344618 14 38 C13.34 37.67 12.68 37.34 12 37 C12.40992188 36.56429687 12.81984375 36.12859375 13.2421875 35.6796875 C17.83152368 30.6072633 20.29738393 26.59265612 20 19.5625 C19.19338933 14.32829816 17.13721017 11.26346723 13 8 C8.76527544 5.44005368 4.4486194 3.1715071 0 1 C0 0.67 0 0.34 0 0 Z " fill="#E3AB5A" transform="translate(126,121)"/>
<path d="M0 0 C2 1 2 1 3.0859375 4.1875 C4.49627199 10.36978817 4.46500892 16.68701869 4.625 23 C4.66367187 24.25167969 4.70234375 25.50335938 4.7421875 26.79296875 C4.83589341 29.8618372 4.9216107 32.93070853 5 36 C4.01 36 3.02 36 2 36 C1.66013419 31.8755115 1.32931542 27.75034322 1 23.625 C0.90460937 22.46871094 0.80921875 21.31242187 0.7109375 20.12109375 C0.17901892 13.39612307 -0.13881345 6.74594813 0 0 Z " fill="#7F5A30" transform="translate(17,105)"/>
<path d="M0 0 C2.0625 0.4375 2.0625 0.4375 4 1 C3.67 2.32 3.34 3.64 3 5 C-6.97699803 6.3302664 -16.95614824 6.09502917 -27 6 C-26.67 5.34 -26.34 4.68 -26 4 C-22.97265625 3.40234375 -22.97265625 3.40234375 -19.0625 2.9375 C-18.05002197 2.81290405 -18.05002197 2.81290405 -17.01708984 2.68579102 C-12.27289021 2.11181397 -7.52093413 1.63123065 -2.7578125 1.24609375 C-0.97575472 1.1765009 -0.97575472 1.1765009 0 0 Z " fill="#634B2C" transform="translate(281,265)"/>
<path d="M0 0 C1.0828125 0.495 1.0828125 0.495 2.1875 1 C5.01697427 2.00603529 7.02895466 2.16977402 10 2 C11.41601562 4.63671875 11.41601562 4.63671875 12.83203125 7.2734375 C14.04763493 9.30502365 14.04763493 9.30502365 17 11 C17 11.66 17 12.32 17 13 C17.66 13 18.32 13 19 13 C19.99 14.485 19.99 14.485 21 16 C21.99 16.33 22.98 16.66 24 17 C25.70884005 18.62339805 27.37446717 20.29319053 29 22 C29.598125 22.598125 30.19625 23.19625 30.8125 23.8125 C31.204375 24.204375 31.59625 24.59625 32 25 C28.17345018 24.47401377 26.16602363 23.65577579 23.375 21 C20.16739899 18.04658624 16.89062856 15.24255828 13.5 12.5 C3.40100011 4.27431529 3.40100011 4.27431529 0 1 C0 0.67 0 0.34 0 0 Z " fill="#EBB357" transform="translate(121,176)"/>
<path d="M0 0 C0.99 0.495 0.99 0.495 2 1 C2.50244141 3.86401367 2.50244141 3.86401367 2.8515625 7.66796875 C2.91532074 8.34040115 2.97907898 9.01283356 3.04476929 9.7056427 C3.17844106 11.13351721 3.30759162 12.56182097 3.43261719 13.99047852 C3.62276223 16.1619446 3.82568405 18.33189815 4.03125 20.50195312 C4.57143658 26.34559422 5.08465008 32.12472043 5 38 C2.40980838 35.84496057 1.13005224 34.58690241 0.390625 31.25 C0.34421875 30.1775 0.2978125 29.105 0.25 28 C0.19457031 26.78054687 0.13914062 25.56109375 0.08203125 24.3046875 C-0.10918104 16.20423946 -0.07335528 8.10168309 0 0 Z " fill="#5C441B" transform="translate(15,71)"/>
<path d="M0 0 C0.7734375 0.495 0.7734375 0.495 1.5625 1 C1.5625 1.66 1.5625 2.32 1.5625 3 C0.54929687 2.96519531 0.54929687 2.96519531 -0.484375 2.9296875 C-1.37640625 2.91164062 -2.2684375 2.89359375 -3.1875 2.875 C-4.06921875 2.85179687 -4.9509375 2.82859375 -5.859375 2.8046875 C-8.60639547 3.01279511 -10.16637503 3.45522581 -12.4375 5 C-12.7675 5.99 -13.0975 6.98 -13.4375 8 C-14.0975 8 -14.7575 8 -15.4375 8 C-16.0975 10.97 -16.7575 13.94 -17.4375 17 C-18.0975 17 -18.7575 17 -19.4375 17 C-19.72388547 11.46321424 -19.74790331 7.69863695 -16.4375 3 C-11.52161489 -1.09021965 -6.12637768 -2.51338572 0 0 Z " fill="#48381D" transform="translate(101.4375,199)"/>
<path d="M0 0 C3.46628726 0.96285757 4.93417008 1.92349495 7.3125 4.6875 C9.28013798 8.54990047 9.54480203 10.71941266 9 15 C6.8 19.6 6.8 19.6 4 21 C3.4254048 17.26513121 3 13.78706732 3 10 C3.66 10 4.32 10 5 10 C4.79623822 8.09415804 4.79623822 8.09415804 4 6 C2.67151309 4.99357052 1.33849671 3.99307821 0 3 C0 2.01 0 1.02 0 0 Z " fill="#452906" transform="translate(133,131)"/>
<path d="M0 0 C18.315 0.495 18.315 0.495 37 1 C37 1.66 37 2.32 37 3 C36.10796875 2.98839844 35.2159375 2.97679687 34.296875 2.96484375 C33.12640625 2.95582031 31.9559375 2.94679687 30.75 2.9375 C29.58984375 2.92589844 28.4296875 2.91429687 27.234375 2.90234375 C24.18723422 2.87740592 24.18723422 2.87740592 22.0480957 3.49560547 C18.54940158 4.35724596 15.02395314 4.18447346 11.4375 4.1875 C10.28604492 4.20586914 10.28604492 4.20586914 9.11132812 4.22460938 C5.21582126 4.23479815 3.3133801 4.20892006 0 2 C0 1.34 0 0.68 0 0 Z " fill="#412D0F" transform="translate(148,228)"/>
<path d="M0 0 C1.68180766 1.31418361 3.34587318 2.65114122 5 4 C7.19715276 4.95253808 9.42965804 5.82690307 11.6875 6.625 C17.79789104 8.79789104 17.79789104 8.79789104 20 11 C22.74485593 11.14507695 25.38480543 11.18652423 28.125 11.125 C29.25615234 11.11146484 29.25615234 11.11146484 30.41015625 11.09765625 C32.27357254 11.0740687 34.13682593 11.03819719 36 11 C35.67 11.66 35.34 12.32 35 13 C15.53959402 13.75574392 15.53959402 13.75574392 8 9 C7.1028125 8.4946875 6.205625 7.989375 5.28125 7.46875 C-1.79232283 3.41535433 -1.79232283 3.41535433 -3 1 C-2.01 0.67 -1.02 0.34 0 0 Z " fill="#483112" transform="translate(125,251)"/>
<path d="M0 0 C1.63001953 0.01353516 1.63001953 0.01353516 3.29296875 0.02734375 C4.12441406 0.03894531 4.95585937 0.05054688 5.8125 0.0625 C3.08234081 1.58122491 1.91092318 2.06446846 -1.3125 2 C-2.26125 2.020625 -3.21 2.04125 -4.1875 2.0625 C-5.1775 3.5475 -5.1775 3.5475 -6.1875 5.0625 C-7.1775 5.0625 -8.1675 5.0625 -9.1875 5.0625 C-8.8575 6.0525 -8.5275 7.0425 -8.1875 8.0625 C-9.1775 8.5575 -9.1775 8.5575 -10.1875 9.0625 C-11.09093684 10.94513881 -11.09093684 10.94513881 -11.8125 13.125 C-12.07289063 13.85847656 -12.33328125 14.59195313 -12.6015625 15.34765625 C-12.79492188 15.91355469 -12.98828125 16.47945312 -13.1875 17.0625 C-13.8475 16.7325 -14.5075 16.4025 -15.1875 16.0625 C-14.99618057 7.10527232 -14.99618057 7.10527232 -11.8125 3 C-7.79314829 0.03333564 -4.8681512 -0.05234571 0 0 Z " fill="#452F12" transform="translate(173.1875,199.9375)"/>
<path d="M0 0 C0.33 0 0.66 0 1 0 C1 13.2 1 26.4 1 40 C0.67 40 0.34 40 0 40 C-0.06058594 38.95199219 -0.12117188 37.90398437 -0.18359375 36.82421875 C-0.26801738 35.44529952 -0.35266447 34.06639395 -0.4375 32.6875 C-0.47681641 31.99720703 -0.51613281 31.30691406 -0.55664062 30.59570312 C-0.74927415 27.52838465 -1.02322717 24.93031848 -2 22 C-2.2240064 19.0246679 -2.18514195 16.0454273 -2.1875 13.0625 C-2.19974609 12.25103516 -2.21199219 11.43957031 -2.22460938 10.60351562 C-2.22654297 9.81783203 -2.22847656 9.03214844 -2.23046875 8.22265625 C-2.23457764 7.50859619 -2.23868652 6.79453613 -2.24291992 6.05883789 C-1.96326283 3.68863868 -1.17114859 2.06292733 0 0 Z " fill="#2A1C09" transform="translate(33,72)"/>
<path d="M0 0 C1.63001953 0.15275391 1.63001953 0.15275391 3.29296875 0.30859375 C4.12441406 0.39238281 4.95585937 0.47617187 5.8125 0.5625 C5.8125 0.8925 5.8125 1.2225 5.8125 1.5625 C8.2875 2.0575 8.2875 2.0575 10.8125 2.5625 C10.8125 2.8925 10.8125 3.2225 10.8125 3.5625 C1.2425 3.5625 -8.3275 3.5625 -18.1875 3.5625 C-17.8575 2.5725 -17.5275 1.5825 -17.1875 0.5625 C-14.20898438 0.61132812 -14.20898438 0.61132812 -11.23046875 0.66015625 C-7.20290071 0.46763388 -4.1898889 -0.40547312 0 0 Z " fill="#543510" transform="translate(273.1875,290.4375)"/>
<path d="M0 0 C0 6.6 0 13.2 0 20 C-1.32 20.33 -2.64 20.66 -4 21 C-4.02714735 18.77090129 -4.04646254 16.54170633 -4.0625 14.3125 C-4.07410156 13.07113281 -4.08570313 11.82976562 -4.09765625 10.55078125 C-4.01478673 7.53764546 -3.70839449 4.91724661 -3 2 C-4.32 1.67 -5.64 1.34 -7 1 C-4.50935112 0.31292445 -2.62113708 0 0 0 Z " fill="#453316" transform="translate(292,274)"/>
<path d="M0 0 C-1.71667453 4.19861361 -4.66560088 7.26585435 -7.625 10.625 C-12.56823668 16.30658977 -17.35479841 22.07053679 -22 28 C-22.734375 26.2890625 -22.734375 26.2890625 -23 24 C-21.453125 21.7109375 -21.453125 21.7109375 -19.25 19.375 C-18.17492187 18.21097656 -18.17492187 18.21097656 -17.078125 17.0234375 C-15 15 -15 15 -12 13 C-11.28272222 11.35448038 -10.61674772 9.68577711 -10 8 C-8 5 -8 5 -5 4 C-4.67 3.01 -4.34 2.02 -4 1 C-2 0 -2 0 0 0 Z " fill="#EFB04A" transform="translate(193,152)"/>
<path d="M0 0 C2.30441554 3.45662331 2.25860135 4.94857881 2 9 C1.67 9.66 1.34 10.32 1 11 C0.21625 11.103125 -0.5675 11.20625 -1.375 11.3125 C-4.21139397 11.73623798 -4.21139397 11.73623798 -5.5 14.375 C-5.995 15.24125 -6.49 16.1075 -7 17 C-9.6875 18.8125 -9.6875 18.8125 -12 20 C-11.67 18.68 -11.34 17.36 -11 16 C-10.34 16 -9.68 16 -9 16 C-8.62875 14.576875 -8.62875 14.576875 -8.25 13.125 C-7 10 -7 10 -4.875 8.625 C-4.25625 8.41875 -3.6375 8.2125 -3 8 C-3.061875 7.236875 -3.12375 6.47375 -3.1875 5.6875 C-3 3 -3 3 -1.5 1.1875 C-1.005 0.795625 -0.51 0.40375 0 0 Z " fill="#EAA33C" transform="translate(172,37)"/>
<path d="M0 0 C0.86625 0.3403125 0.86625 0.3403125 1.75 0.6875 C0.265 3.1625 0.265 3.1625 -1.25 5.6875 C0.70216435 7.63966435 2.28199953 8.53576645 4.75 9.6875 C4.09 10.3475 3.43 11.0075 2.75 11.6875 C-0.75 11.5 -0.75 11.5 -4.25 10.6875 C-6.39762184 7.46606724 -6.811068 6.4279533 -6.25 2.6875 C-4.11319077 0.39806154 -3.15626895 -0.43837069 0 0 Z " fill="#F1AB4C" transform="translate(175.25,116.3125)"/>
<path d="M0 0 C0.66 0 1.32 0 2 0 C2 7.59 2 15.18 2 23 C1.01 23.33 0.02 23.66 -1 24 C-1.02887236 20.18751574 -1.04675492 16.3750593 -1.0625 12.5625 C-1.07087891 11.47388672 -1.07925781 10.38527344 -1.08789062 9.26367188 C-1.09111328 8.22919922 -1.09433594 7.19472656 -1.09765625 6.12890625 C-1.10289307 5.17056885 -1.10812988 4.21223145 -1.11352539 3.22485352 C-1 1 -1 1 0 0 Z " fill="#47390E" transform="translate(32,119)"/>
<path d="M0 0 C7.57244701 -0.59134076 14.27341411 0.26554569 21 4 C23.25 7.0625 23.25 7.0625 24 10 C23.67 10.99 23.34 11.98 23 13 C22.29875 12.071875 21.5975 11.14375 20.875 10.1875 C16.6667553 5.23112291 12.49690353 3.91701392 6.125 3.3125 C4.41743713 3.19638572 2.70923212 3.08819881 1 3 C0.67 2.01 0.34 1.02 0 0 Z " fill="#442C0C" transform="translate(195,262)"/>
<path d="M0 0 C7.14695431 4.47024329 14.13815707 9.10293639 21 14 C19.02 14.99 19.02 14.99 17 16 C16.01 15.34 15.02 14.68 14 14 C14 13.34 14 12.68 14 12 C13.43667969 11.90332031 12.87335938 11.80664062 12.29296875 11.70703125 C9.47126459 10.83696574 7.646589 9.48918523 5.3125 7.6875 C4.52488281 7.09324219 3.73726563 6.49898437 2.92578125 5.88671875 C0.87705263 3.87954649 0.36456787 2.79913972 0 0 Z " fill="#583D19" transform="translate(104,201)"/>
<path d="M0 0 C0.66 0.99 1.32 1.98 2 3 C1.67 3.99 1.34 4.98 1 6 C0.77820215 7.89212737 0.59385985 9.78884472 0.4375 11.6875 C0.35371094 12.68136719 0.26992187 13.67523438 0.18359375 14.69921875 C0.12300781 15.45847656 0.06242188 16.21773437 0 17 C-0.66 16.34 -1.32 15.68 -2 15 C-2.66 15 -3.32 15 -4 15 C-4.66 15 -5.32 15 -6 15 C-6.061875 15.598125 -6.12375 16.19625 -6.1875 16.8125 C-7.33938899 19.91373958 -9.06759592 20.64108103 -12 22 C-12.66 21.67 -13.32 21.34 -14 21 C-13.113125 20.360625 -12.22625 19.72125 -11.3125 19.0625 C-6.03472761 14.67269405 -3.0979107 8.70551911 -2 2 C-1.34 2 -0.68 2 0 2 C0 1.34 0 0.68 0 0 Z " fill="#EAAC47" transform="translate(200,110)"/>
<path d="M0 0 C-1.98 0.99 -1.98 0.99 -4 2 C-1.03 2.33 1.94 2.66 5 3 C5 3.33 5 3.66 5 4 C-1.71162938 4.88021369 -8.23405981 5.11381955 -15 5 C-15 4.67 -15 4.34 -15 4 C-21.93 3.505 -21.93 3.505 -29 3 C-29 2.67 -29 2.34 -29 2 C-27.77023438 1.93941406 -26.54046875 1.87882812 -25.2734375 1.81640625 C-23.64061573 1.73194995 -22.00780373 1.64730453 -20.375 1.5625 C-19.56675781 1.52318359 -18.75851563 1.48386719 -17.92578125 1.44335938 C-11.91484811 1.12570844 -6.00712247 -0.17668007 0 0 Z " fill="#5E4620" transform="translate(259,268)"/>
<path d="M0 0 C2.29013653 3.4352048 2.17842973 4.985331 2 9 C2.66 9 3.32 9 4 9 C4.37125 9.45375 4.7425 9.9075 5.125 10.375 C8.04941863 12.90949614 11.24401816 13.19954485 15 14 C13 16 13 16 9.75 16.4375 C4.8354885 15.86414033 3.45097494 14.45097494 0 11 C-1.49297212 8.01405576 -1.11755228 5.29146376 -1 2 C-0.67 1.34 -0.34 0.68 0 0 Z M9 12 C11 13 11 13 11 13 Z " fill="#F0B55B" transform="translate(154,101)"/>
<path d="M0 0 C0 0.99 0 1.98 0 3 C0.66 3 1.32 3 2 3 C2 3.99 2 4.98 2 6 C0.7315625 5.9690625 0.7315625 5.9690625 -0.5625 5.9375 C-4.11892777 6.00216232 -7.49093503 6.4385496 -11 7 C-10.375 4.625 -10.375 4.625 -9 2 C-5.79867869 0.56962239 -3.50492555 0 0 0 Z " fill="#F7AF49" transform="translate(178,108)"/>
<path d="M0 0 C1.53445094 3.06890187 0.54984289 5.70094266 0 9 C0.99 8.67 1.98 8.34 3 8 C3.66 9.98 4.32 11.96 5 14 C1.08788267 12.84414715 -1.8745041 11.64465038 -5 9 C-4.5206753 4.68607774 -3.2542015 2.83430453 0 0 Z " fill="#E0A74B" transform="translate(116,104)"/>
<path d="M0 0 C0 6.54214739 -6.61356822 13.3764638 -11 18 C-11.99 18 -12.98 18 -14 18 C-14.66 19.32 -15.32 20.64 -16 22 C-16.66 21.67 -17.32 21.34 -18 21 C-12 14 -6 7 0 0 Z " fill="#DAA455" transform="translate(141,74)"/>
<path d="M0 0 C12.66970387 0.77904328 12.66970387 0.77904328 18 3 C17.6875 4.875 17.6875 4.875 17 7 C16.01 7.66 15.02 8.32 14 9 C13.67 8.34 13.34 7.68 13 7 C13.33 6.34 13.66 5.68 14 5 C12.9171875 5.0928125 12.9171875 5.0928125 11.8125 5.1875 C8.42007566 4.96133838 6.80338799 3.86892533 4 2 C2.67298725 1.32083921 1.34062104 0.65188761 0 0 Z " fill="#553F18" transform="translate(121,64)"/>
<path d="M0 0 C0.99 0.66 1.98 1.32 3 2 C5.15274948 1.69159401 5.15274948 1.69159401 7 1 C5.55575365 4.23861303 3.74227753 6.61969163 1.375 9.25 C0.74335938 9.95640625 0.11171875 10.6628125 -0.5390625 11.390625 C-1.02117187 11.92171875 -1.50328125 12.4528125 -2 13 C-2.87840996 9.90279155 -2.99435406 8.09354597 -2 5 C-1.34 5 -0.68 5 0 5 C0 3.35 0 1.7 0 0 Z " fill="#EEB149" transform="translate(208,125)"/>
<path d="M0 0 C2.97 0.495 2.97 0.495 6 1 C5.63118644 7.14689273 4.09949571 9.69027374 0 14 C-1.03864166 10.88407501 -1.09036928 9.9737344 0 7 C0.66 6.67 1.32 6.34 2 6 C1.01 5.34 0.02 4.68 -1 4 C-0.67 2.68 -0.34 1.36 0 0 Z " fill="#422704" transform="translate(129,68)"/>
<path d="M0 0 C1.27310312 0.93441535 2.543388 1.87267111 3.8125 2.8125 C4.52019531 3.33457031 5.22789062 3.85664062 5.95703125 4.39453125 C7.78531393 5.83128877 9.39896688 7.31815763 11 9 C10.67 9.99 10.34 10.98 10 12 C8.68 12 7.36 12 6 12 C6 11.01 6 10.02 6 9 C5.01 8.67 4.02 8.34 3 8 C3 7.01 3 6.02 3 5 C2.34 5 1.68 5 1 5 C0.67 3.35 0.34 1.7 0 0 Z " fill="#EAA04F" transform="translate(213,33)"/>
<path d="M0 0 C-0.99 0.33 -1.98 0.66 -3 1 C-3.33 1.99 -3.66 2.98 -4 4 C-6.64 4 -9.28 4 -12 4 C-12.33 4.66 -12.66 5.32 -13 6 C-13.99 5.67 -14.98 5.34 -16 5 C-16 3.68 -16 2.36 -16 1 C-13.70952777 0.63818911 -11.41757055 0.28576776 -9.125 -0.0625 C-7.84882813 -0.25972656 -6.57265625 -0.45695313 -5.2578125 -0.66015625 C-2 -1 -2 -1 0 0 Z " fill="#EDA63E" transform="translate(138,160)"/>
<path d="M0 0 C3.26954202 0.56371414 4.82575883 1.49962266 7 4 C7.66 3.67 8.32 3.34 9 3 C10 6 10 6 10 8 C10.31478446 9.33783393 10.64587656 10.67203709 11 12 C6.72503663 9.7367841 2.9357385 6.87396421 0 3 C0 2.01 0 1.02 0 0 Z " fill="#3D260A" transform="translate(67,127)"/>
<path d="M0 0 C1.32 1.32 2.64 2.64 4 4 C2.02 6.64 0.04 9.28 -2 12 C-2.66 11.67 -3.32 11.34 -4 11 C-3.34 9.35 -2.68 7.7 -2 6 C-2.66 6 -3.32 6 -4 6 C-4 5.01 -4 4.02 -4 3 C-3.34 3 -2.68 3 -2 3 C-2 2.34 -2 1.68 -2 1 C-1.34 0.67 -0.68 0.34 0 0 Z " fill="#492A07" transform="translate(116,88)"/>
<path d="M0 0 C4.62 0.66 9.24 1.32 14 2 C14 2.66 14 3.32 14 4 C15.32 4 16.64 4 18 4 C17.67 4.99 17.34 5.98 17 7 C10.98579453 5.90226153 5.49975789 4.74987894 0 2 C0 1.34 0 0.68 0 0 Z " fill="#49330E" transform="translate(107,61)"/>
<path d="M0 0 C2.08745045 3.13117567 2.27653996 4.06946224 2.4140625 7.66796875 C2.45273437 8.56064453 2.49140625 9.45332031 2.53125 10.37304688 C2.57765625 11.76620117 2.57765625 11.76620117 2.625 13.1875 C2.66367187 14.12787109 2.70234375 15.06824219 2.7421875 16.03710938 C2.83643187 18.3578771 2.92204025 20.67863748 3 23 C2.01 23 1.02 23 0 23 C0 15.41 0 7.82 0 0 Z " fill="#4E3511" transform="translate(31,94)"/>
<path d="M0 0 C0.66 0.99 1.32 1.98 2 3 C1.34 3.66 0.68 4.32 0 5 C-0.99 5 -1.98 5 -3 5 C-3.165 5.845625 -3.33 6.69125 -3.5 7.5625 C-5.72578608 12.66325977 -10.0017228 16.5008614 -15 19 C-13.69404215 16.17537878 -12.25372808 13.92855689 -10.21484375 11.58203125 C-9.41916992 10.66067383 -9.41916992 10.66067383 -8.60742188 9.72070312 C-7.78081055 8.77614258 -7.78081055 8.77614258 -6.9375 7.8125 C-6.38255859 7.17119141 -5.82761719 6.52988281 -5.25585938 5.86914062 C-1.25979663 1.25979663 -1.25979663 1.25979663 0 0 Z " fill="#E1A859" transform="translate(168,42)"/>
<path d="M0 0 C8.56988454 0.31181293 15.68195043 0.65697038 23.28125 5.01953125 C23.28125 5.67953125 23.28125 6.33953125 23.28125 7.01953125 C20.43785695 6.09377537 17.64879302 5.18416622 14.91796875 3.9609375 C12.02661671 2.92861773 9.84042274 2.78476875 6.78125 2.83203125 C5.8634375 2.83847656 4.945625 2.84492187 4 2.8515625 C1.34259313 3.01574137 -1.12501246 3.43218126 -3.71875 4.01953125 C-4.04875 3.02953125 -4.37875 2.03953125 -4.71875 1.01953125 C-3.71875 0.01953125 -3.71875 0.01953125 0 0 Z " fill="#EDAD55" transform="translate(162.71875,79.98046875)"/>
<path d="M0 0 C3.11538827 0.30996275 4.57301598 0.50235668 6.65234375 2.92578125 C7.28849609 4.10720703 7.28849609 4.10720703 7.9375 5.3125 C8.37964844 6.09238281 8.82179688 6.87226563 9.27734375 7.67578125 C10 10 10 10 9.12890625 12.29296875 C8.75636719 12.85628906 8.38382812 13.41960937 8 14 C4 7.375 4 7.375 4 4 C3.34 4 2.68 4 2 4 C1.34 2.68 0.68 1.36 0 0 Z " fill="#4E3D17" transform="translate(259,218)"/>
<path d="M0 0 C0.99 0.33 1.98 0.66 3 1 C1.63629701 3.99220268 0.05091917 6.29026529 -2.125 8.75 C-2.93324219 9.67039062 -2.93324219 9.67039062 -3.7578125 10.609375 C-4.16773438 11.06828125 -4.57765625 11.5271875 -5 12 C-5.66 11.01 -6.32 10.02 -7 9 C-6.02180976 7.68677212 -5.0424189 6.37443848 -4.0625 5.0625 C-3.51722656 4.33160156 -2.97195312 3.60070312 -2.41015625 2.84765625 C-1 1 -1 1 0 0 Z " fill="#F0A84D" transform="translate(221,114)"/>
<path d="M0 0 C1.875 1.75 1.875 1.75 3 4 C2.6875 6.75 2.6875 6.75 2 9 C1.67 9 1.34 9 1 9 C0.67 6.69 0.34 4.38 0 2 C-1.98 2 -3.96 2 -6 2 C-6 2.66 -6 3.32 -6 4 C-8.31 3.67 -10.62 3.34 -13 3 C-12.67 2.34 -12.34 1.68 -12 1 C-10.34385343 0.61781233 -8.67542976 0.28604898 -7 0 C-4.24438552 -1.37780724 -2.90228766 -0.92023755 0 0 Z " fill="#EABE5C" transform="translate(169,90)"/>
<path d="M0 0 C2.475 0.495 2.475 0.495 5 1 C4.88648483 2.81325551 4.75887039 4.62563357 4.625 6.4375 C4.55539063 7.44683594 4.48578125 8.45617187 4.4140625 9.49609375 C4.27742187 10.32238281 4.14078125 11.14867187 4 12 C3.01 12.495 3.01 12.495 2 13 C1.34 12.67 0.68 12.34 0 12 C0 8.04 0 4.08 0 0 Z " fill="#3C1F0B" transform="translate(214,282)"/>
<path d="M0 0 C0.58265625 0.33773437 1.1653125 0.67546875 1.765625 1.0234375 C7.70261733 4.25331069 12.91671038 5.76486706 19.62890625 6.54296875 C20.41136719 6.69378906 21.19382813 6.84460938 22 7 C22.33 7.66 22.66 8.32 23 9 C19.04 9 15.08 9 11 9 C11 8.34 11 7.68 11 7 C10.37351563 6.82984375 9.74703125 6.6596875 9.1015625 6.484375 C8.28429687 6.24203125 7.46703125 5.9996875 6.625 5.75 C5.81289062 5.51796875 5.00078125 5.2859375 4.1640625 5.046875 C1.54214546 3.7785108 1.00617682 2.67576692 0 0 Z " fill="#EBB15B" transform="translate(155,128)"/>
<path d="M0 0 C5.75 1.875 5.75 1.875 8 3 C8 2.34 8 1.68 8 1 C10.875 0.375 10.875 0.375 14 0 C14.66 0.66 15.32 1.32 16 2 C15.01 2 14.02 2 13 2 C13 2.66 13 3.32 13 4 C7.39 4 1.78 4 -4 4 C-3 2 -3 2 -1 1 C-0.67 0.67 -0.34 0.34 0 0 Z " fill="#503514" transform="translate(230,290)"/>
<path d="M0 0 C2.475 0.495 2.475 0.495 5 1 C5 1.99 5 2.98 5 4 C6.65 4.33 8.3 4.66 10 5 C10.33 6.32 10.66 7.64 11 9 C12.32 9.33 13.64 9.66 15 10 C14.67 10.66 14.34 11.32 14 12 C11.525 11.01 11.525 11.01 9 10 C9 9.34 9 8.68 9 8 C8.443125 7.773125 7.88625 7.54625 7.3125 7.3125 C4.35437642 5.633565 2.29781283 3.48929723 0 1 C0 0.67 0 0.34 0 0 Z " fill="#4D3816" transform="translate(107,239)"/>
<path d="M0 0 C3.90829085 0.5647301 5.89920223 2.42131971 8.75 5.0625 C9.54921875 5.79597656 10.3484375 6.52945312 11.171875 7.28515625 C11.77515625 7.85105469 12.3784375 8.41695312 13 9 C11.68 9.33 10.36 9.66 9 10 C8.67 9.01 8.34 8.02 8 7 C7.030625 6.71125 6.06125 6.4225 5.0625 6.125 C2 5 2 5 0.625 2.375 C0.41875 1.59125 0.2125 0.8075 0 0 Z " fill="#E69F4E" transform="translate(199,23)"/>
<path d="M0 0 C0.98484375 0.00902344 1.9696875 0.01804687 2.984375 0.02734375 C4.10585938 0.04474609 4.10585938 0.04474609 5.25 0.0625 C5.25 0.7225 5.25 1.3825 5.25 2.0625 C2.24686252 3.56406874 -0.54067522 3.15531204 -3.875 3.125 C-5.15632813 3.11597656 -6.43765625 3.10695313 -7.7578125 3.09765625 C-9.23894531 3.08025391 -9.23894531 3.08025391 -10.75 3.0625 C-9.75 1.0625 -9.75 1.0625 -8.046875 0.44140625 C-5.32835155 -0.00705765 -2.75442923 -0.03279082 0 0 Z " fill="#725931" transform="translate(264.75,267.9375)"/>
<path d="M0 0 C0.66 0 1.32 0 2 0 C3.98 5.28 5.96 10.56 8 16 C4 15 4 15 2.8203125 13.296875 C1.86691938 10.62737427 1.34095974 8.04575845 0.875 5.25 C0.70742188 4.26515625 0.53984375 3.2803125 0.3671875 2.265625 C0.24601562 1.51796875 0.12484375 0.7703125 0 0 Z " fill="#3E2D14" transform="translate(270,234)"/>
<path d="M0 0 C5.23463797 2.03569254 8.9469095 3.58698326 12.625 7.9375 C13.21539062 8.62714844 13.80578125 9.31679687 14.4140625 10.02734375 C16 12 16 12 18 15 C14.40242415 13.45104373 11.87467538 11.26304052 9 8.625 C8.154375 7.85414063 7.30875 7.08328125 6.4375 6.2890625 C4.24751278 4.23243988 2.10947611 2.13877439 0 0 Z " fill="#ECB660" transform="translate(103,161)"/>
<path d="M0 0 C3 0 3 0 6 2 C6 3.32 6 4.64 6 6 C5.34 6.66 4.68 7.32 4 8 C1.69 7.01 -0.62 6.02 -3 5 C-1.6875 2.5 -1.6875 2.5 0 0 Z " fill="#452B05" transform="translate(114,145)"/>
<path d="M0 0 C0.33 0.66 0.66 1.32 1 2 C1.66 2.165 2.32 2.33 3 2.5 C3.66 2.665 4.32 2.83 5 3 C5.33 3.66 5.66 4.32 6 5 C5.01 5.33 4.02 5.66 3 6 C3 11.61 3 17.22 3 23 C2.34 23.33 1.68 23.66 1 24 C0.67 16.08 0.34 8.16 0 0 Z " fill="#462C08" transform="translate(41,73)"/>
<path d="M0 0 C0.33 0 0.66 0 1 0 C1.06058594 0.66386719 1.12117188 1.32773438 1.18359375 2.01171875 C1.66615754 7.34872068 1.66615754 7.34872068 2.5625 12.625 C3.20306053 16.10232858 3.05988279 19.46691526 3 23 C1.35 22.67 -0.3 22.34 -2 22 C-1.67402832 21.42926758 -1.34805664 20.85853516 -1.01220703 20.27050781 C0.07403796 17.83392354 0.2331027 16.31718893 0.1953125 13.671875 C0.18886719 12.87265625 0.18242187 12.0734375 0.17578125 11.25 C0.15902344 10.425 0.14226563 9.6 0.125 8.75 C0.11146484 7.48929687 0.11146484 7.48929687 0.09765625 6.203125 C0.07415817 4.13529396 0.03828908 2.06761005 0 0 Z " fill="#60431B" transform="translate(21,120)"/>
<path d="M0 0 C1.0828125 0.495 1.0828125 0.495 2.1875 1 C5.01697427 2.00603529 7.02895466 2.16977402 10 2 C10.99 4.31 11.98 6.62 13 9 C12.34 9 11.68 9 11 9 C11 8.01 11 7.02 11 6 C10.113125 6.12375 9.22625 6.2475 8.3125 6.375 C4.64418661 5.95971924 4.32959535 5.69099605 2.125 3 C1.073125 1.515 1.073125 1.515 0 0 Z " fill="#F0B244" transform="translate(121,176)"/>
<path d="M0 0 C0.66 0.33 1.32 0.66 2 1 C1.67 1.99 1.34 2.98 1 4 C1.66 3.67 2.32 3.34 3 3 C5.6723621 2.86584528 8.32250488 2.95681459 11 3 C8.25046054 5.74953946 5.7649803 6.17042807 2 7 C-0.9375 6.625 -0.9375 6.625 -3 6 C-2 4 -1 2 0 0 Z " fill="#3C2710" transform="translate(42,125)"/>
<path d="M0 0 C1.43836751 0.11458693 2.87570966 0.24209116 4.3125 0.375 C5.51326172 0.47941406 5.51326172 0.47941406 6.73828125 0.5859375 C9 1 9 1 12 3 C9.03 2.67 6.06 2.34 3 2 C3.804375 2.78375 4.60875 3.5675 5.4375 4.375 C8 7 8 7 9 9 C5.05860922 7.33248852 2.2107188 4.77289351 -1 2 C-0.67 1.34 -0.34 0.68 0 0 Z " fill="#DBB879" transform="translate(93,151)"/>
<path d="M0 0 C0.33 0.99 0.66 1.98 1 3 C0.54625 3.4125 0.0925 3.825 -0.375 4.25 C-2.05950374 6.06408095 -2.99265971 7.75285627 -4 10 C-4.99 10 -5.98 10 -7 10 C-7.66 11.32 -8.32 12.64 -9 14 C-9.33 13.01 -9.66 12.02 -10 11 C-6.7 7.37 -3.4 3.74 0 0 Z " fill="#E0A65A" transform="translate(184,23)"/>
<path d="M0 0 C0.66 0.66 1.32 1.32 2 2 C1.38511719 2.67095703 1.38511719 2.67095703 0.7578125 3.35546875 C-2.25640074 6.73744485 -4.66050545 9.579668 -6 14 C-6.33 14 -6.66 14 -7 14 C-7.20140476 10.37471432 -6.85776765 8.13498292 -5 5 C-5.66 4.67 -6.32 4.34 -7 4 C-5.68 4 -4.36 4 -3 4 C-2.67 3.01 -2.34 2.02 -2 1 C-1.34 0.67 -0.68 0.34 0 0 Z " fill="#F2AE58" transform="translate(152,86)"/>
<path d="M0 0 C-4.97504047 3.24900602 -7.88225104 4.49940808 -14 4 C-14 3.34 -14 2.68 -14 2 C-12.23225581 1.46877637 -10.46065917 0.95035927 -8.6875 0.4375 C-7.70136719 0.14746094 -6.71523438 -0.14257812 -5.69921875 -0.44140625 C-3 -1 -3 -1 0 0 Z " fill="#3A290D" transform="translate(62,70)"/>
<path d="M0 0 C1.299375 0.7734375 1.299375 0.7734375 2.625 1.5625 C6.39403493 3.16782969 8.10885099 3.01911045 12 2 C10.84826645 4.46800047 9.95216435 6.04783565 8 8 C6.66102417 7.04956626 5.32894573 6.08940853 4 5.125 C3.2575 4.59132812 2.515 4.05765625 1.75 3.5078125 C1.1725 3.01023438 0.595 2.51265625 0 2 C0 1.34 0 0.68 0 0 Z " fill="#EEAC44" transform="translate(145,193)"/>
<path d="M0 0 C0.66 0 1.32 0 2 0 C2.33 4.29 2.66 8.58 3 13 C-1 9 -1 9 -1.42578125 6.89453125 C-1.11111111 1.11111111 -1.11111111 1.11111111 0 0 Z " fill="#684C17" transform="translate(17,96)"/>
<path d="M0 0 C3.52238047 1.56367357 6.27123994 3.69495889 9.25 6.125 C10.14203125 6.84945312 11.0340625 7.57390625 11.953125 8.3203125 C12.62859375 8.87460938 13.3040625 9.42890625 14 10 C13.67 11.32 13.34 12.64 13 14 C12.814375 13.4225 12.62875 12.845 12.4375 12.25 C10.6174423 9.40121403 8.6372378 8.49889069 5.65625 7.02734375 C4 6 4 6 2 3 C1.01 2.34 0.02 1.68 -1 1 C-0.67 0.67 -0.34 0.34 0 0 Z " fill="#E6B471" transform="translate(246,61)"/>
<path d="M0 0 C2.97 0.33 5.94 0.66 9 1 C9.33 1.99 9.66 2.98 10 4 C6.04 3.67 2.08 3.34 -2 3 C-1.34 2.67 -0.68 2.34 0 2 C0 1.34 0 0.68 0 0 Z " fill="#53421C" transform="translate(93,198)"/>
<path d="M0 0 C0.33 0 0.66 0 1 0 C1 5.61 1 11.22 1 17 C0.01 17 -0.98 17 -2 17 C-1.9278125 16.43152344 -1.855625 15.86304687 -1.78125 15.27734375 C-1.32455742 11.47791522 -1 7.83543022 -1 4 C-1 1 -1 1 0 0 Z " fill="#513710" transform="translate(41,112)"/>
<path d="M0 0 C2.4375 1.75 2.4375 1.75 5 4 C6.32901064 5.00573778 7.66073801 6.00795408 9 7 C8.67 7.66 8.34 8.32 8 9 C6.35048774 8.04801289 4.70548492 7.08820855 3.0625 6.125 C2.14597656 5.59132813 1.22945313 5.05765625 0.28515625 4.5078125 C-2 3 -2 3 -3 1 C-2.01 0.67 -1.02 0.34 0 0 Z " fill="#523B16" transform="translate(125,251)"/>
<path d="M0 0 C0.33 0 0.66 0 1 0 C1.66 5.94 2.32 11.88 3 18 C0.42201984 16.71100992 0.05792506 15.64714288 -1 13 C-1.23046875 10.78125 -1.23046875 10.78125 -1.1875 8.5 C-1.18105469 7.7471875 -1.17460937 6.994375 -1.16796875 6.21875 C-1.00303563 4.04009857 -0.59600906 2.09795189 0 0 Z " fill="#E9A95D" transform="translate(144,100)"/>
<path d="M0 0 C1.89646998 0.11493757 3.79218332 0.24239642 5.6875 0.375 C6.74324219 0.44460937 7.79898438 0.51421875 8.88671875 0.5859375 C11.90677269 0.98760089 14.24078054 1.74069019 17 3 C17 3.33 17 3.66 17 4 C11.44799744 4.19480711 7.2772739 3.68872765 2 2 C1.34 2 0.68 2 0 2 C0 1.34 0 0.68 0 0 Z " fill="#E5B161" transform="translate(96,153)"/>
<path d="M0 0 C3.88862987 1.26117725 5.89375599 2.45264167 8 6 C8 6.66 8 7.32 8 8 C5 8 5 8 2.3125 5.6875 C0 3 0 3 0 0 Z " fill="#604513" transform="translate(133,131)"/>
<path d="M0 0 C2.375 0.0625 2.375 0.0625 5 1 C7.3125 3.5625 7.3125 3.5625 9 6 C6.04590299 4.62845496 3.55991624 3.01136276 1 1 C0.67 2.65 0.34 4.3 0 6 C-1.32 6 -2.64 6 -4 6 C-2.84826645 3.53199953 -1.95216435 1.95216435 0 0 Z " fill="#DEA559" transform="translate(190,16)"/>
<path d="M0 0 C3 1 3 1 4.75 3.875 C6 7 6 7 5 10 C3.76302083 8.47005208 2.52604167 6.94010417 1.2890625 5.41015625 C0.0333609 3.86733563 0.0333609 3.86733563 -2 3 C-2 2.34 -2 1.68 -2 1 C-1.34 0.67 -0.68 0.34 0 0 Z " fill="#38220C" transform="translate(213,265)"/>
<path d="M0 0 C1.32 0 2.64 0 4 0 C4 0.66 4 1.32 4 2 C4.66 2.33 5.32 2.66 6 3 C6.33 3.66 6.66 4.32 7 5 C5.25 5.6875 5.25 5.6875 3 6 C0.75 4.5625 0.75 4.5625 -1 3 C-0.67 2.01 -0.34 1.02 0 0 Z " fill="#4A3010" transform="translate(161,218)"/>
<path d="M0 0 C0.33 1.32 0.66 2.64 1 4 C0.38125 4.268125 -0.2375 4.53625 -0.875 4.8125 C-3.2995233 5.95556848 -3.2995233 5.95556848 -5 9 C-5.66 7.35 -6.32 5.7 -7 4 C-4.69 2.68 -2.38 1.36 0 0 Z " fill="#3E2E11" transform="translate(92,198)"/>
<path d="M0 0 C3 1.75 3 1.75 6 4 C6 5.32 6 6.64 6 8 C4.125 7.75 4.125 7.75 2 7 C0.27898465 4.41847698 0 3.15081975 0 0 Z " fill="#402803" transform="translate(132,133)"/>
<path d="M0 0 C1.32 0.66 2.64 1.32 4 2 C3.04882866 3.1725131 2.08882991 4.33787015 1.125 5.5 C0.59132812 6.1496875 0.05765625 6.799375 -0.4921875 7.46875 C-0.98976562 7.9740625 -1.48734375 8.479375 -2 9 C-2.66 9 -3.32 9 -4 9 C-2.25 2.25 -2.25 2.25 0 0 Z " fill="#F0B150" transform="translate(228,106)"/>
<path d="M0 0 C0.99 0.33 1.98 0.66 3 1 C3 1.66 3 2.32 3 3 C-3.4 4.23076923 -3.4 4.23076923 -6.4375 3.0625 C-6.953125 2.711875 -7.46875 2.36125 -8 2 C-7.67 1.67 -7.34 1.34 -7 1 C-5 1 -3 1 -1 1 C-0.67 0.67 -0.34 0.34 0 0 Z " fill="#4B3513" transform="translate(110,98)"/>
<path d="M0 0 C2.18092036 2.07858979 3.96390469 4.21856618 5.6875 6.6875 C6.12449219 7.31011719 6.56148437 7.93273437 7.01171875 8.57421875 C7.33785156 9.04472656 7.66398438 9.51523438 8 10 C6.35 10 4.7 10 3 10 C2 7 2 7 2 4 C1.34 4 0.68 4 0 4 C0 2.68 0 1.36 0 0 Z " fill="#ECB265" transform="translate(147,118)"/>
<path d="M0 0 C-2.82553984 4.23830976 -5.12180888 3.97715348 -10 5 C-9.64453125 3.08203125 -9.64453125 3.08203125 -9 1 C-5.6868424 -0.8804408 -3.58825658 -1.32898392 0 0 Z " fill="#F6A346" transform="translate(167,101)"/>
<path d="M0 0 C2.625 -0.1875 2.625 -0.1875 5 0 C4.360625 0.66 3.72125 1.32 3.0625 2 C0.41087498 5.85690912 0.31332879 8.37840033 0 13 C-0.33 13 -0.66 13 -1 13 C-1.22245393 11.39773045 -1.42746669 9.79303233 -1.625 8.1875 C-1.74101562 7.29417969 -1.85703125 6.40085937 -1.9765625 5.48046875 C-2 3 -2 3 0 0 Z " fill="#453613" transform="translate(15,66)"/>
<path d="M0 0 C0.33 0.66 0.66 1.32 1 2 C3.01669827 3.13350534 3.01669827 3.13350534 5 4 C5 4.66 5 5.32 5 6 C2.69 6.33 0.38 6.66 -2 7 C-2 5.02 -2 3.04 -2 1 C-1.34 0.67 -0.68 0.34 0 0 Z " fill="#372407" transform="translate(59,121)"/>
<path d="M0 0 C4.95 0.99 4.95 0.99 10 2 C10.33 2.99 10.66 3.98 11 5 C7.0507432 4.44894091 3.65079826 3.61064629 0 2 C0 1.34 0 0.68 0 0 Z " fill="#5B441A" transform="translate(138,226)"/>
<path d="M0 0 C4.35535069 1.16142685 6.64619703 2.07699505 9 6 C5 6 5 6 3.515625 4.6875 C2.34375 3.125 1.171875 1.5625 0 0 Z " fill="#5E4525" transform="translate(252,210)"/>
<path d="M0 0 C1.485 0.99 1.485 0.99 3 2 C3.99 2.33 4.98 2.66 6 3 C4.35 4.98 2.7 6.96 1 9 C0.08941469 5.92677456 -0.08886184 3.19902639 0 0 Z " fill="#EFA94A" transform="translate(164,178)"/>
<path d="M0 0 C0.66 1.32 1.32 2.64 2 4 C1.34 4 0.68 4 0 4 C-0.66 5.32 -1.32 6.64 -2 8 C-2.99 8 -3.98 8 -5 8 C-3.62845496 5.04590299 -2.01136276 2.55991624 0 0 Z " fill="#DCA552" transform="translate(122,96)"/>
<path d="M0 0 C2.475 0.495 2.475 0.495 5 1 C5.33 3.31 5.66 5.62 6 8 C5.34 7.67 4.68 7.34 4 7 C4 6.01 4 5.02 4 4 C3.34 4 2.68 4 2 4 C1.34 2.68 0.68 1.36 0 0 Z " fill="#5A421C" transform="translate(259,218)"/>
<path d="M0 0 C-0.99 0.33 -1.98 0.66 -3 1 C-3.33 1.99 -3.66 2.98 -4 4 C-5.98 3.34 -7.96 2.68 -10 2 C-3.24137931 -1.62068966 -3.24137931 -1.62068966 0 0 Z " fill="#E2A746" transform="translate(138,160)"/>
<path d="M0 0 C-1.66751148 3.94139078 -4.22710649 6.7892812 -7 10 C-7.33 9.34 -7.66 8.68 -8 8 C-7.67 7.01 -7.34 6.02 -7 5 C-6.34 4.67 -5.68 4.34 -5 4 C-4.67 3.01 -4.34 2.02 -4 1 C-2 0 -2 0 0 0 Z " fill="#E5AE5A" transform="translate(193,152)"/>
<path d="M0 0 C0.33 0.99 0.66 1.98 1 3 C0.34 3 -0.32 3 -1 3 C-1.061875 3.598125 -1.12375 4.19625 -1.1875 4.8125 C-2.33938899 7.91373958 -4.06759592 8.64108103 -7 10 C-7.66 9.67 -8.32 9.34 -9 9 C-7.6078125 7.88625 -7.6078125 7.88625 -6.1875 6.75 C-3.72873042 4.70974439 -1.78352451 2.67528677 0 0 Z " fill="#E6B056" transform="translate(195,122)"/>
<path d="M0 0 C0 3 0 3 -1 5 C-1.66 5 -2.32 5 -3 5 C-3 6.65 -3 8.3 -3 10 C-4.32 10 -5.64 10 -7 10 C-6.01 8.02 -5.02 6.04 -4 4 C-3.34 4 -2.68 4 -2 4 C-1.34 2.68 -0.68 1.36 0 0 Z " fill="#F3A941" transform="translate(236,96)"/>
<path d="M0 0 C0.33 1.65 0.66 3.3 1 5 C-2.34252724 5.07427838 -4.8035914 5.06546953 -8 4 C-8 3.34 -8 2.68 -8 2 C-2.25 0 -2.25 0 0 0 Z " fill="#382809" transform="translate(71,66)"/>
<path d="M0 0 C0.33 1.32 0.66 2.64 1 4 C-0.98 4.66 -2.96 5.32 -5 6 C-5.66 5.34 -6.32 4.68 -7 4 C-6.34 4 -5.68 4 -5 4 C-5 3.34 -5 2.68 -5 2 C-3.35 1.34 -1.7 0.68 0 0 Z " fill="#443310" transform="translate(76,64)"/>
<path d="M0 0 C1.31611677 0.95336021 2.62778961 1.91285774 3.9375 2.875 C4.66839844 3.40867188 5.39929688 3.94234375 6.15234375 4.4921875 C8 6 8 6 9 8 C7.35 8 5.7 8 4 8 C4 6.68 4 5.36 4 4 C2.68 3.34 1.36 2.68 0 2 C0 1.34 0 0.68 0 0 Z " fill="#E7A862" transform="translate(225,43)"/>
<path d="M0 0 C1.74627478 2.61941217 2.38722388 4.03824877 3 7 C2.01 7.33 1.02 7.66 0 8 C-0.99 5.69 -1.98 3.38 -3 1 C-2.01 0.67 -1.02 0.34 0 0 Z " fill="#EFA53D" transform="translate(212,32)"/>
<path d="M0 0 C0.66 0 1.32 0 2 0 C2.66 3.3 3.32 6.6 4 10 C3.34 10 2.68 10 2 10 C1.71125 9.030625 1.4225 8.06125 1.125 7.0625 C0.35785318 3.89335797 0.35785318 3.89335797 -2 3 C-1 1 -1 1 0 0 Z " fill="#4E3111" transform="translate(268,230)"/>
<path d="M0 0 C0.99 0 1.98 0 3 0 C2.37240135 2.92879371 1.41377341 5.36095629 0 8 C-1 7 -1 7 -1.125 4 C-1 1 -1 1 0 0 Z " fill="#3E230B" transform="translate(159,209)"/>
<path d="M0 0 C0.33 1.32 0.66 2.64 1 4 C-0.4540625 4.433125 -0.4540625 4.433125 -1.9375 4.875 C-5.10664203 5.64214682 -5.10664203 5.64214682 -6 8 C-5.4360709 4.72921124 -4.54319569 3.13628438 -2 1 C-1.34 0.67 -0.68 0.34 0 0 Z " fill="#3F2B08" transform="translate(102,98)"/>
<path d="M0 0 C1.98 0 3.96 0 6 0 C6.66 1.32 7.32 2.64 8 4 C7.01 4.66 6.02 5.32 5 6 C5 5.01 5 4.02 5 3 C4.01 2.67 3.02 2.34 2 2 C1.34 1.34 0.68 0.68 0 0 Z " fill="#4F3419" transform="translate(26,66)"/>
<path d="M0 0 C0.66 0 1.32 0 2 0 C2.125 2.875 2.125 2.875 2 6 C1.34 6.66 0.68 7.32 0 8 C-1 7 -1 7 -1.125 4 C-1 1 -1 1 0 0 Z " fill="#5C4215" transform="translate(140,140)"/>
<path d="M0 0 C1.95216435 3.90432869 2.50639991 6.72213252 3 11 C2.01 11 1.02 11 0 11 C0 7.37 0 3.74 0 0 Z " fill="#80673C" transform="translate(19,130)"/>
<path d="M0 0 C0.99 0.33 1.98 0.66 3 1 C3.33 4.63 3.66 8.26 4 12 C2.09681116 9.14521674 1.5380901 7.58058692 0.875 4.3125 C0.70742188 3.50425781 0.53984375 2.69601563 0.3671875 1.86328125 C0.24601562 1.24839844 0.12484375 0.63351563 0 0 Z " fill="#91512C" transform="translate(18,125)"/>
<path d="M0 0 C0.66 0.33 1.32 0.66 2 1 C-0.97 4.96 -0.97 4.96 -4 9 C-5.04449911 5.86650268 -4.93423645 5.01031744 -4 2 C-2.68 2 -1.36 2 0 2 C0 1.34 0 0.68 0 0 Z " fill="#482A0F" transform="translate(133,73)"/>
<path d="M0 0 C0.33 0.66 0.66 1.32 1 2 C-1.64 2.66 -4.28 3.32 -7 4 C-7.33 3.01 -7.66 2.02 -8 1 C-5.36 0.67 -2.72 0.34 0 0 Z " fill="#443218" transform="translate(223,279)"/>
<path d="M0 0 C-0.375 2.4375 -0.375 2.4375 -1 5 C-1.99 5.495 -1.99 5.495 -3 6 C-3 4.68 -3 3.36 -3 2 C-4.32 1.67 -5.64 1.34 -7 1 C-4.50935112 0.31292445 -2.62113708 0 0 0 Z " fill="#573F1C" transform="translate(292,274)"/>
<path d="M0 0 C0.99 0.33 1.98 0.66 3 1 C1.02 3.31 -0.96 5.62 -3 8 C-3.33 6.68 -3.66 5.36 -4 4 C-2.0625 1.75 -2.0625 1.75 0 0 Z " fill="#EBAD5F" transform="translate(174,172)"/>
<path d="M0 0 C0.99 0.33 1.98 0.66 3 1 C1.63016497 4.16115776 1.0109362 4.9927092 -2 7 C-2.125 4.625 -2.125 4.625 -2 2 C-1.34 1.34 -0.68 0.68 0 0 Z " fill="#EDAB4E" transform="translate(195,145)"/>
<path d="M0 0 C2.125 0.375 2.125 0.375 4 1 C3.01 1.66 2.02 2.32 1 3 C0.27034634 5.56282742 0.27034634 5.56282742 0 8 C-0.66 7.67 -1.32 7.34 -2 7 C-2.125 4.625 -2.125 4.625 -2 2 C-1.34 1.34 -0.68 0.68 0 0 Z " fill="#EEB45D" transform="translate(171,117)"/>
<path d="M0 0 C4.455 1.98 4.455 1.98 9 4 C9 4.33 9 4.66 9 5 C3.5 5.36666667 3.5 5.36666667 1.125 3.625 C0 2 0 2 0 0 Z " fill="#4C3917" transform="translate(105,115)"/>
<path d="M0 0 C0 0.33 0 0.66 0 1 C-1.65 1 -3.3 1 -5 1 C-5 1.66 -5 2.32 -5 3 C-7.31 2.67 -9.62 2.34 -12 2 C-11.67 1.34 -11.34 0.68 -11 0 C-7.0832314 -1.23098442 -3.97610732 -0.83220851 0 0 Z " fill="#FAB357" transform="translate(168,91)"/>
<path d="M0 0 C2 3 2 3 2 5 C2.99 5.33 3.98 5.66 5 6 C4.67 6.66 4.34 7.32 4 8 C2.68 7.67 1.36 7.34 0 7 C0 4.69 0 2.38 0 0 Z " fill="#4A3517" transform="translate(279,258)"/>
<path d="M0 0 C2.31 0.33 4.62 0.66 7 1 C6.67 1.99 6.34 2.98 6 4 C4.35 3.67 2.7 3.34 1 3 C0.67 2.01 0.34 1.02 0 0 Z " fill="#4A2A02" transform="translate(116,124)"/>
<path d="M0 0 C2 1 2 1 2.6875 2.8125 C3.02688538 5.18819767 2.72856341 6.73335829 2 9 C1.34 9 0.68 9 0 9 C0 6.03 0 3.06 0 0 Z " fill="#756031" transform="translate(17,105)"/>
<path d="M0 0 C1.65 0 3.3 0 5 0 C4.625 1.9375 4.625 1.9375 4 4 C3.01 4.495 3.01 4.495 2 5 C1.34 4.67 0.68 4.34 0 4 C0 2.68 0 1.36 0 0 Z " fill="#F3A332" transform="translate(163,93)"/>
<path d="M0 0 C3.16115776 1.36983503 3.9927092 1.9890638 6 5 C3.525 4.01 3.525 4.01 1 3 C0.67 3.99 0.34 4.98 0 6 C-1 3 -1 3 0 0 Z " fill="#E79C3E" transform="translate(191,17)"/>
<path d="M0 0 C-1.125 1.5 -1.125 1.5 -3 3 C-6.1875 3.1875 -6.1875 3.1875 -9 3 C-5.92807025 0.26939578 -4.09590633 -0.34132553 0 0 Z " fill="#665028" transform="translate(245,271)"/>
<path d="M0 0 C4.31392226 0.4793247 6.16569547 1.7457985 9 5 C6.69 4.34 4.38 3.68 2 3 C2 2.34 2 1.68 2 1 C1.34 0.67 0.68 0.34 0 0 Z " fill="#503B1B" transform="translate(247,206)"/>
</svg>
