<?xml version="1.0" encoding="UTF-8"?>
<svg version="1.1" xmlns="http://www.w3.org/2000/svg" width="354" height="252">
<path d="M0 0 C1.24923248 -0.00563965 2.49846497 -0.0112793 3.78555298 -0.01708984 C5.17768917 -0.01320082 6.5698248 -0.00910445 7.96195984 -0.00482178 C9.42210566 -0.00753066 10.88225012 -0.01109102 12.34239197 -0.01544189 C16.31565693 -0.02458282 20.28881836 -0.02101403 24.2620852 -0.01468372 C28.41710714 -0.00962964 32.57212006 -0.01431379 36.72714233 -0.01745605 C43.70891413 -0.02109865 50.69064367 -0.01629021 57.67240906 -0.0067749 C65.74305883 0.00409745 73.81360746 0.00059414 81.88425475 -0.01042771 C88.81001472 -0.0195075 95.73574426 -0.02078209 102.66150826 -0.01555037 C106.79929173 -0.01243284 110.9370277 -0.01201514 115.07480812 -0.01862335 C118.96783801 -0.02440578 122.86073781 -0.02038349 126.75375366 -0.00883484 C128.18199129 -0.0061925 129.61023988 -0.00694608 131.03847313 -0.01136017 C132.9896747 -0.01683392 134.94090021 -0.00874938 136.89208984 0 C137.98366048 0.00075405 139.07523111 0.0015081 140.19987965 0.002285 C143.93720882 0.3225896 146.89112803 1.14387681 149.71855164 3.66412354 C150.12460632 4.20939697 150.53066101 4.75467041 150.94902039 5.31646729 C151.57743835 6.10730713 151.57743835 6.10730713 152.21855164 6.91412354 C154.76436105 13.40322923 152.85081405 21.97068917 152.03495789 28.75006104 C151.91796036 29.75698502 151.80096283 30.763909 151.68041992 31.80134583 C151.29590255 35.09867543 150.90389693 38.39506444 150.51152039 41.69146729 C150.24138962 43.99025368 149.97161945 46.28908247 149.70219421 48.58795166 C148.99691384 54.59222454 148.28460799 60.59564345 147.57054138 66.59887695 C147.1382914 70.23905276 146.70850607 73.87951091 146.27958679 77.52008057 C145.59531185 83.32766439 144.90797501 89.1348758 144.21763611 94.94174194 C143.95590175 97.14420264 143.69479009 99.34673743 143.43431091 101.54934692 C143.07078816 104.61787922 142.70380058 107.68597652 142.33573914 110.75396729 C142.22869156 111.661996 142.12164398 112.57002472 142.01135254 113.50556946 C141.91045822 114.34035324 141.8095639 115.17513702 141.70561218 116.03521729 C141.61934067 116.75773682 141.53306915 117.48025635 141.44418335 118.22467041 C141.13273208 120.27895439 140.67313305 122.24778308 140.13652039 124.25396729 C142.44652039 124.91396729 144.75652039 125.57396729 147.13652039 126.25396729 C147.2460907 125.09010498 147.35566101 123.92624268 147.46855164 122.72711182 C148.77153917 109.16012305 150.41016736 95.64780336 152.13652039 82.12896729 C152.53023782 79.03512598 152.92314794 75.94118747 153.3144989 72.8470459 C153.56870766 70.83835281 153.82437917 68.82984425 154.08158875 66.8215332 C154.66680675 62.20721816 155.21667502 57.59577065 155.66386414 52.96588135 C155.74499451 52.14661163 155.82612488 51.32734192 155.90971375 50.48324585 C156.05516769 48.97842777 156.19096938 47.47262711 156.3144989 45.96585083 C156.75118103 41.47139341 157.4975523 37.95883108 160.13652039 34.25396729 C165.12083978 32.11624126 170.02763032 31.97032387 175.37870789 32.02349854 C176.14651581 32.02395676 176.91432373 32.02441498 177.70539856 32.02488708 C179.32063859 32.0278913 180.9358762 32.03572222 182.55107117 32.04815674 C184.99762984 32.06636391 187.44380733 32.0686663 189.89042664 32.06842041 C191.46985693 32.07333904 193.0492847 32.07916885 194.62870789 32.08599854 C195.34775299 32.08711136 196.0667981 32.08822418 196.80763245 32.08937073 C212.62687789 32.23407079 212.62687789 32.23407079 218.13652039 37.25396729 C224.28968421 45.41895195 227.01908021 54.96711478 230.07402039 64.56646729 C230.597542 66.18698078 231.1220448 67.80717761 231.64750671 69.42706299 C232.42772761 71.83259666 233.20711047 74.23835243 233.98141479 76.64579773 C235.39216915 81.02060898 236.86249433 85.36296928 238.43339539 89.68365479 C238.75960876 90.59461914 239.08582214 91.5055835 239.42192078 92.44415283 C239.98726664 94.0092199 240.56753483 95.56906372 241.16947937 97.12042236 C245.65209215 109.7733997 244.32314239 124.95723089 244.32182312 138.22247314 C244.32404067 140.7142573 244.34238779 143.2056183 244.36112976 145.69732666 C244.44165105 167.72201758 244.44165105 167.72201758 237.83183289 175.62506104 C233.23901216 180.03797865 228.2112316 180.58652696 222.15214539 180.55474854 C220.13652039 180.25396729 220.13652039 180.25396729 217.13652039 178.25396729 C217.2235321 179.23623291 217.2235321 179.23623291 217.31230164 180.23834229 C217.70157939 188.11287508 216.0194679 194.37706287 212.13652039 201.25396729 C210.84678467 202.62951712 209.51474337 203.96708852 208.13652039 205.25396729 C207.18891152 206.41243817 206.25081632 207.57877936 205.32402039 208.75396729 C201.48198446 213.28659701 197.02793913 216.0748403 191.13652039 217.25396729 C184.60444112 217.78612841 178.50014547 216.75938442 172.13652039 215.37896729 C171.29862976 215.20494385 170.46073914 215.03092041 169.59745789 214.85162354 C165.83387593 214.06511647 162.12421444 213.25049578 158.42118835 212.20587158 C150.96871358 210.56159145 143.23743988 210.94594724 135.64433289 210.95318604 C133.93151243 210.94928895 132.21869293 210.94495223 130.50587463 210.94020081 C126.9201596 210.93276237 123.33454302 210.93301005 119.74882507 210.93829346 C115.20961289 210.94404811 110.67081409 210.92724312 106.13167 210.90394878 C102.59146363 210.88902384 99.05135212 210.88836544 95.51111984 210.89145851 C93.84099899 210.89095343 92.17087163 210.88587326 90.50078201 210.87564659 C76.00069093 210.79782133 62.0986109 212.48687924 48.01152039 215.94146729 C35.58959815 218.65513488 23.31828342 218.98415124 12.13652039 212.25396729 C8.18712327 209.51940282 4.43259901 206.62679812 0.73124695 203.56793213 C-0.85149058 202.26384558 -2.45169476 200.98489302 -4.05879211 199.71099854 C-11.56159062 193.70680077 -11.56159062 193.70680077 -13.86347961 190.25396729 C-14.05879211 187.77349854 -14.05879211 187.77349854 -13.98847961 185.06646729 C-13.97043274 184.1654126 -13.95238586 183.26435791 -13.93379211 182.33599854 C-13.91058899 181.64892822 -13.88738586 180.96185791 -13.86347961 180.25396729 C-14.71812805 180.26556885 -15.57277649 180.27717041 -16.45332336 180.28912354 C-17.55804993 180.29814697 -18.66277649 180.30717041 -19.80097961 180.31646729 C-20.90312805 180.32806885 -22.00527649 180.33967041 -23.14082336 180.35162354 C-25.86347961 180.25396729 -25.86347961 180.25396729 -26.86347961 179.25396729 C-26.87928859 176.6929134 -26.80960772 174.18433974 -26.67597961 171.62896729 C-26.63408508 170.8202417 -26.59219055 170.01151611 -26.54902649 169.17828369 C-26.01778222 160.62056349 -24.95768939 152.1289617 -23.86347961 143.62896729 C-23.77394012 142.92536072 -23.68440063 142.22175415 -23.59214783 141.49682617 C-22.04504847 129.43553614 -22.04504847 129.43553614 -20.86347961 128.25396729 C-18.63774793 127.9562204 -16.40763291 127.69098338 -14.17597961 127.44146729 C-6.75937037 126.43610913 -6.75937037 126.43610913 -0.86347961 122.25396729 C3.00181157 115.98952985 3.85720517 109.49809194 3.13652039 102.25396729 C2.36961193 99.7092256 1.35613102 97.64628046 0.13652039 95.25396729 C-0.25535461 94.44959229 -0.64722961 93.64521729 -1.05097961 92.81646729 C-1.31910461 92.30084229 -1.58722961 91.78521729 -1.86347961 91.25396729 C0.2159116 88.94353261 1.69684778 87.41884451 4.63652039 86.31646729 C9.03269484 84.44809314 11.31138249 80.52783186 13.13652039 76.25396729 C14.56230377 68.7498442 14.39955972 63.14260587 11.13652039 56.25396729 C10.74464539 55.26396729 10.35277039 54.27396729 9.94902039 53.25396729 C9.68089539 52.59396729 9.41277039 51.93396729 9.13652039 51.25396729 C10.85177733 49.2678803 12.01951993 48.29707272 14.51152039 47.37896729 C18.57713532 45.63656089 21.2782073 42.97059345 23.25761414 39.01177979 C25.36675533 32.39376343 25.40728878 23.9886455 22.44902039 17.62896729 C20.61677478 14.2962407 18.38522615 12.2330639 15.13652039 10.25396729 C11.40664647 9.51059431 7.67906531 9.28339306 3.88652039 9.06646729 C1.8810712 8.93065522 -0.12415655 8.79151816 -2.12910461 8.64849854 C-3.01372375 8.59540527 -3.8983429 8.54231201 -4.80976868 8.48760986 C-6.86347961 8.25396729 -6.86347961 8.25396729 -7.86347961 7.25396729 C-8.05097961 4.81646729 -8.05097961 4.81646729 -7.86347961 2.25396729 C-5.16149971 -0.44801262 -3.78061287 0.00261434 0 0 Z M207.13652039 156.25396729 C208.13652039 158.25396729 208.13652039 158.25396729 208.13652039 158.25396729 Z M208.13652039 158.25396729 C209.49177574 162.47172461 211.03852152 166.54818051 212.76152039 170.62896729 C213.43054382 172.21838135 213.43054382 172.21838135 214.11308289 173.83990479 C214.45081726 174.63654541 214.78855164 175.43318604 215.13652039 176.25396729 C216.19019601 173.53625516 216.17771456 172.37845318 215.24589539 169.56256104 C214.57300476 168.14136963 214.57300476 168.14136963 213.88652039 166.69146729 C213.44823914 165.74142822 213.00995789 164.79138916 212.55839539 163.81256104 C211.27468213 161.50258251 210.11033562 159.97815294 208.13652039 158.25396729 Z " fill="#F8A632" transform="translate(82.86347961425781,31.74603271484375)"/>
<path d="M0 0 C5.84282865 2.95294038 11.84322289 7.18365243 14.3125 13.4375 C14.3125 14.4275 14.3125 15.4175 14.3125 16.4375 C14.9725 16.4375 15.6325 16.4375 16.3125 16.4375 C16.82211846 17.82985043 17.31974909 19.22659118 17.8125 20.625 C18.0909375 21.40230469 18.369375 22.17960937 18.65625 22.98046875 C19.3125 25.4375 19.3125 25.4375 19.3125 30.4375 C53.3025 30.4375 87.2925 30.4375 122.3125 30.4375 C122.6425 27.4675 122.9725 24.4975 123.3125 21.4375 C124.6875 18.8125 124.6875 18.8125 126.3125 16.4375 C126.704375 15.344375 127.09625 14.25125 127.5 13.125 C130.02862559 7.074833 135.08722088 2.80690253 140.5625 -0.5625 C147.57810418 -2.43332778 154.52535244 -2.87729839 161.1875 0.375 C170.59346161 6.45921661 176.13705602 19.78742838 178.6875 30.3125 C178.92295838 31.6831156 179.13427012 33.0582749 179.3125 34.4375 C179.5290625 36.0771875 179.5290625 36.0771875 179.75 37.75 C178.85233849 45.31600416 175.91890358 52.24638557 170.3125 57.4375 C169.36489114 58.59597089 168.42679593 59.76231207 167.5 60.9375 C163.65796408 65.47012972 159.20391875 68.25837301 153.3125 69.4375 C146.78042073 69.96966113 140.67612508 68.94291713 134.3125 67.5625 C133.47460938 67.38847656 132.63671875 67.21445313 131.7734375 67.03515625 C128.00985555 66.24864919 124.30019405 65.43402849 120.59716797 64.3894043 C113.14469319 62.74512417 105.41341949 63.12947995 97.8203125 63.13671875 C96.10749205 63.13282166 94.39467254 63.12848495 92.68185425 63.12373352 C89.09613921 63.11629508 85.51052263 63.11654277 81.92480469 63.12182617 C77.3855925 63.12758083 72.84679371 63.11077583 68.30764961 63.0874815 C64.76744324 63.07255655 61.22733174 63.07189816 57.68709946 63.07499123 C56.01697861 63.07448614 54.34685124 63.06940597 52.67676163 63.05917931 C38.17667054 62.98135404 24.27459051 64.67041196 10.1875 68.125 C-2.23442224 70.83866759 -14.50573697 71.16768396 -25.6875 64.4375 C-29.63689711 61.70293553 -33.39142138 58.81033084 -37.09277344 55.75146484 C-38.67551096 54.44737829 -40.27571514 53.16842573 -41.8828125 51.89453125 C-49.38561101 45.89033349 -49.38561101 45.89033349 -51.6875 42.4375 C-51.91796875 39.9921875 -51.91796875 39.9921875 -51.875 37.3125 C-51.86855469 36.42304688 -51.86210938 35.53359375 -51.85546875 34.6171875 C-51.6875 32.4375 -51.6875 32.4375 -50.6875 31.4375 C-48.67155418 31.20322222 -46.649026 31.02413876 -44.625 30.875 C-43.52027344 30.79121094 -42.41554688 30.70742187 -41.27734375 30.62109375 C-40.42269531 30.56050781 -39.56804687 30.49992187 -38.6875 30.4375 C-38.47996094 29.47070312 -38.27242187 28.50390625 -38.05859375 27.5078125 C-35.60485931 16.84017801 -32.31609777 8.34089505 -22.9375 1.875 C-15.86915912 -2.48710547 -7.7656949 -3.16030019 0 0 Z " fill="#020202" transform="translate(120.6875,179.5625)"/>
<path d="M0 0 C6.33523191 -0.12676673 12.67013694 -0.21433632 19.00634766 -0.2746582 C21.16174542 -0.29980397 23.31705791 -0.33392524 25.47216797 -0.37719727 C28.57020092 -0.43784508 31.66710681 -0.46620912 34.765625 -0.48828125 C35.72929993 -0.51408768 36.69297485 -0.5398941 37.68585205 -0.56648254 C44.34615352 -0.56927536 44.34615352 -0.56927536 47.50097656 2.17749023 C48.98839281 4.97814484 50.19327787 7.64748225 51.21875 10.6484375 C51.59185303 11.72971924 51.96495605 12.81100098 52.34936523 13.92504883 C52.72907471 15.06353271 53.10878418 16.2020166 53.5 17.375 C53.89582275 18.53862061 54.29164551 19.70224121 54.69946289 20.90112305 C57.17054103 28.25297693 59.41719609 35.60805924 61.24609375 43.14453125 C61.92115992 45.98479866 61.92115992 45.98479866 63.0703125 48.4921875 C65.14316936 54.08367532 65.16175531 61.03752395 62.984375 66.58984375 C60.90761748 70.04902119 59.914806 71.69506467 56 73 C56 73.66 56 74.32 56 75 C48.3645666 75.07593591 40.72923023 75.12855169 33.09350586 75.16479492 C30.49483603 75.17990063 27.89619177 75.20038634 25.29760742 75.22631836 C21.56683042 75.26262243 17.83638987 75.27970858 14.10546875 75.29296875 C12.35691841 75.31619453 12.35691841 75.31619453 10.57304382 75.33988953 C9.49214981 75.34011612 8.4112558 75.34034271 7.29760742 75.34057617 C6.34496506 75.34723801 5.39232269 75.35389984 4.41081238 75.36076355 C2 75 2 75 0.19117737 73.89962769 C-1.60943044 71.02811205 -1.36642026 68.63315251 -1.35644531 65.26538086 C-1.35848969 64.58540543 -1.36053406 63.90542999 -1.36264038 63.20484924 C-1.36564783 60.95790692 -1.34717444 58.7116988 -1.328125 56.46484375 C-1.32506738 54.90450726 -1.32319128 53.34416804 -1.32244873 51.78382874 C-1.31784603 48.51455228 -1.30342071 45.24552219 -1.28125 41.97631836 C-1.25294424 37.78065182 -1.2420361 33.58517918 -1.2375679 29.38942623 C-1.23341615 26.16815747 -1.22360111 22.94692809 -1.21169281 19.7256794 C-1.20598644 18.17828245 -1.20122895 16.63088172 -1.19742584 15.08347893 C-1.19056961 12.92399275 -1.17694088 10.76466147 -1.16113281 8.60522461 C-1.15430481 7.37517197 -1.14747681 6.14511932 -1.14044189 4.87779236 C-1 2 -1 2 0 0 Z " fill="#F6EEDF" transform="translate(248,78)"/>
<path d="M0 0 C0.76780792 0.00045822 1.53561584 0.00091644 2.32669067 0.00138855 C3.94193071 0.00439276 5.55716832 0.01222369 7.17236328 0.0246582 C9.61892196 0.04286538 12.06509945 0.04516777 14.51171875 0.04492188 C16.09114904 0.0498405 17.67057681 0.05567032 19.25 0.0625 C19.9690451 0.06361282 20.68809021 0.06472565 21.42892456 0.06587219 C37.24817 0.21057225 37.24817 0.21057225 42.7578125 5.23046875 C48.91097633 13.39545341 51.64037233 22.94361624 54.6953125 32.54296875 C55.21883411 34.16348225 55.74333692 35.78367907 56.26879883 37.40356445 C57.04901973 39.80909812 57.82840258 42.2148539 58.60270691 44.62229919 C60.01346127 48.99711045 61.48378645 53.33947074 63.0546875 57.66015625 C63.38090088 58.57112061 63.70711426 59.48208496 64.04321289 60.4206543 C64.60855875 61.98572136 65.18882695 63.54556519 65.79077148 65.09692383 C70.27338426 77.74990117 68.9444345 92.93373235 68.94311523 106.19897461 C68.94533278 108.69075877 68.96367991 111.18211976 68.98242188 113.67382812 C69.06294316 135.69851905 69.06294316 135.69851905 62.453125 143.6015625 C57.92228357 147.95492858 52.85745262 148.56706804 46.87109375 148.7265625 C43.7964148 148.00478019 42.6962967 146.70203611 40.7578125 144.23046875 C39.51953125 141.09375 39.51953125 141.09375 38.4453125 137.54296875 C35.44360287 128.65790825 30.5071947 122.57079748 23.7578125 116.23046875 C29.03498958 116.8393738 32.57349913 120.91080528 35.9453125 124.66796875 C37.87886401 127.40161053 39.26303076 130.24090528 40.7578125 133.23046875 C41.4178125 133.56046875 42.0778125 133.89046875 42.7578125 134.23046875 C43.36164797 137.88196436 43.50288166 141.5339715 43.7578125 145.23046875 C50.1928125 144.24046875 50.1928125 144.24046875 56.7578125 143.23046875 C57.0878125 141.91046875 57.4178125 140.59046875 57.7578125 139.23046875 C58.7478125 139.23046875 59.7378125 139.23046875 60.7578125 139.23046875 C61.0878125 138.24046875 61.4178125 137.25046875 61.7578125 136.23046875 C62.0878125 135.57046875 62.4178125 134.91046875 62.7578125 134.23046875 C63.4178125 134.23046875 64.0778125 134.23046875 64.7578125 134.23046875 C64.7427831 126.70074091 64.70051171 119.17155356 64.62572193 111.64218998 C64.5917813 108.14394532 64.56639441 104.646122 64.56225586 101.14770508 C65.99944603 77.39721936 65.99944603 77.39721936 57.7578125 56.23046875 C55.94415984 63.12234884 55.39077936 69.78195657 55.1015625 76.875 C54.78962642 79.9199215 54.35607884 81.67195367 52.7578125 84.23046875 C52.0978125 84.23046875 51.4378125 84.23046875 50.7578125 84.23046875 C51.07878906 83.36292969 51.39976562 82.49539062 51.73046875 81.6015625 C54.88585448 71.24757815 52.07769594 62.0261022 48.46337891 52.23681641 C47.24052803 48.75951936 46.26207337 45.21328968 45.2578125 41.66796875 C43.3359781 34.96298715 41.11386085 28.42467832 38.67578125 21.890625 C37.7578125 19.23046875 37.7578125 19.23046875 37.7578125 17.23046875 C36.2728125 16.73546875 36.2728125 16.73546875 34.7578125 16.23046875 C34.7578125 15.57046875 34.7578125 14.91046875 34.7578125 14.23046875 C19.9078125 14.23046875 5.0578125 14.23046875 -10.2421875 14.23046875 C-10.30033038 26.97850674 -10.30033038 26.97850674 -10.33984375 39.7265625 C-10.35181334 44.92370674 -10.36599442 50.12078072 -10.39306641 55.31787109 C-10.41474924 59.5064585 -10.42674646 63.69497059 -10.43194199 67.88360977 C-10.43564597 69.48405265 -10.44287863 71.08449126 -10.45364761 72.68490219 C-10.46810213 74.92137407 -10.47016801 77.15753212 -10.46923828 79.39404297 C-10.47590012 81.30598953 -10.47590012 81.30598953 -10.48269653 83.25656128 C-10.55581027 86.34871656 -10.55581027 86.34871656 -8.2421875 88.23046875 C-5.85738704 88.56178288 -5.85738704 88.56178288 -3.05810547 88.54931641 C-1.43665115 88.57912094 -1.43665115 88.57912094 0.21755981 88.60952759 C1.38842133 88.6210788 2.55928284 88.63263 3.765625 88.64453125 C4.96138153 88.6638974 6.15713806 88.68326355 7.38912964 88.70321655 C11.22028398 88.76314819 15.05146815 88.80945235 18.8828125 88.85546875 C21.47527375 88.89363599 24.06772216 88.93268696 26.66015625 88.97265625 C33.02592787 89.06886085 39.39177645 89.15386836 45.7578125 89.23046875 C45.7578125 88.57046875 45.7578125 87.91046875 45.7578125 87.23046875 C46.7478125 86.90046875 47.7378125 86.57046875 48.7578125 86.23046875 C47.7678125 88.21046875 47.7678125 88.21046875 46.7578125 90.23046875 C39.01735613 90.50027944 31.27645149 90.73018457 23.53393555 90.93237305 C20.90019941 91.00586134 18.26670165 91.08848397 15.63354492 91.18041992 C11.84840025 91.31099136 8.06361371 91.40868717 4.27734375 91.5 C3.10009232 91.54768021 1.92284088 91.59536041 0.70991516 91.64448547 C-7.2949999 91.79282568 -7.2949999 91.79282568 -11.48046875 89.30786133 C-13.92372268 85.03995448 -13.97086753 81.56837986 -13.94921875 76.72265625 C-13.96434006 75.80138947 -13.97946136 74.88012268 -13.99504089 73.93093872 C-14.03789743 70.98886915 -14.0467339 68.04781876 -14.0546875 65.10546875 C-14.07784693 63.14971189 -14.10321526 61.19397986 -14.13085938 59.23828125 C-14.19960874 53.90231196 -14.23001295 48.56684048 -14.2421875 43.23046875 C-14.24524902 41.97008789 -14.24831055 40.70970703 -14.25146484 39.41113281 C-14.25338219 37.01751619 -14.25182469 34.62406173 -14.2421875 32.23046875 C-14.9021875 32.23046875 -15.5621875 32.23046875 -16.2421875 32.23046875 C-16.21898437 32.98972656 -16.19578125 33.74898437 -16.171875 34.53125 C-16.14480469 36.02205078 -16.14480469 36.02205078 -16.1171875 37.54296875 C-16.09398437 38.52910156 -16.07078125 39.51523438 -16.046875 40.53125 C-16.2421875 43.23046875 -16.2421875 43.23046875 -18.2421875 46.23046875 C-18.61598517 49.3270426 -18.74741935 52.40087569 -18.8984375 55.515625 C-19.2421875 58.23046875 -19.2421875 58.23046875 -21.2421875 60.23046875 C-24.32018699 71.76726685 -24.81036599 84.40287704 -26.2421875 96.23046875 C-26.9021875 95.90046875 -27.5621875 95.57046875 -28.2421875 95.23046875 C-27.01357706 80.53882567 -25.19200684 65.90169252 -23.48632812 51.25952148 C-23.07119071 47.69018981 -22.66233567 44.1202209 -22.25878906 40.54956055 C-21.76837586 36.21092078 -21.26688273 31.87369539 -20.75751877 27.53724098 C-20.56627584 25.89311998 -20.37890791 24.24854324 -20.19557571 22.60352135 C-19.93868159 20.30550999 -19.66755728 18.00958977 -19.39306641 15.71362305 C-19.16775742 13.75817818 -19.16775742 13.75817818 -18.93789673 11.76322937 C-18.21409489 8.08781651 -17.2167381 5.40819396 -15.2421875 2.23046875 C-10.2578681 0.09274272 -5.35107757 -0.05317466 0 0 Z " fill="#EBAE54" transform="translate(258.2421875,63.76953125)"/>
<path d="M0 0 C9.9 0 19.8 0 30 0 C31.24310985 3.72932956 32.45517996 7.43485334 33.5859375 11.1953125 C34.01990845 12.63233521 34.01990845 12.63233521 34.46264648 14.09838867 C34.76372314 15.09717041 35.0647998 16.09595215 35.375 17.125 C37.57113405 24.4006589 39.80710049 31.63738923 42.37109375 38.79296875 C43 41 43 41 43 45 C28.81 45 14.62 45 0 45 C0 30.15 0 15.3 0 0 Z " fill="#53370B" transform="translate(258,93)"/>
<path d="M0 0 C4.32985334 3.21344516 6.43558466 6.45602396 8.1875 11.5 C8.620625 12.69625 9.05375 13.8925 9.5 15.125 C11.23522115 23.03510722 10.64555709 32.75655255 6.4921875 39.8203125 C2.90163995 44.44287371 -2.01668405 48.90647241 -7.9609375 49.8359375 C-13.44038267 49.93206812 -16.51024526 49.20194013 -20.8125 45.5 C-27.5402097 38.00340919 -30.38243895 30.10148221 -30.12109375 20.078125 C-29.12188059 11.73026819 -24.95426372 5.09614007 -18.8125 -0.5 C-12.87754099 -4.24839516 -5.82016005 -3.52853196 0 0 Z " fill="#4F3407" transform="translate(281.8125,193.5)"/>
<path d="M0 0 C6.51195921 3.84411745 10.458532 8.81417141 12.78515625 16.05078125 C13.21013828 18.85613827 13.2624893 21.59189908 13.22265625 24.42578125 C13.21580811 25.17384033 13.20895996 25.92189941 13.2019043 26.69262695 C12.94563575 35.51805512 9.92419885 41.7620059 3.78515625 48.05078125 C-0.04056258 51.32996882 -3.75882259 51.69092409 -8.65234375 51.5234375 C-13.98960457 50.53897323 -17.45400142 47.2686361 -20.75 43.1171875 C-25.74339833 35.64892703 -27.17954295 27.92363189 -26.21484375 19.05078125 C-24.25284882 11.06493162 -21.37498218 4.88723927 -14.46484375 0.17578125 C-9.47214884 -1.5524593 -4.96413524 -2.12748653 0 0 Z " fill="#4F3204" transform="translate(117.21484375,191.94921875)"/>
<path d="M0 0 C1.74740227 -0.00956978 1.74740227 -0.00956978 3.53010559 -0.01933289 C5.42692329 -0.02100212 5.42692329 -0.02100212 7.36206055 -0.02270508 C8.65693893 -0.02603348 9.95181732 -0.02936188 11.28593445 -0.03279114 C14.03063795 -0.03878405 16.77530995 -0.04063096 19.52001953 -0.04003906 C23.03053423 -0.03993763 26.54084581 -0.05356975 30.05131245 -0.07081127 C33.40489815 -0.08463439 36.75844673 -0.08402095 40.11206055 -0.08520508 C41.37053299 -0.09239059 42.62900543 -0.09957611 43.9256134 -0.10697937 C45.10000473 -0.10390274 46.27439606 -0.10082611 47.484375 -0.09765625 C49.03086479 -0.09979378 49.03086479 -0.09979378 50.6085968 -0.10197449 C53.64631798 0.16362839 55.7612306 0.67945205 58.4362793 2.14526367 C60.63888568 7.79542788 60.8472212 11.40492581 58.4362793 17.14526367 C54.99902889 19.43676395 53.71386087 19.40206585 49.66723633 19.41992188 C48.48235626 19.42945389 47.2974762 19.4389859 46.07669067 19.44880676 C44.15480423 19.44743965 44.15480423 19.44743965 42.1940918 19.44604492 C40.22060257 19.45247261 40.22060257 19.45247261 38.20724487 19.45903015 C35.4214068 19.46649126 32.63569544 19.46620241 29.84985352 19.4609375 C26.2865618 19.45514964 22.72379103 19.47205712 19.1605854 19.49528217 C15.75506598 19.5135947 12.34966017 19.50983342 8.9440918 19.50854492 C7.66688263 19.51775467 6.38967346 19.52696442 5.07376099 19.53645325 C3.8825766 19.53022446 2.69139221 19.52399567 1.46411133 19.51757812 C0.41836945 19.51820755 -0.62737244 19.51883698 -1.70480347 19.51948547 C-5.00262099 19.08781323 -6.88767808 18.08704381 -9.5637207 16.14526367 C-11.08348359 13.58449104 -11.54743976 11.11382286 -11.5637207 8.14526367 C-9.32417672 1.67409515 -6.56749655 0.02433775 0 0 Z " fill="#5A4019" transform="translate(30.563720703125,89.854736328125)"/>
<path d="M0 0 C1.06805878 -0.01283524 2.13611755 -0.02567047 3.23654175 -0.03889465 C4.97401169 -0.04997505 4.97401169 -0.04997505 6.74658203 -0.0612793 C8.52598679 -0.07338692 8.52598679 -0.07338692 10.34133911 -0.08573914 C12.85482314 -0.09958762 15.36832604 -0.11030634 17.88183594 -0.11816406 C21.73164303 -0.13539621 25.58059592 -0.17927942 29.43017578 -0.22338867 C31.86897153 -0.23351352 34.3077746 -0.24203027 36.74658203 -0.2487793 C37.90084686 -0.26628738 39.05511169 -0.28379547 40.24435425 -0.30183411 C41.31871735 -0.29890854 42.39308044 -0.29598297 43.5 -0.29296875 C44.44438934 -0.29883499 45.38877869 -0.30470123 46.36178589 -0.31074524 C49.62690681 0.32182073 50.80634122 1.63683308 52.87939453 4.17700195 C54.2941654 8.0656891 54.27228793 11.27334713 52.62939453 15.05200195 C50.60120891 17.51479878 48.98865778 19.04161288 45.74346924 19.43769836 C44.91852966 19.44230576 44.09359009 19.44691315 43.24365234 19.45166016 C42.30547668 19.46119217 41.36730103 19.47072418 40.4006958 19.48054504 C39.38819763 19.47963364 38.37569946 19.47872223 37.33251953 19.4777832 C36.28795593 19.48206833 35.24339233 19.48635345 34.16717529 19.49076843 C31.95471929 19.4965151 29.74224438 19.49700953 27.52978516 19.49267578 C24.15640638 19.48952717 20.78391412 19.51293192 17.41064453 19.53833008 C15.25960397 19.54060427 13.10856105 19.54130601 10.95751953 19.5402832 C9.95311829 19.54949295 8.94871704 19.5587027 7.91387939 19.56819153 C2.12827989 19.53028883 -2.01632724 18.9721405 -7.12060547 16.17700195 C-9.81286713 12.89946601 -9.41288111 9.26886095 -9.12060547 5.17700195 C-7.28202422 0.18656713 -5.02548464 0.0524735 0 0 Z " fill="#4F340A" transform="translate(48.12060546875,50.822998046875)"/>
<path d="M0 0 C1.24923248 -0.00563965 2.49846497 -0.0112793 3.78555298 -0.01708984 C5.17768917 -0.01320082 6.5698248 -0.00910445 7.96195984 -0.00482178 C9.42210566 -0.00753066 10.88225012 -0.01109102 12.34239197 -0.01544189 C16.31565693 -0.02458282 20.28881836 -0.02101403 24.2620852 -0.01468372 C28.41710714 -0.00962964 32.57212006 -0.01431379 36.72714233 -0.01745605 C43.70891413 -0.02109865 50.69064367 -0.01629021 57.67240906 -0.0067749 C65.74305883 0.00409745 73.81360746 0.00059414 81.88425475 -0.01042771 C88.81001472 -0.0195075 95.73574426 -0.02078209 102.66150826 -0.01555037 C106.79929173 -0.01243284 110.9370277 -0.01201514 115.07480812 -0.01862335 C118.96783801 -0.02440578 122.86073781 -0.02038349 126.75375366 -0.00883484 C128.18199129 -0.0061925 129.61023988 -0.00694608 131.03847313 -0.01136017 C132.9896747 -0.01683392 134.94090021 -0.00874938 136.89208984 0 C137.98366048 0.00075405 139.07523111 0.0015081 140.19987965 0.002285 C143.93720882 0.3225896 146.89112803 1.14387681 149.71855164 3.66412354 C150.12460632 4.20939697 150.53066101 4.75467041 150.94902039 5.31646729 C151.57743835 6.10730713 151.57743835 6.10730713 152.21855164 6.91412354 C154.76436873 13.40324881 152.85078842 21.97067116 152.03495789 28.75006104 C151.85952957 30.26031105 151.85952957 30.26031105 151.68055725 31.80107117 C151.29611182 35.09850745 150.90410939 38.39499141 150.51152039 41.69146729 C150.24069945 43.99172341 149.97019627 46.29201697 149.69999695 48.59234619 C149.13664754 53.37982257 148.56978421 58.16686713 148.0007782 62.95367432 C147.28437855 68.98880172 146.58075134 75.02533187 145.88191223 81.06251526 C145.34966808 85.65279873 144.81180676 90.24241218 144.27256775 94.83187866 C144.01630673 97.02050986 143.76201685 99.2093728 143.50975037 101.39846802 C143.15704173 104.45261346 142.79623654 107.50569886 142.43339539 110.55865479 C142.33150909 111.45636093 142.2296228 112.35406708 142.12464905 113.27897644 C141.57407904 117.83689422 140.79401485 121.93585073 139.13652039 126.25396729 C138.80652039 126.25396729 138.47652039 126.25396729 138.13652039 126.25396729 C138.2517122 123.27413705 138.37842841 120.29550937 138.51152039 117.31646729 C138.54245789 116.4856665 138.57339539 115.65486572 138.60527039 114.79888916 C138.79631127 110.70743022 139.14440238 106.85595416 140.11308289 102.87115479 C141.43585477 97.40525953 141.75603738 91.91449971 142.13652039 86.31646729 C142.91431811 74.91596921 142.91431811 74.91596921 144.07011414 69.58209229 C145.67933464 62.12583841 146.35332151 54.51427983 147.19902039 46.94146729 C147.45897505 44.63470156 147.72017992 42.32809412 147.98379517 40.02174377 C148.14638095 38.59735202 148.30679575 37.17271017 148.46466064 35.74778748 C148.86688642 32.20386643 149.433423 28.7481142 150.13652039 25.25396729 C150.38118361 22.42194833 150.41221223 19.59555727 150.44902039 16.75396729 C150.47802429 16.0076001 150.5070282 15.26123291 150.53691101 14.49224854 C150.54528992 13.76392822 150.55366882 13.03560791 150.56230164 12.28521729 C150.57688416 11.63101807 150.59146667 10.97681885 150.60649109 10.30279541 C149.88532937 7.15890496 148.37715093 5.54256677 146.13652039 3.25396729 C143.20853497 2.50302506 143.20853497 2.50302506 139.88499451 2.61473083 C138.60054443 2.59944336 137.31609436 2.58415588 135.99272156 2.56840515 C134.57157623 2.57665706 133.1504336 2.58538582 131.72929382 2.59454346 C130.23117233 2.58609051 128.73306184 2.57544652 127.23497009 2.56277466 C123.16906802 2.5345975 119.10369294 2.5371052 115.03772259 2.5450685 C110.78820681 2.54819071 106.53885972 2.52316765 102.28941345 2.50111389 C94.24300877 2.46363946 86.1967731 2.4515239 78.15028977 2.44848949 C68.98946751 2.44380234 59.82881495 2.41089008 50.66806746 2.37559164 C31.82423479 2.30361521 12.98048128 2.26713368 -5.86347961 2.25396729 C-5.86347961 3.90396729 -5.86347961 5.55396729 -5.86347961 7.25396729 C-4.92665344 7.19898071 -4.92665344 7.19898071 -3.97090149 7.1428833 C-1.10227588 6.99610777 1.76555925 6.90595653 4.63652039 6.81646729 C5.61878601 6.75781494 6.60105164 6.6991626 7.61308289 6.63873291 C13.02446326 6.51246737 16.42479253 6.8772958 20.66777039 10.40631104 C26.03006757 15.89159352 27.72377139 20.86870897 27.69902039 28.50396729 C27.69732849 29.25178467 27.6956366 29.99960205 27.69389343 30.77008057 C27.4821745 37.31708147 25.74975848 42.43058168 21.13652039 47.25396729 C18.17184182 49.23795188 15.65349939 50.60267488 12.13652039 51.25396729 C12.42527039 51.76959229 12.71402039 52.28521729 13.01152039 52.81646729 C16.4914294 60.35627015 17.7411525 68.75355308 15.37870789 76.85162354 C13.582546 81.08745412 11.50521143 85.07777287 8.13652039 88.25396729 C4.38652039 89.56646729 4.38652039 89.56646729 1.13652039 90.25396729 C1.13652039 91.24396729 1.13652039 92.23396729 1.13652039 93.25396729 C1.79652039 93.25396729 2.45652039 93.25396729 3.13652039 93.25396729 C5.8161725 101.58232605 7.26545942 111.66722565 3.51152039 119.87896729 C0.98133623 124.02666203 -2.50973203 127.07709349 -6.86347961 129.25396729 C-9.06784361 129.48347048 -11.27740134 129.66472662 -13.48847961 129.81646729 C-14.67699524 129.90025635 -15.86551086 129.98404541 -17.09004211 130.07037354 C-18.00527649 130.13095947 -18.92051086 130.19154541 -19.86347961 130.25396729 C-19.97304993 131.54045166 -20.08262024 132.82693604 -20.19551086 134.15240479 C-21.47882617 148.88707237 -23.1123825 163.56809951 -24.86347961 178.25396729 C-19.58347961 178.25396729 -14.30347961 178.25396729 -8.86347961 178.25396729 C-13.05128499 180.34786997 -14.97824251 180.49779439 -19.55097961 180.44146729 C-21.2892804 180.43179932 -21.2892804 180.43179932 -23.06269836 180.42193604 C-25.86347961 180.25396729 -25.86347961 180.25396729 -26.86347961 179.25396729 C-26.87928859 176.6929134 -26.80960772 174.18433974 -26.67597961 171.62896729 C-26.63408508 170.8202417 -26.59219055 170.01151611 -26.54902649 169.17828369 C-26.01778222 160.62056349 -24.95768939 152.1289617 -23.86347961 143.62896729 C-23.77394012 142.92536072 -23.68440063 142.22175415 -23.59214783 141.49682617 C-22.04504847 129.43553614 -22.04504847 129.43553614 -20.86347961 128.25396729 C-18.63774793 127.9562204 -16.40763291 127.69098338 -14.17597961 127.44146729 C-6.75937037 126.43610913 -6.75937037 126.43610913 -0.86347961 122.25396729 C3.00181157 115.98952985 3.85720517 109.49809194 3.13652039 102.25396729 C2.36961193 99.7092256 1.35613102 97.64628046 0.13652039 95.25396729 C-0.25535461 94.44959229 -0.64722961 93.64521729 -1.05097961 92.81646729 C-1.31910461 92.30084229 -1.58722961 91.78521729 -1.86347961 91.25396729 C0.2159116 88.94353261 1.69684778 87.41884451 4.63652039 86.31646729 C9.03269484 84.44809314 11.31138249 80.52783186 13.13652039 76.25396729 C14.56230377 68.7498442 14.39955972 63.14260587 11.13652039 56.25396729 C10.74464539 55.26396729 10.35277039 54.27396729 9.94902039 53.25396729 C9.68089539 52.59396729 9.41277039 51.93396729 9.13652039 51.25396729 C10.85177733 49.2678803 12.01951993 48.29707272 14.51152039 47.37896729 C18.57713532 45.63656089 21.2782073 42.97059345 23.25761414 39.01177979 C25.36675533 32.39376343 25.40728878 23.9886455 22.44902039 17.62896729 C20.61677478 14.2962407 18.38522615 12.2330639 15.13652039 10.25396729 C11.40664647 9.51059431 7.67906531 9.28339306 3.88652039 9.06646729 C1.8810712 8.93065522 -0.12415655 8.79151816 -2.12910461 8.64849854 C-3.01372375 8.59540527 -3.8983429 8.54231201 -4.80976868 8.48760986 C-6.86347961 8.25396729 -6.86347961 8.25396729 -7.86347961 7.25396729 C-8.05097961 4.81646729 -8.05097961 4.81646729 -7.86347961 2.25396729 C-5.16149971 -0.44801262 -3.78061287 0.00261434 0 0 Z " fill="#FEF0D3" transform="translate(82.86347961425781,31.74603271484375)"/>
<path d="M0 0 C0.77730469 0.00193359 1.55460937 0.00386719 2.35546875 0.00585938 C4.90496438 0.01574114 7.45117881 0.0672047 10 0.125 C11.2375 0.12089111 11.2375 0.12089111 12.5 0.11669922 C14.81447043 0.19330895 16.78156974 0.33184238 19 1 C21.71232806 4.06756363 22.8481519 5.9587559 23.4375 10 C22.91216502 13.60229702 22.03878987 15.97696674 20 19 C14.33370118 20.72853026 8.24476331 20.00561537 2.39746094 19.81298828 C0.37444836 19.74998282 -1.64830684 19.70869527 -3.671875 19.66796875 C-4.94804688 19.62800781 -6.22421875 19.58804688 -7.5390625 19.546875 C-9.29017334 19.49805176 -9.29017334 19.49805176 -11.07666016 19.44824219 C-14 19 -14 19 -15.86523438 17.59399414 C-18.1033637 14.45011583 -18.11531714 10.76062018 -18 7 C-16.75 3.5 -16.75 3.5 -15 1 C-10.08863726 -0.63712091 -5.13823404 -0.10529168 0 0 Z " fill="#4E340A" transform="translate(57,129)"/>
<path d="M0 0 C19.73188759 -0.14013627 39.46367427 -0.24595435 59.19595623 -0.31087303 C68.35793882 -0.34181662 77.5196123 -0.38400651 86.68139648 -0.45263672 C94.66644919 -0.51242363 102.65127804 -0.5511455 110.63654834 -0.56453097 C114.86517057 -0.57235607 119.0931524 -0.59075626 123.32156944 -0.63438034 C127.3017655 -0.67511081 131.28105751 -0.6876686 135.26144218 -0.67864609 C136.72198144 -0.68029659 138.18255096 -0.69223028 139.64291 -0.71523285 C150.62262747 -0.87969251 150.62262747 -0.87969251 153.98037148 1.26481247 C158.27550433 6.12434178 157.65890656 11.57126442 157.43359375 17.62890625 C156.74843017 27.73943621 155.03451864 37.76190406 153.48730469 47.76806641 C152.83608239 52.08714494 152.27427043 56.41390978 151.75 60.75 C151.60046875 61.98234375 151.4509375 63.2146875 151.296875 64.484375 C151.14992187 65.72960937 151.14992187 65.72960937 151 67 C150.67 67 150.34 67 150 67 C149.70201318 55.74985133 149.45980513 45.09920448 152.265625 34.140625 C153.43322684 29.14726393 153.72860134 24.10978164 154 19 C154.66 19 155.32 19 156 19 C156 15.04 156 11.08 156 7 C155.01 7 154.02 7 153 7 C152.01 5.515 152.01 5.515 151 4 C144.89825686 2.56757046 138.60983462 2.86567914 132.37329102 2.88647461 C131.2213475 2.88632858 130.06940399 2.88618256 128.8825531 2.8860321 C125.08965141 2.88672662 121.29679933 2.89449744 117.50390625 2.90234375 C114.86832201 2.90420957 112.23273742 2.9056327 109.59715271 2.90663147 C103.37833348 2.90973253 97.15953195 2.91792933 90.9407205 2.92798096 C83.85726131 2.93918024 76.77380124 2.94466214 69.69033539 2.94967639 C55.12688116 2.96011302 40.56344083 2.97768863 26 3 C25.67 3.66 25.34 4.32 25 5 C25.66 5 26.32 5 27 5 C27.66 6.65 28.32 8.3 29 10 C30.65 10 32.3 10 34 10 C33.67 12.64 33.34 15.28 33 18 C32.608125 17.46375 32.21625 16.9275 31.8125 16.375 C26.95596919 9.2620538 26.95596919 9.2620538 19.63989258 5.68115234 C18.73392334 5.64973145 17.8279541 5.61831055 16.89453125 5.5859375 C15.91162109 5.54726563 14.92871094 5.50859375 13.91601562 5.46875 C12.37977539 5.42234375 12.37977539 5.42234375 10.8125 5.375 C9.77673828 5.33632813 8.74097656 5.29765625 7.67382812 5.2578125 C5.11606378 5.16351704 2.55830713 5.07791798 0 5 C0 3.35 0 1.7 0 0 Z " fill="#EAAC4D" transform="translate(77,34)"/>
<path d="M0 0 C19.58415554 -0.18690761 39.16813004 -0.32796753 58.75299263 -0.41449738 C67.84669947 -0.45574337 76.93985205 -0.51197187 86.03320312 -0.60351562 C93.95930344 -0.68327048 101.88500237 -0.73486954 109.8114928 -0.75270796 C114.00851244 -0.76313537 118.20438385 -0.78762559 122.40103531 -0.84584045 C126.35269569 -0.90021189 130.30273704 -0.91688005 134.25473595 -0.90486145 C135.70360686 -0.90705942 137.1525328 -0.9229365 138.60107994 -0.9536438 C149.4649151 -1.17261424 149.4649151 -1.17261424 153.2115345 1.68933773 C156.54008582 5.86774541 157.66374841 9.3092423 157.27813721 14.63088989 C157.14045929 15.8035994 157.14045929 15.8035994 157 17 C156.92900085 17.80799042 156.85800171 18.61598083 156.78485107 19.44845581 C156.53166861 22.13727412 156.22110959 24.81475266 155.8984375 27.49609375 C155.72300919 29.00634377 155.72300919 29.00634377 155.54403687 30.54710388 C155.15959143 33.84454017 154.76758901 37.14102413 154.375 40.4375 C154.10417906 42.73775612 153.83367589 45.03804968 153.56347656 47.33837891 C153.00012716 52.12585529 152.43326382 56.91289984 151.86425781 61.69970703 C151.14785816 67.73483444 150.44423095 73.77136459 149.74539185 79.80854797 C149.2131477 84.39883144 148.67528637 88.98844489 148.13604736 93.57791138 C147.87978634 95.76654258 147.62549646 97.95540552 147.37322998 100.14450073 C147.02052135 103.19864617 146.65971616 106.25173157 146.296875 109.3046875 C146.19498871 110.20239365 146.09310242 111.10009979 145.98812866 112.02500916 C145.43755866 116.58292694 144.65749447 120.68188344 143 125 C142.67 125 142.34 125 142 125 C142.11519181 122.02016976 142.24190802 119.04154208 142.375 116.0625 C142.4059375 115.23169922 142.436875 114.40089844 142.46875 113.54492188 C142.65979088 109.45346294 143.00788199 105.60198687 143.9765625 101.6171875 C145.29933438 96.15129224 145.61951699 90.66053242 146 85.0625 C146.77779772 73.66200192 146.77779772 73.66200192 147.93359375 68.328125 C149.54281426 60.87187113 150.21680113 53.26031255 151.0625 45.6875 C151.32245466 43.38073427 151.58365954 41.07412684 151.84727478 38.76777649 C152.00986056 37.34338474 152.17027537 35.91874288 152.32814026 34.49382019 C152.73036603 30.94989915 153.29690261 27.49414692 154 24 C154.24466322 21.16798104 154.27569184 18.34158999 154.3125 15.5 C154.34150391 14.75363281 154.37050781 14.00726563 154.40039062 13.23828125 C154.40876953 12.50996094 154.41714844 11.78164063 154.42578125 11.03125 C154.44036377 10.37705078 154.45494629 9.72285156 154.4699707 9.04882812 C153.74949399 5.90792394 152.23582742 4.28829219 150 2 C147.10571937 1.24940556 147.10571937 1.24940556 143.82440186 1.36076355 C142.55678009 1.34547607 141.28915833 1.3301886 139.98312378 1.31443787 C138.58086879 1.32268974 137.17861655 1.3314185 135.77636719 1.34057617 C134.2979497 1.3321231 132.81954335 1.32147904 131.34115601 1.30880737 C127.32896917 1.28063184 123.31731641 1.28313761 119.30506039 1.29110122 C115.11159799 1.29422357 110.91830651 1.26919996 106.72491455 1.24714661 C98.78475737 1.20967316 90.84477146 1.19755667 82.90453458 1.1945222 C73.86462792 1.18983494 64.82489321 1.15692234 55.78506231 1.12162435 C37.19005811 1.04964921 18.59513413 1.0131666 0 1 C0 0.67 0 0.34 0 0 Z " fill="#F8E3BD" transform="translate(79,33)"/>
<path d="M0 0 C3.88104655 3.88104655 4.87901719 9.93758472 6.5625 15.0625 C6.97435547 16.24650391 7.38621094 17.43050781 7.81054688 18.65039062 C10.95161985 28.21755396 11.83957006 36.99447879 12 47 C12.02439651 48.16231644 12.02439651 48.16231644 12.04928589 49.34811401 C12.14711094 54.22193555 12.18578754 59.09375121 12.18530273 63.96850586 C12.18752028 66.46029002 12.20586741 68.95165101 12.22460938 71.44335938 C12.30513066 93.4680503 12.30513066 93.4680503 5.6953125 101.37109375 C1.16447107 105.72445983 -3.90035988 106.33659929 -9.88671875 106.49609375 C-12.9613977 105.77431144 -14.0615158 104.47156736 -16 102 C-17.23828125 98.86328125 -17.23828125 98.86328125 -18.3125 95.3125 C-21.31420963 86.4274395 -26.2506178 80.34032873 -33 74 C-27.72282292 74.60890505 -24.18431337 78.68033653 -20.8125 82.4375 C-18.87894849 85.17114178 -17.49478174 88.01043653 -16 91 C-15.34 91.33 -14.68 91.66 -14 92 C-13.39616453 95.65149561 -13.25493084 99.30350275 -13 103 C-6.565 102.01 -6.565 102.01 0 101 C0.495 99.02 0.495 99.02 1 97 C1.99 97 2.98 97 4 97 C4.495 95.515 4.495 95.515 5 94 C5.33 93.34 5.66 92.68 6 92 C6.99 92 7.98 92 9 92 C9.04658928 84.61047479 9.08200308 77.22098189 9.10362434 69.83133888 C9.1140078 66.39906201 9.12806596 62.96688652 9.15087891 59.53466797 C9.17701074 55.57781234 9.18651771 51.62099603 9.1953125 47.6640625 C9.21079636 45.83846298 9.21079636 45.83846298 9.22659302 43.97598267 C9.22782985 34.474752 8.13138548 26.13632387 4.5 17.3125 C0 6.02931416 0 6.02931416 0 0 Z " fill="#FDEECF" transform="translate(315,106)"/>
<path d="M0 0 C0.76780792 0.00045822 1.53561584 0.00091644 2.32669067 0.00138855 C3.94193071 0.00439276 5.55716832 0.01222369 7.17236328 0.0246582 C9.61892196 0.04286538 12.06509945 0.04516777 14.51171875 0.04492188 C16.09114904 0.0498405 17.67057681 0.05567032 19.25 0.0625 C19.9690451 0.06361282 20.68809021 0.06472565 21.42892456 0.06587219 C37.24817 0.21057225 37.24817 0.21057225 42.7578125 5.23046875 C45.07201328 8.40988874 47.20455894 11.61023964 48.7578125 15.23046875 C48.4278125 16.22046875 48.0978125 17.21046875 47.7578125 18.23046875 C47.2215625 17.38484375 46.6853125 16.53921875 46.1328125 15.66796875 C42.94776775 10.89606896 39.55379392 6.4277897 34.7578125 3.23046875 C32.51608247 2.94124425 32.51608247 2.94124425 30.01098633 3.00341797 C29.05021683 3.00356903 28.08944733 3.00372009 27.0995636 3.00387573 C26.06510605 3.0141983 25.0306485 3.02452087 23.96484375 3.03515625 C22.90367844 3.03798615 21.84251312 3.04081604 20.74919128 3.04373169 C17.35611753 3.05493691 13.96330663 3.08004228 10.5703125 3.10546875 C8.27148818 3.1154981 5.97265974 3.12462403 3.67382812 3.1328125 C-1.96493361 3.15487734 -7.60354178 3.18835831 -13.2421875 3.23046875 C-15.19488796 9.23785116 -15.97545047 15.1646442 -16.6796875 21.4296875 C-16.86809204 23.0368438 -16.86809204 23.0368438 -17.06030273 24.6764679 C-17.45973556 28.08969149 -17.85149321 31.50373477 -18.2421875 34.91796875 C-18.63386756 38.31422174 -19.02728994 41.71025045 -19.42407227 45.10591125 C-19.66994171 47.21262717 -19.91282942 49.31969418 -20.15209961 51.4271698 C-20.85869098 57.51183545 -21.75849568 63.53664653 -22.79388428 69.57392883 C-23.30326746 72.59241426 -23.72238522 75.61390461 -24.09375 78.65234375 C-24.28710938 80.21855469 -24.28710938 80.21855469 -24.484375 81.81640625 C-24.67386719 83.38261719 -24.67386719 83.38261719 -24.8671875 84.98046875 C-25.00125 86.07101563 -25.1353125 87.1615625 -25.2734375 88.28515625 C-25.59865081 90.93332174 -25.92153927 93.58174733 -26.2421875 96.23046875 C-26.9021875 95.90046875 -27.5621875 95.57046875 -28.2421875 95.23046875 C-27.01357706 80.53882567 -25.19200684 65.90169252 -23.48632812 51.25952148 C-23.07119071 47.69018981 -22.66233567 44.1202209 -22.25878906 40.54956055 C-21.76837586 36.21092078 -21.26688273 31.87369539 -20.75751877 27.53724098 C-20.56627584 25.89311998 -20.37890791 24.24854324 -20.19557571 22.60352135 C-19.93868159 20.30550999 -19.66755728 18.00958977 -19.39306641 15.71362305 C-19.16775742 13.75817818 -19.16775742 13.75817818 -18.93789673 11.76322937 C-18.21409489 8.08781651 -17.2167381 5.40819396 -15.2421875 2.23046875 C-10.2578681 0.09274272 -5.35107757 -0.05317466 0 0 Z " fill="#FDF1CF" transform="translate(258.2421875,63.76953125)"/>
<path d="M0 0 C2.31 0.66 4.62 1.32 7 2 C7.59526991 25.91000802 7.59526991 25.91000802 3 34 C1.02 34 -0.96 34 -3 34 C-6.73903849 27.26675141 -4.95448972 19.9730955 -3.625 12.75 C-3.49907471 12.06454102 -3.37314941 11.37908203 -3.2434082 10.67285156 C-2.50929719 6.9240828 -1.55578808 3.49037673 0 0 Z " fill="#0B0A08" transform="translate(223,156)"/>
<path d="M0 0 C1.06805878 -0.01283524 2.13611755 -0.02567047 3.23654175 -0.03889465 C4.97401169 -0.04997505 4.97401169 -0.04997505 6.74658203 -0.0612793 C8.52598679 -0.07338692 8.52598679 -0.07338692 10.34133911 -0.08573914 C12.85482314 -0.09958762 15.36832604 -0.11030634 17.88183594 -0.11816406 C21.73164303 -0.13539621 25.58059592 -0.17927942 29.43017578 -0.22338867 C31.86897153 -0.23351352 34.3077746 -0.24203027 36.74658203 -0.2487793 C37.90084686 -0.26628738 39.05511169 -0.28379547 40.24435425 -0.30183411 C41.31871735 -0.29890854 42.39308044 -0.29598297 43.5 -0.29296875 C44.44438934 -0.29883499 45.38877869 -0.30470123 46.36178589 -0.31074524 C49.62690681 0.32182073 50.80634122 1.63683308 52.87939453 4.17700195 C54.2941654 8.0656891 54.27228793 11.27334713 52.62939453 15.05200195 C50.60120891 17.51479878 48.98865778 19.04161288 45.74346924 19.43769836 C44.91852966 19.44230576 44.09359009 19.44691315 43.24365234 19.45166016 C42.30547668 19.46119217 41.36730103 19.47072418 40.4006958 19.48054504 C39.38819763 19.47963364 38.37569946 19.47872223 37.33251953 19.4777832 C36.28795593 19.48206833 35.24339233 19.48635345 34.16717529 19.49076843 C31.95471929 19.4965151 29.74224438 19.49700953 27.52978516 19.49267578 C24.15640638 19.48952717 20.78391412 19.51293192 17.41064453 19.53833008 C15.25960397 19.54060427 13.10856105 19.54130601 10.95751953 19.5402832 C9.95311829 19.54949295 8.94871704 19.5587027 7.91387939 19.56819153 C2.12827989 19.53028883 -2.01632724 18.9721405 -7.12060547 16.17700195 C-9.81286713 12.89946601 -9.41288111 9.26886095 -9.12060547 5.17700195 C-7.28202422 0.18656713 -5.02548464 0.0524735 0 0 Z M-7.12060547 4.17700195 C-7.47700108 6.28118164 -7.47700108 6.28118164 -7.43310547 8.61450195 C-7.44986328 9.39696289 -7.46662109 10.17942383 -7.48388672 10.9855957 C-7.02398864 13.7598196 -6.33329709 14.47227183 -4.12060547 16.17700195 C-1.69642102 16.63170501 -1.69642102 16.63170501 1.0534668 16.56518555 C2.63509361 16.57937027 2.63509361 16.57937027 4.24867249 16.59384155 C5.38622482 16.58776886 6.52377716 16.58169617 7.69580078 16.57543945 C9.44690407 16.57974472 9.44690407 16.57974472 11.23338318 16.58413696 C13.70222458 16.58617947 16.17108209 16.58063667 18.63989258 16.56811523 C22.43037874 16.55205076 26.21980083 16.56796604 30.01025391 16.5871582 C32.40543856 16.58517609 34.80062256 16.58133307 37.19580078 16.57543945 C38.90516563 16.58454849 38.90516563 16.58454849 40.64906311 16.59384155 C42.22596169 16.57965683 42.22596169 16.57965683 43.8347168 16.56518555 C44.76276627 16.56279877 45.69081573 16.56041199 46.64698792 16.55795288 C47.3836821 16.43223907 48.12037628 16.30652527 48.87939453 16.17700195 C51.07338309 12.88601911 51.09443117 12.32867614 50.62939453 8.61450195 C50.54173828 7.82946289 50.45408203 7.04442383 50.36376953 6.2355957 C50.02065727 3.96736162 50.02065727 3.96736162 47.87939453 2.17700195 C45.54860025 1.87068123 45.54860025 1.87068123 42.81884766 1.91821289 C41.76435425 1.91190857 40.70986084 1.90560425 39.62341309 1.89910889 C37.90934265 1.90518158 37.90934265 1.90518158 36.16064453 1.91137695 C34.99182739 1.9094635 33.82301025 1.90755005 32.61877441 1.90557861 C30.1439594 1.90421569 27.66913727 1.90791954 25.19433594 1.91625977 C21.39518248 1.9269575 17.59650194 1.91636777 13.79736328 1.90356445 C11.39762265 1.90488603 8.99788231 1.90744838 6.59814453 1.91137695 C5.45543091 1.90732849 4.31271729 1.90328003 3.13537598 1.89910889 C1.55363586 1.90856537 1.55363586 1.90856537 -0.06005859 1.91821289 C-0.99112427 1.91980408 -1.92218994 1.92139526 -2.88146973 1.92303467 C-5.3234301 1.96455233 -5.3234301 1.96455233 -7.12060547 4.17700195 Z " fill="#D0C6B3" transform="translate(48.12060546875,50.822998046875)"/>
<path d="M0 0 C1.74740227 -0.00956978 1.74740227 -0.00956978 3.53010559 -0.01933289 C5.42692329 -0.02100212 5.42692329 -0.02100212 7.36206055 -0.02270508 C8.65693893 -0.02603348 9.95181732 -0.02936188 11.28593445 -0.03279114 C14.03063795 -0.03878405 16.77530995 -0.04063096 19.52001953 -0.04003906 C23.03053423 -0.03993763 26.54084581 -0.05356975 30.05131245 -0.07081127 C33.40489815 -0.08463439 36.75844673 -0.08402095 40.11206055 -0.08520508 C41.37053299 -0.09239059 42.62900543 -0.09957611 43.9256134 -0.10697937 C45.10000473 -0.10390274 46.27439606 -0.10082611 47.484375 -0.09765625 C49.03086479 -0.09979378 49.03086479 -0.09979378 50.6085968 -0.10197449 C53.64631798 0.16362839 55.7612306 0.67945205 58.4362793 2.14526367 C60.63888568 7.79542788 60.8472212 11.40492581 58.4362793 17.14526367 C54.99902889 19.43676395 53.71386087 19.40206585 49.66723633 19.41992188 C48.48235626 19.42945389 47.2974762 19.4389859 46.07669067 19.44880676 C44.15480423 19.44743965 44.15480423 19.44743965 42.1940918 19.44604492 C40.22060257 19.45247261 40.22060257 19.45247261 38.20724487 19.45903015 C35.4214068 19.46649126 32.63569544 19.46620241 29.84985352 19.4609375 C26.2865618 19.45514964 22.72379103 19.47205712 19.1605854 19.49528217 C15.75506598 19.5135947 12.34966017 19.50983342 8.9440918 19.50854492 C7.66688263 19.51775467 6.38967346 19.52696442 5.07376099 19.53645325 C3.8825766 19.53022446 2.69139221 19.52399567 1.46411133 19.51757812 C0.41836945 19.51820755 -0.62737244 19.51883698 -1.70480347 19.51948547 C-5.00262099 19.08781323 -6.88767808 18.08704381 -9.5637207 16.14526367 C-11.08348359 13.58449104 -11.54743976 11.11382286 -11.5637207 8.14526367 C-9.32417672 1.67409515 -6.56749655 0.02433775 0 0 Z M-7.4251709 4.0345459 C-8.81259387 6.60664096 -8.75408358 7.90790498 -8.3137207 10.77026367 C-8.20543945 11.5462793 -8.0971582 12.32229492 -7.9855957 13.12182617 C-7.64171647 15.20197386 -7.64171647 15.20197386 -6.5637207 17.14526367 C1.61588484 17.21469444 9.79536781 17.26803933 17.97519493 17.30070019 C21.77320113 17.31637373 25.57100611 17.33764227 29.36889648 17.37158203 C33.03230397 17.40411608 36.69551761 17.42210396 40.35905838 17.4298954 C41.75856199 17.4354497 43.15805469 17.44629566 44.55747604 17.46245384 C46.51355441 17.48414641 48.46982677 17.48548837 50.42602539 17.48583984 C52.0981459 17.4958326 52.0981459 17.4958326 53.80404663 17.50602722 C54.67268341 17.38697525 55.54132019 17.26792328 56.4362793 17.14526367 C58.83983856 13.53992477 59.18713198 10.35165342 58.4362793 6.14526367 C57.34586575 3.94955633 57.34586575 3.94955633 55.4362793 2.14526367 C52.70088283 1.53737264 52.70088283 1.53737264 49.54370117 1.62768555 C48.33234497 1.6150769 47.12098877 1.60246826 45.8729248 1.58947754 C44.56351929 1.59757446 43.25411377 1.60567139 41.9050293 1.61401367 C40.54886598 1.61131899 39.19270455 1.60743676 37.83654785 1.60241699 C34.99509272 1.59652063 32.15414076 1.60508833 29.31274414 1.6237793 C25.67058006 1.64657017 22.02959488 1.63344765 18.38747406 1.60948944 C15.58729165 1.59503446 12.78738871 1.59963579 9.98719788 1.61000061 C7.9913354 1.61396637 5.99546205 1.60181907 3.99963379 1.58947754 C2.18259949 1.6083905 2.18259949 1.6083905 0.32885742 1.62768555 C-0.73909058 1.63086792 -1.80703857 1.63405029 -2.90734863 1.6373291 C-5.68154055 1.90719928 -5.68154055 1.90719928 -7.4251709 4.0345459 Z " fill="#EEE8DE" transform="translate(30.563720703125,89.854736328125)"/>
<path d="M0 0 C2.0625 0.4375 2.0625 0.4375 4 1 C3.566875 1.495 3.13375 1.99 2.6875 2.5 C0.80868939 5.28342313 -0.19857111 7.96728032 -1.30859375 11.1171875 C-2 13 -2 13 -3.125 15.125 C-4.37202516 17.57852188 -4.37202516 17.57852188 -5 23 C-38.99 23 -72.98 23 -108 23 C-108.33 20.03 -108.66 17.06 -109 14 C-108.01 14 -107.02 14 -106 14 C-106 15.98 -106 17.96 -106 20 C-73.33 20 -40.66 20 -7 20 C-7 17.69 -7 15.38 -7 13 C-6.34 13 -5.68 13 -5 13 C-5 12.01 -5 11.02 -5 10 C-4.34 10 -3.68 10 -3 10 C-2.86722656 9.36191406 -2.73445313 8.72382813 -2.59765625 8.06640625 C-2.42105469 7.24011719 -2.24445313 6.41382813 -2.0625 5.5625 C-1.88847656 4.73878906 -1.71445313 3.91507813 -1.53515625 3.06640625 C-1 1 -1 1 0 0 Z " fill="#C7974D" transform="translate(248,187)"/>
<path d="M0 0 C19.76650248 -0.07002528 39.53297985 -0.12295634 59.29958057 -0.15543652 C68.47718765 -0.17091726 77.65471773 -0.19202979 86.83227539 -0.22631836 C94.82975921 -0.25618382 102.82718729 -0.27556621 110.82472533 -0.28226548 C115.06089692 -0.2861826 119.296909 -0.29541328 123.53302956 -0.31719017 C127.51796514 -0.33751034 131.50267508 -0.34384293 135.48765755 -0.33932304 C136.95222448 -0.34015026 138.41679874 -0.3461426 139.88132095 -0.35761642 C141.87706838 -0.37248882 143.87293611 -0.36717832 145.86872864 -0.36076355 C146.98686353 -0.36352893 148.10499842 -0.36629431 149.25701618 -0.36914349 C152 0 152 0 153.88320446 1.52254772 C154.43601825 2.2538866 154.43601825 2.2538866 155 3 C154.67 3.66 154.34 4.32 154 5 C153.01 4.01 153.01 4.01 152 3 C148.29926232 1.98636529 144.75486965 1.86511254 140.93193054 1.84178162 C139.10416328 1.82709839 139.10416328 1.82709839 137.23947144 1.81211853 C135.89752236 1.8062152 134.55557288 1.8004047 133.21362305 1.79467773 C131.79418151 1.78509291 130.37474278 1.77508248 128.95530701 1.76467896 C125.1086364 1.73768926 121.2619536 1.71664764 117.415241 1.69667697 C113.392675 1.67478072 109.37014633 1.64740986 105.34761047 1.62062073 C97.73336447 1.57074299 90.11909768 1.52578595 82.50481111 1.48259836 C73.83494431 1.43318391 65.16511498 1.3782814 56.49528444 1.32291877 C38.66355776 1.20917426 20.83179571 1.10231886 3 1 C3 1.66 3 2.32 3 3 C4.25296875 2.95359375 5.5059375 2.9071875 6.796875 2.859375 C8.44789281 2.82185187 10.09893642 2.78545229 11.75 2.75 C12.9875 2.69972656 12.9875 2.69972656 14.25 2.6484375 C20.42297754 2.54887335 20.42297754 2.54887335 23.578125 5.015625 C24.04734375 5.67046875 24.5165625 6.3253125 25 7 C24.01 6.67 23.02 6.34 22 6 C20.30132812 5.85222064 18.59822511 5.75252934 16.89453125 5.68359375 C15.91162109 5.64169922 14.92871094 5.59980469 13.91601562 5.55664062 C12.89185547 5.51732422 11.86769531 5.47800781 10.8125 5.4375 C9.77673828 5.39431641 8.74097656 5.35113281 7.67382812 5.30664062 C5.1160181 5.20055634 2.55811155 5.09849854 0 5 C0 3.35 0 1.7 0 0 Z " fill="#ECBE74" transform="translate(77,34)"/>
<path d="M0 0 C0.77730469 0.00193359 1.55460937 0.00386719 2.35546875 0.00585938 C4.90496438 0.01574114 7.45117881 0.0672047 10 0.125 C11.2375 0.12089111 11.2375 0.12089111 12.5 0.11669922 C14.81447043 0.19330895 16.78156974 0.33184238 19 1 C21.71232806 4.06756363 22.8481519 5.9587559 23.4375 10 C22.91216502 13.60229702 22.03878987 15.97696674 20 19 C14.33370118 20.72853026 8.24476331 20.00561537 2.39746094 19.81298828 C0.37444836 19.74998282 -1.64830684 19.70869527 -3.671875 19.66796875 C-4.94804688 19.62800781 -6.22421875 19.58804688 -7.5390625 19.546875 C-9.29017334 19.49805176 -9.29017334 19.49805176 -11.07666016 19.44824219 C-14 19 -14 19 -15.86523438 17.59399414 C-18.1033637 14.45011583 -18.11531714 10.76062018 -18 7 C-16.75 3.5 -16.75 3.5 -15 1 C-10.08863726 -0.63712091 -5.13823404 -0.10529168 0 0 Z M-13.89672852 4.27880859 C-15.45854149 6.71536125 -15.41415596 9.12979628 -15.49609375 11.96484375 C-14.76625585 14.95890317 -13.38209928 16.07776355 -11 18 C-6.37457328 18.85811429 -1.69623045 18.64857545 3 18.625 C4.92585938 18.67333984 4.92585938 18.67333984 6.890625 18.72265625 C13.15811577 18.97900808 13.15811577 18.97900808 18.77001953 16.73217773 C20.67745807 14.03757555 21.00320345 12.08168794 20.875 8.8125 C20.09379382 5.8346654 20.09379382 5.8346654 18 3 C14.94532482 2.53185948 14.94532482 2.53185948 11.34765625 2.6015625 C10.69171982 2.59869232 10.03578339 2.59582214 9.35997009 2.59286499 C7.97214902 2.59082297 6.58429926 2.59636262 5.1965332 2.60888672 C3.07372445 2.62491525 0.95282683 2.6090586 -1.16992188 2.58984375 C-2.51823337 2.59182666 -3.86654367 2.59567134 -5.21484375 2.6015625 C-6.44323975 2.60494629 -7.67163574 2.60833008 -8.93725586 2.61181641 C-11.95160285 2.7602963 -11.95160285 2.7602963 -13.89672852 4.27880859 Z " fill="#D6CEC0" transform="translate(57,129)"/>
<path d="M0 0 C5.76573685 -0.09891077 11.5309794 -0.17148845 17.29736328 -0.21972656 C19.25871381 -0.23983632 21.22000444 -0.26712818 23.18115234 -0.30175781 C26.00112695 -0.35030421 28.82030865 -0.37297486 31.640625 -0.390625 C32.95489471 -0.42159271 32.95489471 -0.42159271 34.29571533 -0.45318604 C40.39160937 -0.45543053 40.39160937 -0.45543053 43.5402832 1.90161133 C45.80905174 5.16303725 46.2108512 8.07192022 46 12 C44.42569236 15.62090756 43.31117074 16.79255284 40 19 C38.04475403 19.20254517 38.04475403 19.20254517 35.80395508 19.13525391 C34.54298759 19.10499619 34.54298759 19.10499619 33.25654602 19.0741272 C32.35333115 19.04193085 31.45011627 19.0097345 30.51953125 18.9765625 C29.59154221 18.95153656 28.66355316 18.92651062 27.70744324 18.90072632 C24.74209076 18.8185231 21.77740396 18.72193463 18.8125 18.625 C16.80276161 18.56676078 14.79299586 18.50945749 12.78320312 18.453125 C7.85508555 18.3129437 2.92751693 18.15985918 -2 18 C-2 17.67 -2 17.34 -2 17 C-0.73816895 16.98541748 0.52366211 16.97083496 1.82373047 16.95581055 C6.49426979 16.89794671 11.16432092 16.82071383 15.83447266 16.73754883 C17.85782971 16.70424321 19.88128093 16.676229 21.90478516 16.65356445 C24.80932852 16.62012165 27.71300442 16.56781231 30.6171875 16.51171875 C31.52556366 16.50532883 32.43393982 16.4989389 33.36984253 16.49235535 C34.21056305 16.47256119 35.05128357 16.45276703 35.91748047 16.43237305 C36.65916473 16.42126999 37.400849 16.41016693 38.16500854 16.39872742 C40.41361836 16.13280747 40.41361836 16.13280747 42 13 C42.06310722 10.80540133 42.06310722 10.80540133 41.6875 8.5 C41.53861328 7.33984375 41.53861328 7.33984375 41.38671875 6.15625 C41.02241751 3.82760379 41.02241751 3.82760379 40 1 C26.8 1 13.6 1 0 1 C0 0.67 0 0.34 0 0 Z " fill="#F6EBE1" transform="translate(56,51)"/>
<path d="M0 0 C5.27717708 0.60890505 8.81568663 4.68033653 12.1875 8.4375 C14.12105151 11.17114178 15.50521826 14.01043653 17 17 C17.66 17.33 18.32 17.66 19 18 C19.60383547 21.65149561 19.74506916 25.30350275 20 29 C24.29 28.34 28.58 27.68 33 27 C33.33 25.68 33.66 24.36 34 23 C34.99 23 35.98 23 37 23 C37.495 21.515 37.495 21.515 38 20 C38.33 19.34 38.66 18.68 39 18 C39.66 18 40.32 18 41 18 C41 22 41 22 39.609375 23.6328125 C38.99578125 24.12523437 38.3821875 24.61765625 37.75 25.125 C37.14671875 25.62257812 36.5434375 26.12015625 35.921875 26.6328125 C31.71805932 29.62333179 28.96100598 30.23828274 23.75 30.125 C22.67234375 30.10695312 21.5946875 30.08890625 20.484375 30.0703125 C19.66453125 30.04710937 18.8446875 30.02390625 18 30 C17.64808594 28.94941406 17.29617188 27.89882812 16.93359375 26.81640625 C14.04409439 18.48913296 11.16120129 11.50508229 5 5 C4.23042969 4.18402344 4.23042969 4.18402344 3.4453125 3.3515625 C2.32512049 2.20605542 1.16775396 1.09698099 0 0 Z " fill="#E5AA4B" transform="translate(282,180)"/>
<path d="M0 0 C5.57142857 5.14285714 5.57142857 5.14285714 6 9 C6.66 9 7.32 9 8 9 C9.20502099 12.24377174 10.38588782 15.49582689 11.5625 18.75 C11.90474609 19.67039062 12.24699219 20.59078125 12.59960938 21.5390625 C12.91865234 22.42851563 13.23769531 23.31796875 13.56640625 24.234375 C13.86490479 25.05131836 14.16340332 25.86826172 14.47094727 26.70996094 C15.04922939 29.21309263 14.83176958 30.59871738 14 33 C13.40251953 31.49759766 13.40251953 31.49759766 12.79296875 29.96484375 C12.25785964 28.62237704 11.72270072 27.27993019 11.1875 25.9375 C10.92646484 25.28072266 10.66542969 24.62394531 10.39648438 23.94726562 C8.66258787 19.60182129 6.8591635 15.29338357 5 11 C4.01 11.33 3.02 11.66 2 12 C1.76731085 18.28260706 2.59545452 23.88019467 4 30 C1.42501192 27.42501192 0.93733245 25.16172058 -0.125 21.6875 C-0.47820312 20.55699219 -0.83140625 19.42648438 -1.1953125 18.26171875 C-2.37292181 13.48839944 -2.06805504 9.74691129 -1 5 C-0.814375 4.071875 -0.62875 3.14375 -0.4375 2.1875 C-0.293125 1.465625 -0.14875 0.74375 0 0 Z " fill="#E8AF5A" transform="translate(300,73)"/>
<path d="M0 0 C7.2649409 -0.48885584 13.86380763 -0.36950841 20 4 C21.24609375 6.140625 21.24609375 6.140625 22 8 C19.15557961 7.07390964 16.35904889 6.15715746 13.6171875 4.95703125 C7.33090911 2.65831751 0.81564324 3.25194803 -5.25 5.9375 C-10.5754286 8.88853368 -13.59525586 13.0766626 -17 18 C-17.66 18.66 -18.32 19.32 -19 20 C-18.49047288 15.54163771 -16.80244599 13.41548105 -14 10 C-13.22166466 7.81785432 -13.22166466 7.81785432 -13 6 C-11.68 6 -10.36 6 -9 6 C-8.34 4.68 -7.68 3.36 -7 2 C-4.69 2 -2.38 2 0 2 C0 1.34 0 0.68 0 0 Z " fill="#C69856" transform="translate(105,175)"/>
<path d="M0 0 C2 1 2 1 2.8515625 2.93359375 C5.13978136 10.3414134 6.84325112 17.31349776 3.25 24.5 C1.19573231 26.78251966 -0.14101815 27.97893505 -3 29 C-3 29.66 -3 30.32 -3 31 C-5.97 32.485 -5.97 32.485 -9 34 C-9 36.97 -9 39.94 -9 43 C-11 40 -11 40 -11 36 C-11.66 36 -12.32 36 -13 36 C-13 35.01 -13 34.02 -13 33 C-11.88625 32.7525 -10.7725 32.505 -9.625 32.25 C-5.99943492 31.40930967 -5.99943492 31.40930967 -4.75 29.125 C-4.37875 28.073125 -4.37875 28.073125 -4 27 C-3.505 26.38125 -3.01 25.7625 -2.5 25.125 C1.80633891 19.02435321 1.41545019 12.17859288 1 5 C0.70176495 3.32669646 0.37996729 1.6566574 0 0 Z " fill="#EDB057" transform="translate(97,89)"/>
<path d="M0 0 C2.54410835 2.54410835 2.30918015 4.2856589 2.38012695 7.7644043 C2.35600687 18.57594621 0.75903948 26.05171566 -7 34 C-10.82571883 37.27918757 -14.54397884 37.64014284 -19.4375 37.47265625 C-24.84769378 36.47473941 -28.31258765 33.13337133 -31.640625 28.92578125 C-32.95872636 26.966735 -34.14136631 25.20054209 -35 23 C-34.505 21.515 -34.505 21.515 -34 20 C-33.63648437 20.67546875 -33.27296875 21.3509375 -32.8984375 22.046875 C-28.8206316 29.37991488 -28.8206316 29.37991488 -22 34 C-16.17877529 34.64680275 -12.16151767 34.0190009 -7 31 C-1.3312564 25.19628632 0.24451848 18.28094723 0.17578125 10.34179688 C0.15902344 9.58962891 0.14226562 8.83746094 0.125 8.0625 C0.11597656 7.28326172 0.10695312 6.50402344 0.09765625 5.70117188 C0.07433691 3.80064553 0.03847586 1.90027992 0 0 Z " fill="#554C3F" transform="translate(128,206)"/>
<path d="M0 0 C4.93613817 2.91388417 9.0067068 6.13159581 10.53515625 11.86328125 C10.61765625 12.58515625 10.70015625 13.30703125 10.78515625 14.05078125 C8.77485118 11.53789991 6.78116754 9.04519706 4.91015625 6.42578125 C1.7221452 2.86271008 -1.40265915 1.36594379 -6.08984375 0.55078125 C-11.37251009 1.39600786 -15.43769829 3.84029243 -18.80078125 8.0234375 C-22.60760768 13.90971536 -23.37614809 18.84233857 -23.77734375 25.80078125 C-23.82052734 26.49816406 -23.86371094 27.19554687 -23.90820312 27.9140625 C-24.01373971 29.62610047 -24.11474285 31.33841686 -24.21484375 33.05078125 C-27.2283358 28.53054318 -26.76452679 24.35081154 -26.21484375 19.05078125 C-24.26370824 11.06694566 -21.36912807 4.88324783 -14.46484375 0.17578125 C-9.47214884 -1.5524593 -4.96413524 -2.12748653 0 0 Z " fill="#564C3F" transform="translate(117.21484375,191.94921875)"/>
<path d="M0 0 C0.33 0 0.66 0 1 0 C2.31841566 9.21109317 2.87179575 18.39191517 -2.625 26.375 C-6.37226253 30.7846116 -10.5004745 34.32861395 -16.30078125 35.44140625 C-21.65168389 35.72019277 -24.86113246 34.56135114 -29 31 C-31.375 28.25 -31.375 28.25 -33 26 C-32.67 25.34 -32.34 24.68 -32 24 C-31.443125 24.763125 -30.88625 25.52625 -30.3125 26.3125 C-27.36449213 29.7385632 -25.26566693 31.64936107 -20.703125 32.35546875 C-15.36884804 32.65451155 -11.86066984 31.97894207 -7.5703125 28.77734375 C-2.26981939 22.77802941 -1.28653137 17.32543827 -0.75 9.5625 C-0.67265625 8.64017578 -0.5953125 7.71785156 -0.515625 6.76757812 C-0.32867352 4.51247596 -0.1571989 2.25733786 0 0 Z " fill="#6F6556" transform="translate(290,208)"/>
<path d="M0 0 C0.33 0 0.66 0 1 0 C1 4.95 1 9.9 1 15 C1.33 15 1.66 15 2 15 C2 17.31 2 19.62 2 22 C1.34 22 0.68 22 0 22 C0.02320313 22.75925781 0.04640625 23.51851562 0.0703125 24.30078125 C0.08835938 25.29464844 0.10640625 26.28851563 0.125 27.3125 C0.14820313 28.29863281 0.17140625 29.28476563 0.1953125 30.30078125 C0 33 0 33 -2 36 C-2.37312888 39.12919445 -2.50530922 42.23569714 -2.65625 45.3828125 C-2.7696875 46.24648437 -2.883125 47.11015625 -3 48 C-3.99 48.495 -3.99 48.495 -5 49 C-4.43033009 37.76257146 -3.35212305 26.66049403 -1.9375 15.5 C-1.74890624 13.98312789 -1.56075344 12.4662009 -1.37304688 10.94921875 C-0.9204143 7.29883618 -0.46193053 3.64921911 0 0 Z " fill="#E6B157" transform="translate(242,74)"/>
<path d="M0 0 C0.33 0 0.66 0 1 0 C0.70446838 13.30871962 0.14567859 26.52528016 -1.4375 39.75 C-1.55971924 40.78954834 -1.68193848 41.82909668 -1.80786133 42.90014648 C-2.43248311 47.81960105 -3.17408308 52.35221148 -5 57 C-5.33 57 -5.66 57 -6 57 C-5.88480819 54.02016976 -5.75809198 51.04154208 -5.625 48.0625 C-5.5940625 47.23169922 -5.563125 46.40089844 -5.53125 45.54492188 C-5.34053825 41.46051197 -4.99499414 37.61448682 -4.02734375 33.63671875 C-2.6788832 28.06573787 -2.3414675 22.4547237 -1.9375 16.75 C-1.7826103 14.64042783 -1.62515107 12.5310424 -1.46484375 10.421875 C-1.399021 9.49987305 -1.33319824 8.57787109 -1.26538086 7.62792969 C-1.00346507 5.03431275 -0.55472585 2.54558486 0 0 Z " fill="#FBE6BF" transform="translate(227,101)"/>
<path d="M0 0 C1.3809787 0.00033989 1.3809787 0.00033989 2.78985596 0.00068665 C3.77540466 0.0161705 4.76095337 0.03165436 5.77636719 0.04760742 C7.2994046 0.05397469 7.2994046 0.05397469 8.85321045 0.06047058 C12.09349173 0.07725193 15.33314915 0.11490377 18.57324219 0.15307617 C20.77114987 0.16812368 22.9690673 0.18181197 25.16699219 0.1940918 C30.5526214 0.22715363 35.93788722 0.27734781 41.32324219 0.34057617 C41.32324219 1.00057617 41.32324219 1.66057617 41.32324219 2.34057617 C40.39463379 2.33533936 39.46602539 2.33010254 38.50927734 2.32470703 C35.06900413 2.30768024 31.6287756 2.29513344 28.18847656 2.28564453 C26.69856053 2.28061103 25.20864944 2.27378375 23.71875 2.26513672 C21.57908915 2.25302812 19.43949351 2.2473381 17.29980469 2.24291992 C15.36741943 2.2350647 15.36741943 2.2350647 13.39599609 2.22705078 C10.40918991 2.12514986 10.40918991 2.12514986 8.32324219 3.34057617 C7.23011719 3.15495117 6.13699219 2.96932617 5.01074219 2.77807617 C1.18182664 2.32379806 -0.47447686 2.23622012 -3.67675781 4.34057617 C-5.04865609 7.37039923 -5.04865609 7.37039923 -5.67675781 10.34057617 C-6.66675781 10.01057617 -7.65675781 9.68057617 -8.67675781 9.34057617 C-8.92675781 6.52807617 -8.92675781 6.52807617 -8.67675781 3.34057617 C-5.86640305 0.60425015 -3.8688292 -0.03188595 0 0 Z " fill="#402B0A" transform="translate(30.6767578125,92.659423828125)"/>
<path d="M0 0 C3.40004314 -0.35038613 6.61114949 -0.50992108 10 0 C12.9641798 2.9641798 13.83665946 4.87995057 14.4375 9 C13.91216502 12.60229702 13.03878987 14.97696674 11 18 C5.31880742 19.73481195 -0.79452265 19.00554344 -6.6574707 18.81298828 C-8.69146929 18.74987684 -10.7252106 18.70866475 -12.75976562 18.66796875 C-14.03916016 18.62800781 -15.31855469 18.58804688 -16.63671875 18.546875 C-17.80936279 18.51432617 -18.98200684 18.48177734 -20.19018555 18.44824219 C-21.11742432 18.30032227 -22.04466309 18.15240234 -23 18 C-23.66 17.01 -24.32 16.02 -25 15 C-24.30922363 15.15936035 -23.61844727 15.3187207 -22.90673828 15.48291016 C-17.28529853 16.48292774 -11.57051453 16.31190769 -5.875 16.375 C-4.58722656 16.41238281 -3.29945312 16.44976562 -1.97265625 16.48828125 C-0.12607422 16.50568359 -0.12607422 16.50568359 1.7578125 16.5234375 C3.44608154 16.5531665 3.44608154 16.5531665 5.16845703 16.58349609 C8.18861673 16.27214324 8.18861673 16.27214324 9.90576172 13.65869141 C11.28824913 10.29963564 10.88890937 8.4815617 10 5 C9.505 3.02 9.505 3.02 9 1 C6.03 1 3.06 1 0 1 C0 0.67 0 0.34 0 0 Z " fill="#F0ECDE" transform="translate(66,130)"/>
<path d="M0 0 C1.40564713 0.00666183 1.40564713 0.00666183 2.83969116 0.01345825 C3.90063995 0.01360931 4.96158875 0.01376038 6.0546875 0.01391602 C7.20367523 0.02423859 8.35266296 0.03456116 9.53646851 0.04519653 C10.71002899 0.04802643 11.88358948 0.05085632 13.0927124 0.05377197 C16.85271262 0.06499548 20.61247739 0.09010411 24.37240601 0.11550903 C26.91667341 0.12553602 29.46094453 0.13466236 32.00521851 0.14285278 C38.25269511 0.1649419 44.50003374 0.19844079 50.74740601 0.24050903 C50.74740601 0.57050903 50.74740601 0.90050903 50.74740601 1.24050903 C34.24740601 1.24050903 17.74740601 1.24050903 0.74740601 1.24050903 C0.41740601 3.22050903 0.08740601 5.20050903 -0.25259399 7.24050903 C-0.87485004 8.92426069 -1.52803765 10.59818132 -2.25259399 12.24050903 C-2.91259399 11.91050903 -3.57259399 11.58050903 -4.25259399 11.24050903 C-4.30659136 9.78258019 -4.34538576 8.32408192 -4.37759399 6.86550903 C-4.41239868 5.64734497 -4.41239868 5.64734497 -4.44790649 4.40457153 C-4.16317015 1.24969284 -3.12167063 0.33330018 0 0 Z " fill="#77674A" transform="translate(45.252593994140625,52.759490966796875)"/>
<path d="M0 0 C2.00731821 3.29445356 2.12227604 5.33465149 1.625 9.125 C1.08145582 13.8272892 0.94315385 18.37247119 1.0625 23.1015625 C1 25 1 25 0 26 C-0.3931648 27.67884238 -0.74085452 29.36850045 -1.0625 31.0625 C-1.32740234 32.44115234 -1.32740234 32.44115234 -1.59765625 33.84765625 C-1.73042969 34.55792969 -1.86320313 35.26820313 -2 36 C-2.66 36 -3.32 36 -4 36 C-4.19051917 29.14130984 -3.45123852 22.54574943 -2.5625 15.75 C-2.42779297 14.67492187 -2.29308594 13.59984375 -2.15429688 12.4921875 C-1.0520829 3.86803526 -1.0520829 3.86803526 0 0 Z " fill="#E7AE50" transform="translate(236,124)"/>
<path d="M0 0 C1.299375 -0.04125 2.59875 -0.0825 3.9375 -0.125 C7.92526795 -0.20066922 10.55853522 0.93512113 14 3 C13.34 3.66 12.68 4.32 12 5 C11.45859375 4.67773438 10.9171875 4.35546875 10.359375 4.0234375 C5.28921551 1.82412991 -1.16773393 2.10072076 -6.38671875 3.7578125 C-10.32461183 5.66300267 -13.70432823 8.1162872 -17 11 C-17 9.35 -17 7.7 -17 6 C-16.195625 5.731875 -15.39125 5.46375 -14.5625 5.1875 C-13.716875 4.795625 -12.87125 4.40375 -12 4 C-11.67 3.01 -11.34 2.02 -11 1 C-6.82138957 -0.89936838 -4.37635153 -1.04198846 0 0 Z " fill="#CE9A4D" transform="translate(269,176)"/>
<path d="M0 0 C10.56 0.66 21.12 1.32 32 2 C31.67 2.66 31.34 3.32 31 4 C27.06739056 4.07421454 23.13505278 4.12863136 19.2019043 4.16479492 C17.20672299 4.18728333 15.21173787 4.22540198 13.21679688 4.26367188 C11.96318359 4.27333984 10.70957031 4.28300781 9.41796875 4.29296875 C8.26063232 4.3086792 7.1032959 4.32438965 5.91088867 4.34057617 C3 4 3 4 1.09887695 2.54418945 C0 1 0 1 0 0 Z " fill="#796241" transform="translate(43,143)"/>
<path d="M0 0 C4.71753097 4.40302891 6.25101182 7.3254074 6.48095703 13.89086914 C6.55120048 22.1318666 5.99898308 28.67464737 0 35 C-0.66 35 -1.32 35 -2 35 C-0.96301546 32.28788659 0.12023929 29.78708257 1.55078125 27.25390625 C4.18667084 21.33558812 4.11348415 13.86519786 2.3203125 7.640625 C1.61228636 6.06273818 0.81386298 4.52599308 0 3 C0 2.01 0 1.02 0 0 Z " fill="#FDF0CD" transform="translate(104,44)"/>
<path d="M0 0 C2.0625 0.4375 2.0625 0.4375 4 1 C3.3503125 1.7425 3.3503125 1.7425 2.6875 2.5 C-1.17232942 8.21826581 -2.869707 15.47314486 -5 22 C-6.98 22 -8.96 22 -11 22 C-11 21.34 -11 20.68 -11 20 C-9.68 20 -8.36 20 -7 20 C-7 17.69 -7 15.38 -7 13 C-6.34 13 -5.68 13 -5 13 C-5 12.01 -5 11.02 -5 10 C-4.34 10 -3.68 10 -3 10 C-2.86722656 9.36191406 -2.73445312 8.72382813 -2.59765625 8.06640625 C-2.42105469 7.24011719 -2.24445313 6.41382813 -2.0625 5.5625 C-1.88847656 4.73878906 -1.71445313 3.91507813 -1.53515625 3.06640625 C-1 1 -1 1 0 0 Z " fill="#DFA854" transform="translate(248,187)"/>
<path d="M0 0 C0.33 0 0.66 0 1 0 C1.09471858 9.0719352 1.14516104 17.98185679 0 27 C5.28 27 10.56 27 16 27 C11.81219462 29.09390269 9.8852371 29.24382711 5.3125 29.1875 C3.57419922 29.17783203 3.57419922 29.17783203 1.80078125 29.16796875 C-1 29 -1 29 -2 28 C-1.93425015 24.98746131 -1.80581627 22.00607047 -1.625 19 C-1.58117188 18.17371094 -1.53734375 17.34742188 -1.4921875 16.49609375 C-1.18081091 10.96915925 -0.65385233 5.49679243 0 0 Z " fill="#FBF2D2" transform="translate(58,183)"/>
<path d="M0 0 C0.33 0.66 0.66 1.32 1 2 C-1.31578947 6.31578947 -1.31578947 6.31578947 -3 8 C-8.6822151 9.08808374 -14.22814851 9.10452045 -20 9 C-20 10.98 -20 12.96 -20 15 C-20.99 15.495 -20.99 15.495 -22 16 C-22.09765625 9.84765625 -22.09765625 9.84765625 -22 8 C-20.1900082 6.1900082 -17.25536725 6.78411057 -14.8125 6.6875 C-7.86927113 6.21548225 -4.882591 4.882591 0 0 Z " fill="#EBB662" transform="translate(84,154)"/>
<path d="M0 0 C1.0579505 3.1738515 1.0002273 4.92964012 0.73046875 8.2265625 C0.64603516 9.25910156 0.56160156 10.29164062 0.47460938 11.35546875 C0.33249023 12.97388672 0.33249023 12.97388672 0.1875 14.625 C0.10435547 15.68074219 0.02121094 16.73648438 -0.06445312 17.82421875 C-0.59259897 24.04631657 -1.49430866 29.93911586 -3 36 C-3.33 36 -3.66 36 -4 36 C-4.41244718 27.7663323 -3.73898102 19.95335951 -2.5625 11.8125 C-2.42803467 10.87962158 -2.29356934 9.94674316 -2.1550293 8.9855957 C-1.14198598 2.28397196 -1.14198598 2.28397196 0 0 Z " fill="#EDB05F" transform="translate(226,103)"/>
<path d="M0 0 C5.76573685 -0.09891077 11.5309794 -0.17148845 17.29736328 -0.21972656 C19.25871381 -0.23983632 21.22000444 -0.26712818 23.18115234 -0.30175781 C26.00112695 -0.35030421 28.82030865 -0.37297486 31.640625 -0.390625 C32.95489471 -0.42159271 32.95489471 -0.42159271 34.29571533 -0.45318604 C40.38648869 -0.45542864 40.38648869 -0.45542864 43.546875 1.890625 C45.859373 5.24747693 45.7319118 7.97867706 46 12 C45.34 12 44.68 12 44 12 C43.505 8.04 43.505 8.04 43 4 C42.01 3.67 41.02 3.34 40 3 C40 2.34 40 1.68 40 1 C26.8 1 13.6 1 0 1 C0 0.67 0 0.34 0 0 Z " fill="#FFF9EF" transform="translate(56,51)"/>
<path d="M0 0 C0.33 0 0.66 0 1 0 C1.35249646 13.07309933 1.07050491 25.24278316 -2 38 C-2.33 38 -2.66 38 -3 38 C-2.88895897 33.54120619 -2.75861149 29.08317005 -2.625 24.625 C-2.5940625 23.37332031 -2.563125 22.12164062 -2.53125 20.83203125 C-2.30685406 13.68876048 -1.72457597 6.94491405 0 0 Z " fill="#D7A45D" transform="translate(221,139)"/>
<path d="M0 0 C3.89577024 -0.05821935 7.79142802 -0.0936703 11.6875 -0.125 C12.79029297 -0.14175781 13.89308594 -0.15851563 15.02929688 -0.17578125 C16.09599609 -0.18222656 17.16269531 -0.18867187 18.26171875 -0.1953125 C19.73064575 -0.21102295 19.73064575 -0.21102295 21.22924805 -0.22705078 C24.20470766 0.01677488 26.33750616 0.66491833 29 2 C29.99609375 3.875 29.99609375 3.875 30.4375 6 C30.68306641 7.051875 30.68306641 7.051875 30.93359375 8.125 C30.95550781 8.74375 30.97742188 9.3625 31 10 C30.34 10.66 29.68 11.32 29 12 C28.5359375 10.3603125 28.5359375 10.3603125 28.0625 8.6875 C27.41662103 6.44592006 26.7376883 4.2130649 26 2 C17.42 2 8.84 2 0 2 C0 1.34 0 0.68 0 0 Z " fill="#F8F2E9" transform="translate(60,90)"/>
<path d="M0 0 C5.19610459 0.59955053 8.62730269 4.52335086 12.01171875 8.1640625 C14.47086152 11.67160208 15.60594553 15.04870212 16.8125 19.125 C17.15571289 20.19814453 17.15571289 20.19814453 17.50585938 21.29296875 C19.13040895 26.60877316 19.13040895 26.60877316 18 30 C17.64808594 28.94941406 17.29617188 27.89882812 16.93359375 26.81640625 C14.04409439 18.48913296 11.16120129 11.50508229 5 5 C4.23042969 4.18402344 4.23042969 4.18402344 3.4453125 3.3515625 C2.32512049 2.20605542 1.16775396 1.09698099 0 0 Z " fill="#FCEBC7" transform="translate(282,180)"/>
<path d="M0 0 C0.66 0 1.32 0 2 0 C2.33 2.64 2.66 5.28 3 8 C-6.24 8 -15.48 8 -25 8 C-23 6 -23 6 -20.96875 5.78881836 C-19.74671875 5.81407593 -19.74671875 5.81407593 -18.5 5.83984375 C-17.613125 5.85080078 -16.72625 5.86175781 -15.8125 5.87304688 C-14.884375 5.89431641 -13.95625 5.91558594 -13 5.9375 C-11.1667443 5.97187354 -9.33340315 6.00202786 -7.5 6.02734375 C-6.27796875 6.05429321 -6.27796875 6.05429321 -5.03125 6.08178711 C-2.93066996 6.1365296 -2.93066996 6.1365296 -1 5 C-0.34444881 2.47266765 -0.34444881 2.47266765 0 0 Z " fill="#422C06" transform="translate(297,129)"/>
<path d="M0 0 C0.66 0 1.32 0 2 0 C1.71515154 1.73030291 1.42180062 3.45920714 1.125 5.1875 C0.96257812 6.15042969 0.80015625 7.11335937 0.6328125 8.10546875 C0 11 0 11 -2 16 C-9.92 15.67 -17.84 15.34 -26 15 C-26 14.67 -26 14.34 -26 14 C-18.41 13.67 -10.82 13.34 -3 13 C-2.67 10.36 -2.34 7.72 -2 5 C-0.9375 2 -0.9375 2 0 0 Z " fill="#CFAC74" transform="translate(84,195)"/>
<path d="M0 0 C0.33 0 0.66 0 1 0 C1.05794812 4.27077656 1.09357874 8.54145236 1.125 12.8125 C1.14175781 14.02744141 1.15851562 15.24238281 1.17578125 16.49414062 C1.18222656 17.65751953 1.18867187 18.82089844 1.1953125 20.01953125 C1.20578613 21.09307861 1.21625977 22.16662598 1.22705078 23.27270508 C1 26 1 26 -1 29 C-1 30.32 -1 31.64 -1 33 C-1.66 33 -2.32 33 -3 33 C-3.18463754 25.68373739 -2.4697345 18.68429971 -1.5 11.4375 C-1.35691406 10.33341797 -1.21382812 9.22933594 -1.06640625 8.09179688 C-0.7160201 5.3938235 -0.36044731 2.6966444 0 0 Z " fill="#E6AB4F" transform="translate(61,176)"/>
<path d="M0 0 C0.33 0 0.66 0 1 0 C1.36540451 7.06448717 0.16199145 10.82907921 -3.875 16.75 C-6.18516322 19.19605517 -7.78649836 20.09362774 -11 21 C-11.99 21 -12.98 21 -14 21 C-14.33 22.32 -14.66 23.64 -15 25 C-15.33 24.01 -15.66 23.02 -16 22 C-13.92060879 19.68956532 -12.43967261 18.16487723 -9.5 17.0625 C-5.66775163 15.43379444 -3.98638462 12.5574494 -1.8125 9.125 C-0.67221484 6.14271573 -0.36453512 3.15930439 0 0 Z " fill="#FEF6DF" transform="translate(97,101)"/>
<path d="M0 0 C0.33 0 0.66 0 1 0 C1.66 2.64 2.32 5.28 3 8 C4.98 8 6.96 8 9 8 C9.66 6.02 10.32 4.04 11 2 C11.6875 3.625 11.6875 3.625 12 6 C10.5625 9.25 10.5625 9.25 9 12 C6.03 11.67 3.06 11.34 0 11 C0 7.37 0 3.74 0 0 Z " fill="#B78D4C" transform="translate(217,181)"/>
<path d="M0 0 C7.2649409 -0.48885584 13.86380763 -0.36950841 20 4 C21.24609375 6.140625 21.24609375 6.140625 22 8 C18.27566618 6.7874262 14.62197194 5.49140021 11 4 C11 3.34 11 2.68 11 2 C7.37 2 3.74 2 0 2 C0 1.34 0 0.68 0 0 Z " fill="#E0A24A" transform="translate(105,175)"/>
<path d="M0 0 C0.33 0 0.66 0 1 0 C1.34915606 9.15564771 0.27041977 17.95960217 -1 27 C-1.66 26.67 -2.32 26.34 -3 26 C-3.02689216 24.52093108 -3.04634621 23.04172517 -3.0625 21.5625 C-3.07410156 20.73878906 -3.08570313 19.91507813 -3.09765625 19.06640625 C-3 17 -3 17 -2 16 C-1.60006314 13.31137336 -1.24865457 10.63647783 -0.9375 7.9375 C-0.84662109 7.17888672 -0.75574219 6.42027344 -0.66210938 5.63867188 C-0.4375626 3.7595699 -0.21829022 1.87983905 0 0 Z " fill="#E8A442" transform="translate(218,160)"/>
<path d="M0 0 C2.20996573 3.3149486 3.30414829 6.6207504 4.5 10.375 C6.1716004 15.6198629 6.1716004 15.6198629 8.21875 20.7265625 C9.10074392 23.29316481 8.92948738 24.49038407 8 27 C4.46468022 20.75426838 2.99055639 15.09029841 2 8 C1.34 8 0.68 8 0 8 C0 5.36 0 2.72 0 0 Z " fill="#E5B36A" transform="translate(315,110)"/>
<path d="M0 0 C4.88070564 0.4183462 6.88110756 2.32130635 10 6 C11.60033819 8.30206376 12.77147662 10.44845145 14 13 C13.67 13.99 13.34 14.98 13 16 C12.46375 15.154375 11.9275 14.30875 11.375 13.4375 C8.10283603 8.52343169 4.20662163 4.13172629 0 0 Z " fill="#F9E6C3" transform="translate(293,66)"/>
<path d="M0 0 C5.88441515 -0.75120193 9.18070623 0.69596551 13.97265625 4.14453125 C16.98849744 6.90469419 18.99730177 10.01469942 20 14 C19.67 14.99 19.34 15.98 19 17 C18.70867187 16.40832031 18.41734375 15.81664062 18.1171875 15.20703125 C15.09962745 9.39016234 12.36955482 4.5012937 5.83984375 2.2578125 C3.91149155 1.76127031 1.95638118 1.37103781 0 1 C0 0.67 0 0.34 0 0 Z " fill="#7E7461" transform="translate(270,191)"/>
<path d="M0 0 C1.65 0 3.3 0 5 0 C4.51917969 0.96035156 4.03835938 1.92070313 3.54296875 2.91015625 C1.62929273 7.37540029 1.44806331 11.63081229 1.3125 16.4375 C1.27833984 17.26443359 1.24417969 18.09136719 1.20898438 18.94335938 C1.12731379 20.96178944 1.06196276 22.98086884 1 25 C0.67 25 0.34 25 0 25 C0 16.75 0 8.5 0 0 Z " fill="#432603" transform="translate(259,94)"/>
<path d="M0 0 C3.05227053 3.05227053 3.84346654 6.83341231 5.1875 10.875 C5.47302734 11.69097656 5.75855469 12.50695312 6.05273438 13.34765625 C6.31763672 14.13785156 6.58253906 14.92804688 6.85546875 15.7421875 C7.09934326 16.4626123 7.34321777 17.18303711 7.59448242 17.92529297 C8.05438478 20.27824316 7.74371194 21.74376667 7 24 C0.29612756 8.43963554 0.29612756 8.43963554 0 0 Z " fill="#FDEECE" transform="translate(307,82)"/>
<path d="M0 0 C2.04419175 3.34146728 2.15708055 5.57559109 1.75 9.4375 C1.61851562 10.82775391 1.61851562 10.82775391 1.484375 12.24609375 C0.99092913 15.05157226 0.15057055 17.40178535 -1 20 C-1.33 20 -1.66 20 -2 20 C-1.85879984 17.41633755 -1.71221667 14.83317115 -1.5625 12.25 C-1.52318359 11.52039063 -1.48386719 10.79078125 -1.44335938 10.0390625 C-1.23852902 6.5727027 -0.9147998 3.34666974 0 0 Z " fill="#E7B663" transform="translate(236,124)"/>
<path d="M0 0 C0 3 0 3 -1 6 C-4.0625 7.6875 -4.0625 7.6875 -7 9 C-7 11.97 -7 14.94 -7 18 C-9 15 -9 15 -9 11 C-9.66 11 -10.32 11 -11 11 C-11 10.01 -11 9.02 -11 8 C-9.88625 7.7525 -8.7725 7.505 -7.625 7.25 C-3.97371265 6.40432658 -3.97371265 6.40432658 -2.6875 4 C-2.460625 3.34 -2.23375 2.68 -2 2 C-1.34 1.34 -0.68 0.68 0 0 Z " fill="#ECBB6F" transform="translate(95,114)"/>
<path d="M0 0 C0.66 0.33 1.32 0.66 2 1 C0.8553125 1.8971875 0.8553125 1.8971875 -0.3125 2.8125 C-2.91335259 4.84004112 -2.91335259 4.84004112 -4.6875 6.75 C-6 8 -6 8 -8 8 C-8.28875 8.94875 -8.5775 9.8975 -8.875 10.875 C-10 14 -10 14 -12 16 C-11.32599065 10.27092056 -8.65492634 6.4579113 -4.375 2.6875 C-2 1 -2 1 0 0 Z " fill="#442E0A" transform="translate(106,193)"/>
<path d="M0 0 C3.40004314 -0.35038613 6.61114949 -0.50992108 10 0 C13.13751973 3.13751973 13.92351561 4.96746078 14.25 9.375 C14.1675 10.24125 14.085 11.1075 14 12 C13.01 12.495 13.01 12.495 12 13 C11 9 10 5 9 1 C6.03 1 3.06 1 0 1 C0 0.67 0 0.34 0 0 Z " fill="#F6F4ED" transform="translate(66,130)"/>
<path d="M0 0 C1.32 0 2.64 0 4 0 C3.44894091 3.9492568 2.61064629 7.34920174 1 11 C0.34 10.67 -0.32 10.34 -1 10 C-1.02689216 8.52093108 -1.04634621 7.04172517 -1.0625 5.5625 C-1.07410156 4.73878906 -1.08570313 3.91507813 -1.09765625 3.06640625 C-1 1 -1 1 0 0 Z " fill="#705B3B" transform="translate(42,54)"/>
<path d="M0 0 C-1.59092052 4.13639336 -4.60474918 7.23213248 -8 10 C-8.66 10 -9.32 10 -10 10 C-10 10.99 -10 11.98 -10 13 C-10.66 13 -11.32 13 -12 13 C-10.66182195 9.02031425 -8.99662286 6.61251238 -6 3.6875 C-5.29875 2.99011719 -4.5975 2.29273438 -3.875 1.57421875 C-2 0 -2 0 0 0 Z " fill="#26231C" transform="translate(260,181)"/>
<path d="M0 0 C1.32 0.33 2.64 0.66 4 1 C5.125 6.75 5.125 6.75 4 9 C2.68 9 1.36 9 0 9 C0 6.03 0 3.06 0 0 Z " fill="#453215" transform="translate(73,134)"/>
<path d="M0 0 C5.85365854 5.46341463 5.85365854 5.46341463 6.1171875 10.03125 C6.12419438 12.02120443 6.0662954 14.01113785 6 16 C3.63224279 13.63224279 3.00103504 11.70288662 1.875 8.5625 C1.52179688 7.59441406 1.16859375 6.62632813 0.8046875 5.62890625 C0 3 0 3 0 0 Z " fill="#FEECC0" transform="translate(104,44)"/>
<path d="M0 0 C1.953125 0.6484375 1.953125 0.6484375 4 2 C4.609375 4.6015625 4.609375 4.6015625 4.75 7.625 C4.80671875 8.62789062 4.8634375 9.63078125 4.921875 10.6640625 C4.94765625 11.43492187 4.9734375 12.20578125 5 13 C8.3 13 11.6 13 15 13 C15 13.33 15 13.66 15 14 C11.37 14 7.74 14 4 14 C3.32968281 12.0429132 2.66385317 10.08428887 2 8.125 C1.62875 7.03445312 1.2575 5.94390625 0.875 4.8203125 C0 2 0 2 0 0 Z " fill="#EDBF72" transform="translate(297,196)"/>
<path d="M0 0 C2.74403846 2.74403846 2.81362157 5.02537715 3.16015625 8.80078125 C3 11 3 11 0.875 13.5625 C-2.09591873 15.04795936 -3.73661245 15.37295858 -7 15 C-6.401875 14.7525 -5.80375 14.505 -5.1875 14.25 C-2.48309418 12.70462524 -1.43257762 11.79352635 0 9 C0.24492511 5.98273114 0.17422028 3.01981824 0 0 Z " fill="#DAD2C5" transform="translate(98,55)"/>
<path d="M0 0 C0 3.70170368 -0.75547311 6.5153247 -2 10 C-4.125 11.9375 -4.125 11.9375 -6 13 C-5.49890261 7.73847744 -3.79035827 3.79035827 0 0 Z " fill="#432B0A" transform="translate(261,197)"/>
<path d="M0 0 C3.5 1.5 3.5 1.5 6 3 C5.34 3.66 4.68 4.32 4 5 C3.46890625 4.68289062 2.9378125 4.36578125 2.390625 4.0390625 C-0.54535848 2.7629651 -3.06174329 2.58292979 -6.25 2.375 C-7.32765625 2.30023438 -8.4053125 2.22546875 -9.515625 2.1484375 C-10.33546875 2.09945312 -11.1553125 2.05046875 -12 2 C-8.03780766 -0.21002284 -4.47388663 -0.59137582 0 0 Z " fill="#C5AC7F" transform="translate(277,176)"/>
<path d="M0 0 C2 2 2 2 2.23046875 5.80859375 C2.22647471 7.35162381 2.21170649 8.89465466 2.1875 10.4375 C2.18685547 11.21416016 2.18621094 11.99082031 2.18554688 12.79101562 C2.15987563 16.10260575 2.05352418 18.83942745 1 22 C0.34 22 -0.32 22 -1 22 C-0.83628906 21.35675781 -0.67257813 20.71351563 -0.50390625 20.05078125 C0.15334676 16.07159829 0.106353 12.2118563 0.0625 8.1875 C0.05798828 7.39923828 0.05347656 6.61097656 0.04882812 5.79882812 C0.03711312 3.86585239 0.01917998 1.93291607 0 0 Z " fill="#514431" transform="translate(128,206)"/>
<path d="M0 0 C0.33 0 0.66 0 1 0 C1.33 4.29 1.66 8.58 2 13 C5.96 13.99 5.96 13.99 10 15 C10 15.33 10 15.66 10 16 C6.7 16 3.4 16 0 16 C0 10.72 0 5.44 0 0 Z " fill="#402805" transform="translate(259,121)"/>
<path d="M0 0 C1.32 0.33 2.64 0.66 4 1 C4 1.66 4 2.32 4 3 C5.65 3 7.3 3 9 3 C8.67 5.64 8.34 8.28 8 11 C5.25498003 7.38813161 2.62987986 3.69604737 0 0 Z " fill="#EDB759" transform="translate(102,41)"/>
<path d="M0 0 C1.32 0.33 2.64 0.66 4 1 C3.01 1.495 3.01 1.495 2 2 C1.62633887 3.99285937 1.29259485 5.99363529 1 8 C0.67 8.33 0.34 8.66 0 9 C-0.23363881 10.84891946 -0.41303635 12.70488031 -0.5625 14.5625 C-0.64628906 15.57441406 -0.73007812 16.58632812 -0.81640625 17.62890625 C-0.87699219 18.41136719 -0.93757813 19.19382813 -1 20 C-1.33 20 -1.66 20 -2 20 C-2.3690205 6.3667426 -2.3690205 6.3667426 0 0 Z " fill="#EAA53A" transform="translate(64,163)"/>
<path d="M0 0 C0 0.66 0 1.32 0 2 C-0.99 2 -1.98 2 -3 2 C-3 2.99 -3 3.98 -3 5 C-4.32 5 -5.64 5 -7 5 C-7.33 5.99 -7.66 6.98 -8 8 C-8.66 6.68 -9.32 5.36 -10 4 C-8.71086513 3.32845067 -7.41859796 2.66291141 -6.125 2 C-5.40570313 1.62875 -4.68640625 1.2575 -3.9453125 0.875 C-2 0 -2 0 0 0 Z " fill="#E6B968" transform="translate(104,79)"/>
<path d="M0 0 C0.99 0 1.98 0 3 0 C3 1.98 3 3.96 3 6 C5.97 6.495 5.97 6.495 9 7 C9 7.33 9 7.66 9 8 C6.69 8 4.38 8 2 8 C0.23537317 4.91190305 0 3.76687864 0 0 Z " fill="#DC9D42" transform="translate(139,201)"/>
<path d="M0 0 C2.0625 0.4375 2.0625 0.4375 4 1 C3.566875 1.495 3.13375 1.99 2.6875 2.5 C0.43618332 5.83528397 -0.671061 9.20303142 -2 13 C-3.35068317 10.29863366 -2.73985317 8.86436954 -2.125 5.9375 C-1.94195312 5.03902344 -1.75890625 4.14054688 -1.5703125 3.21484375 C-1 1 -1 1 0 0 Z " fill="#AD874E" transform="translate(248,187)"/>
<path d="M0 0 C3 1 3 1 4.1875 3.25 C4.99938294 5.99791147 5.16260121 8.15447889 5 11 C4.34 11 3.68 11 3 11 C2.67 8.36 2.34 5.72 2 3 C1.01 2.67 0.02 2.34 -1 2 C-0.67 1.34 -0.34 0.68 0 0 Z " fill="#F5F3EC" transform="translate(97,52)"/>
<path d="M0 0 C0.47050781 0.40992188 0.94101562 0.81984375 1.42578125 1.2421875 C2.04839844 1.78101563 2.67101562 2.31984375 3.3125 2.875 C4.23482422 3.67550781 4.23482422 3.67550781 5.17578125 4.4921875 C7.13498212 6.1640447 7.13498212 6.1640447 10 8 C10 8.66 10 9.32 10 10 C4.98343041 8.5666944 2.98547118 6.09436048 0 2 C0 1.34 0 0.68 0 0 Z " fill="#544B3C" transform="translate(257,232)"/>
<path d="M0 0 C0.99 0.33 1.98 0.66 3 1 C3 1.66 3 2.32 3 3 C3.66 3 4.32 3 5 3 C5 5.31 5 7.62 5 10 C4.34 9.34 3.68 8.68 3 8 C3 7.01 3 6.02 3 5 C2.34 5 1.68 5 1 5 C0.67 3.35 0.34 1.7 0 0 Z " fill="#C19049" transform="translate(134,191)"/>
<path d="M0 0 C5.37305699 -0.44041451 5.37305699 -0.44041451 8 0 C10 2.5 10 2.5 11 5 C7.27566618 3.7874262 3.62197194 2.49140021 0 1 C0 0.67 0 0.34 0 0 Z " fill="#9F7D4C" transform="translate(116,178)"/>
<path d="M0 0 C2.1385485 2.1385485 2.42655063 3.13275314 3 6 C0.525 7.485 0.525 7.485 -2 9 C-1.125 1.125 -1.125 1.125 0 0 Z " fill="#EEA43D" transform="translate(316,119)"/>
<path d="M0 0 C-0.625 1.9375 -0.625 1.9375 -2 4 C-5.125 4.75 -5.125 4.75 -8 5 C-7.67 4.34 -7.34 3.68 -7 3 C-6.34 3 -5.68 3 -5 3 C-5 2.34 -5 1.68 -5 1 C-3 0 -3 0 0 0 Z " fill="#47320D" transform="translate(284,234)"/>
<path d="M0 0 C0.66 0.33 1.32 0.66 2 1 C0.02 3.97 -1.96 6.94 -4 10 C-5 6 -5 6 -4.00390625 4.296875 C-2.66927083 2.86458333 -1.33463542 1.43229167 0 0 Z " fill="#CCA870" transform="translate(91,185)"/>
<path d="M0 0 C7.425 0.99 7.425 0.99 15 2 C15 2.33 15 2.66 15 3 C12.87561661 3.08078641 10.7503677 3.13909141 8.625 3.1875 C7.44164062 3.22230469 6.25828125 3.25710937 5.0390625 3.29296875 C3.53472656 3.14794922 3.53472656 3.14794922 2 3 C1.34 2.01 0.68 1.02 0 0 Z " fill="#FAF3E7" transform="translate(41,145)"/>
<path d="M0 0 C1.98 0.99 1.98 0.99 4 2 C4 3.98 4 5.96 4 8 C1.10067643 5.60490662 0.49831724 3.68754757 0 0 Z " fill="#442C09" transform="translate(255,225)"/>
<path d="M0 0 C2.35953094 2.35953094 2.49141413 3.77895617 3 7 C2.01 6.67 1.02 6.34 0 6 C-0.33 6.66 -0.66 7.32 -1 8 C-1.93065133 5.39417629 -2.14917407 4.35801776 -1.0625 1.75 C-0.711875 1.1725 -0.36125 0.595 0 0 Z " fill="#624827" transform="translate(291,106)"/>
</svg>
